<mxfile host="65bd71144e" modified="2021-03-08T11:19:23.664Z" agent="5.0 (Macintosh; Intel Mac OS X 10_15_7) AppleWebKit/537.36 (KHTML, like Gecko) Code/1.53.2 Chrome/87.0.4280.141 Electron/11.2.1 Safari/537.36" etag="qTN6rrPXSfwXKGxv8fRI" version="14.2.4" type="embed">
    <diagram id="tRR_Kh57nOYFbej-bs4z" name="Page-1">
        <mxGraphModel dx="2964" dy="2111" grid="1" gridSize="10" guides="1" tooltips="1" connect="1" arrows="1" fold="1" page="1" pageScale="1" pageWidth="1654" pageHeight="1169" math="0" shadow="0">
            <root>
                <mxCell id="0"/>
                <mxCell id="1" value="Title" style="" parent="0"/>
                <mxCell id="1xMuABiLspTQqIyXcePy-13" value="" style="group;movable=1;resizable=1;rotatable=1;deletable=1;editable=1;connectable=1;" parent="1" vertex="1" connectable="0">
                    <mxGeometry x="-860" y="-380" width="830" height="200" as="geometry"/>
                </mxCell>
                <mxCell id="1xMuABiLspTQqIyXcePy-74" value="" style="group" parent="1xMuABiLspTQqIyXcePy-13" vertex="1" connectable="0">
                    <mxGeometry x="90" y="70" width="750" height="200" as="geometry"/>
                </mxCell>
                <mxCell id="1xMuABiLspTQqIyXcePy-72" value="" style="group" parent="1xMuABiLspTQqIyXcePy-74" vertex="1" connectable="0">
                    <mxGeometry width="750" height="200" as="geometry"/>
                </mxCell>
                <mxCell id="1xMuABiLspTQqIyXcePy-6" value="&lt;p class=&quot;MsoFooter&quot; align=&quot;center&quot; style=&quot;margin: 0cm 0cm 0.0001pt ; font-size: 10pt ; font-family: &amp;#34;calibri&amp;#34; , sans-serif&quot;&gt;&lt;b&gt;HPViz Project&lt;br&gt;CONFIDENTIAL – ALL RIGHTS RESERVED – NOT FOR PUBLIC DISTRIBUTION&lt;/b&gt;&lt;/p&gt;" style="rounded=0;whiteSpace=wrap;html=1;movable=1;resizable=1;rotatable=1;deletable=1;editable=1;connectable=1;" parent="1xMuABiLspTQqIyXcePy-72" vertex="1">
                    <mxGeometry x="180" width="570" height="40" as="geometry"/>
                </mxCell>
                <mxCell id="1xMuABiLspTQqIyXcePy-5" value="" style="rounded=0;whiteSpace=wrap;html=1;movable=1;resizable=1;rotatable=1;deletable=1;editable=1;connectable=1;" parent="1xMuABiLspTQqIyXcePy-72" vertex="1">
                    <mxGeometry width="180" height="80" as="geometry"/>
                </mxCell>
                <mxCell id="1xMuABiLspTQqIyXcePy-1" value="" style="shape=image;verticalLabelPosition=bottom;labelBackgroundColor=#ffffff;verticalAlign=top;aspect=fixed;imageAspect=0;image=data:image/png,iVBORw0KGgoAAAANSUhEUgAAAJkAAAAoCAYAAADtylhqAAAWFklEQVR4Ae1bCVhUR7auzGRmXr7MfJPMN3nzknmT1aC475rNxAXFLe5GjRr36MQlGnWekxjNMkYT45hoNO67ohBXRMQNZF8bpFm6aaC7EWSRpRtlC/C/76/L7W6gEcjI5L1P6vsOVbfuqVP31v0559Q51QKtpXUFWngFRAvLbxXfugJoBVkrCFp8BVpB1uJL3DpBK8haMdDiK9AKshZf4tYJWkHWioEWX4FWkLX4ErdO0AqyVgy0+Ar8W0BmtpQj925FvZdJz7MiIStfoczb0GbkQWsm5SLBlIN4Yza0xixY7pbaxlZXVyPJlI1Yg9lGGr0ZGr1JIZ0JGp2xhtKhSW6AklKhqaHoRANiHK7Zf0NnRGlZuW1etZFbUIRgTRJCYpMbpNA4nZRtzMxBeUX991Zl1a2txSWIiNchr9BS91at6+y8QhRZ78i+IssdZOcWIr+o2MaTV2BBVm4hKioqwfWqqqqS99j+sapKXpOHxD6WysoqKSMnvwi5pAILysrtz15eUWmT39xGi4Lsx2rgnzG5ePWwFgMPaOCjy5XPV1FZjdXnNXD5xBPPf3gIz63ci2eW7cDTi7bhzws2489zv8J/z1yHp6Z+iife+hg9F25EXFqmfOlpX+zDI8MX45fuf8VDQ+ZDuM2DGDAH4vWZEP2mQ7w2FeLVtyFenoyHXpqEX/SZiF/2noCHe4/Dw73G4Ve9xuJXPcfi1z3G2Ojh7mNAcux7pNtovDRlOcy38mqt6a4f/CA6DIPo+uY9aJSU9djLk+D65gIs/mIndOk3a8mpexGvN6HT6PfwcOcReH7wLPhHxtdlkddhmmQERMQjPE4PS/FdnL4UhrCYZCTozRIogZEJCIzUIkSTDE1SGm5m30ZKeqYca7HeQUxCKjKy83DmcjiCoxMREKFFoaUYN5KMSDBkwOdaJE5eDEVMggEBkVoQxAWFVgRFJzp9nqZ0tijIdIXl6O2hR5d9N+DyXSjGHI1GVTUQm1WIv6z9AU+sOoo/rdiHJ97fiT8s3IrH392M387+Co9OX4ffTfkEj05YjV+PXQUxeDEWbvXCtVgdxIB5EAPfheg/F6LfLIjX3oF4eRpEnykQvSdB9JwI0WM8RLexEF3HQHQZBdH5TYhOwyE6joDoOByiA2mYA9W9rrn3XH98ss2j1jpuP+EL8aJbjQxVlrN6GET7YRDt3CHaDMITr0zGwbPXaslyvJi+6p8Qzw9Q5D4/EG/MXGXTQCoftY6PfyQyc27LrjulpfAPvSHBxQ59eibCY3Uqu9RSaeYcaHVm2VdYVCyBRQ2r1Zlk34WAKNzMzkdknEFem7PyoNUr/Nl5RbgcEoerIXFSs9kEN7PRoiC7Wfwj+nsZ4Lo7Ds9tCcHsk/Ggck7LK4brujN4ZOVhPL5sL36/6Hv8x4Jv8Zs5m/CLGRsg3v4cYuIaiLEfQry5EsJtET495AuNIQPCfSFEv9kKwF59B+KlqRC9p0D0nATRfQJEV4JrdA2wRjqAYRhEpxqQEWgqEXAEQtshtcllMMQLA7H9xIVaS/q9py8E76njWXOsi5sDDVZkUrbKxzk6j8TpK+G15KkX7vPW2OW2HYLOYxai1MFcqXzUXldDbuB6pBY0rx7nriMwKkGavtjENKSas1VWWRszcpFoyJBtaqXQmGQYM3LgcT4QJ3yCEBWfgiJrCaLiFZClZeTgRrLRJuNa6A0EhDvXqjamRhotCjLOfcVsxRyfVCz11SMl/67tcU7HmTF+52UM/8YbwzadgvuXnhiyzgNunx/GoLX7MXD1Lgxc9T1eX74Vi7adxG2L4oPs8A7EKwvXo9f8z9Fr3qfoMWctus/6GN1mfITu7/wd3aetQvepf0P3t1egx5Tl6DHpA/SctAwdxi6E6FwHZARH11FoN3week5YYqMeE5ag94QlWLlpfz2/rB7IOo1AvxmrMPb99Ri9ZJ2kIe+uQfs3F0hQCVd3O9BchsBl2FzkW+z+k7ogw+avrQWyruMW1fKJVL6S0jKpofjxqXEIMBZqOZrGy8Fxchx9L5pBU1aeBBb9MlNmrmyzJpCotTi+0HIHEXEpUg5BGpeUpk4nAUoN+a+UFgcZH05xLZ0/ZkVlFSqqqiBrtp1Q3ZFc0IrKytpUUXPNui5VVmL3ST8I16GKZqN2aeeOPpM/QEB0AopLSmuNoZNLR9hZqQUyaqouI0FHv24hGC4ERuO5IbOVeVWN1nYIDnrXN5tNBVlMYiouBmmkL0VNdjFQg+sRWkRpUyTQElMzpInzD42XfQRXRJweBOXl4Fi5YaDDT4CxcFxuvgWpJkUD0vEnCNWScSsPmTn56uVPqv8tIPtJT3afB01btUkxZ/zYrkPx5BvT6jn1TZnSGcgCoxVt4mz8+cAoxUyrpvNFN8xZs6Uea1NBxoH8p1D/cauqq0FAk6ro8AJSk5WU2nfG/KcsvlsqQVhv4pqdZd3+f2U3WVfWAwOyAbM+tJsjl8EYOOejumvRpOvmgsxSXIJn3GbYtZnLYLjNXV1vrqaCTKs3wS9QIzUTNRLDGRevR8M/PF5qHGqdS0GxcjdI4HEnSsedvhfBxrAEtRrBSW1N/45EX41WhGAMikoANSFNKa8Npls2002T7BguqfciTjoaBVl1cAjKV65ClbePMryyElWHjqJ82QqUf/C3+rRsBSrWfobq9HTbdNVpafhxzScNj3Em5159nGPNJ6hOTbXN0Vhj1KLPHTSZO54dPEs6y42Nq3u/uSC7U1qG9iMXKBsBalGXwRgw6+82TaTKbyrIGHYguBjLIjjoL+nTMiVgCCIf/ygZN6Mm4tzcHdJ9UM0/zeI+r0sSkIwDEpwcxxCFLu2m5Ke5JOC4USgrK5emmYBloS9nysxRH7tJ9b1BVlCAu6+8gaInX4C1QzdUp6WjKjAIlmddYflLW1iedk5F//U8ymfOtT1A2fRZUkZD/D+p/8kXUDZ1pm2Oxhpf7PaCeHGQ3Qlv546Bsz9Ecpqy82psvHq/uSBj8PZP/aZCtB+qzO3ihikrN6ribHVTQca4FskvSCNBoU+/KWNedNYJJu4OLwREQ5eeKX1WzwtBCI5JlsFZTuZ7PRrxOiOuhcfLQPGpi6HSZzt/LRKmrFy5a7U9VE2DYROCMTrBAC/fEJs/V5evoet7g8xiQcng4RIgd3q+DGTcRFVkFKxtOysge6YdLM7oqTaoWLzUNmfZe4theaqNc15n45vS91QblC9YaJujsQYXkH6YDDeoTrjLYPzh5Ul4f8NumRloTAbvOwNZUExSg0O/OXzObiqlJnPD1mPn6/E3FWSBUYlIMJhx9kqE3BWmGDNBZ98xOk/fjBosMdUswXGnRPHX8ousOHruujSNR88GSG3IjUNS2k2pAcvLKyRACVa1UAP6h9+Q2tF6txThsXqYs+wbA5XvXvW9QcaRBgMqd+9FtSbWJqf6ehAqd+5G5a499WnnblQdOQYUFNj58/NRdeRow2OcyblXH+c4dBTV+c3b9Zzzj8Bve461+2b86AyYurjhoR5jMGD2hzh83t9pfEp9GWcgC4jSysApwwYk7nxvF1nx9YFTeKTXOGUOzuU6FP/Zb6oMNajy1LqpIIuMN9h2iPSj6C9RO0VpDcjMvo14nUmCyPd6DLgzPHctEpFxKbI/Mk4v+zgnxzE2FhmvhC64A6WZZPCWwIvWGiRAmbIisFRzmWgw42Z27SyI+g4N1Y2DrKGR/0/7ma7pwBgWo/aOMSzu/hhkdR0q0zsHzlx1+ob1QNZpBFxHzkfvt5ai18T3JXUbtwhP9p+maDBmFggw1i6DsfnQOadymwoy+kr0oVjoL1HrMDJPh59OOkMWdM654WCh9snJU3KRdXOxlKX6atR+1GQs1HyUxxAJi8qjtvmP1JzywIGMi5NvsWLdLk886zZTARaDsmqIgYDgtas7xi9dD5oYx1ILZOQlOcsYqD4Y7zM+5zoUH3y1xwYQR5lsNxVk/PAEFh1/tRAUBAJBRs1EkBEk0QmpYFyN2q3Qegd375ZKP46+FXOT9Ofo3KsgIgi5c2SQlz5ebGKqdPIpizlP+nI/JbTR8iCrLGE4Wl0PoKoUqLA2THZOoLqyYb57yWjoXmXtSPvtQgu2H7+APpOWKSCjJlPBxrrNIDB6z4+oFqcgI2/dXKgKQNeheHbQTHhdDFJFOK2bCrIwjQ55BVYcPHVVOuIURjBIM3c9RqaVGLXnDjQuyQg69tIMZuSAaSeezvAP18qwBk1hUFSiLSTB3SUT5Rm3bksfjQl2BmqvBtO/y5Cmlq5Ac0vLgizDE7j4BhAyFSi7DdzyAfwGAhf7ARdfr0++rwFhs4DyQsCqAwJGARdfq8/nbGxT+ig/fo0CXoeVotnwDYqR8Svpo9lM3HBpVjfuP2Xjdgay3/Qah9/1nYhH+0zE7/q+JVNVNrC2H4qnXp8md302IU4azQEZzR9jWPSdsvIKpYZh0pvxMG4KVHNqKS5FaM2mhPE0gozFYMqWGo1thkTUuBc3AGqek7zUciwEmd6YaTteJDub8acFQVYFXBkKHG+vkOkoEDRJaXt1Ahoi8mf7AYnrAY/2DfM1NP5e/Z4dgZNdgRJ7Athxrfhxvj3qXQOSGl+q7RB0n7DEtnurBTJqsC4jcdw3EPzIqRnZMgxw8My1Gj+sxpy+OAjjln7hOFW9dnNBRg1ksSppJWo3mkg+P80cNwLcbfLMGQOrLNRgKsgYW1PBpOYuyUNNxiNDLHT8bxcqrgLBHBGrzCFvNvNPC4IMQNIG4GQXRZsVG4CU7cDpbsCprs6JvJcGASUZQN51wLuPc76GxjfWT/nBU4FKe6Le2Xot+Gy7fQfafhj++NpkCR7yOgMZz245Fn7soTLh7eYAthG4GKxxZKvVbirIqHmyc4vkzo8Cbubk47sj56VJ5G6SwGLMi7tbnh9jXpNF8dGUkxYEk3qch6aWvhu1GTMFBCsLfTsVZFdCb8jMAv1B1X+TTE3807IgY1zbogXKHCLE1mSgIBIoiHJONKtqKTHfm7chGQ31F2oaBRin3smDiepxnvbD8Hjft5BiuiWfyhnInOUueXKWJzykr0b/zGWwPATpGM9SX5N1U0HGBHZpWYUtuMqxDEdwF5lizML1yARp2tiv7jzZplNP4LFQA6qmkP8QjOITvJSjlrxCq83J16dnIUyjl2ESR/9U5W2sbmGQNTb9/837k1d8ZQeZqzueGTTDdiS6qSDjm73tmJQn0Nq6gydrnZXGQFZeXo78/EJYrVbcLS6G1WJFQUEhCgqKYLFYUVio1EVFFlgsFtnPPl6Tj31sq8R77GdNmSV376K4Ri6vKV/ltVBmzVjyl5baj8M7e5e6fS0CMoe9ZK35fmSCtrLKgSpRVulAFZUoc4g21xrMi+pqGSgtq6iQPge1Ag/2qTXbzoj3G6OSsnKYbuVi+ca99U5NjF68zvYozQFZYloGft9noj0Y284dL7jPsWkUm9AmaDKrtRhpaekIi4yFx9nLiIlLgtlohtFogjHdJOv0mlpep5uQnm6U90wmM6I1WiTrUhETm4Ck5BSYjGaQn3RDm4Tj3lcQEnUDlwJCcdI3AGHRcYhP1CEiJh5paUakpqbbiNcEYFPLfQXZ1fzb6BsajJ4hQfDOsZtIRjC2JOnR9Yfz6HTsFLoe8ELXPSfQbccRdNtyEN03H0CPjXvRc/1OdPtsGybvOA6zQxyIL3My/Ab6rtyIjgs/Q6f3PkWH+WvR8d2P0WHOanSY/SE6zPg7OrzzP+gwfSU6Tl2BjlNWoOPkDyR1nrQMnScuRecJ76PzhCV2Gr8YXcYvAg8I8nz9H1+ZrMTIbGEMnqYdDr8Qe7ajOSDjcy/9co89MS/Nphs+2nKk3vdpTJMRZGaTGV7eV7Dj2Fns8PDG8bOX4XXBH77+oTh98TouBYThyGk/nPULgsfZKzh7MUDev3AtBJ9tOYy4RD08z17G5n0/wPtyMAJCoxEZm4jAoAh8d+gMgsJjsN/LF+Tf7nEO10OjcezMZdw0Z0igEVwq4IxG/qagaeGM+waywooKPOx/FeL0SYgzJyEu+yG3XDnTFJJ7G2LfEYjv9kBs2gnxxVaIT7+B+OhriL9tgFi2DmLRZxDz10DM+Qhi0jLM2OVp+xA384vw+DurIIbMguAhwEEzIPq/A/H6VIjX3oYgOPpOgug9AYJpnB5jIbqNUX7o0WWk/USsYzyLwVIZJHWHaFdz9JopJjW+xfsubljx9T7bc7Cx7cQFuymlvE4jwLRSQ4UO91P9p9uzC67ueHrQDFtEXh3X2PFrBWQZ8Djthx3HzsHT+4rUPpt2H8cX249izeb92LzXExt2emDTXk+c8L6CjbuO45t9Xvj+2Dns8/SBRqvDDz5Xcdz7KrYc+AFf7fRAhCYRgcER+P7oOfgHR8DrQgAMhjTsPO6NkAgNjpyuDzICjRqQJrwp5b6BLKusDMLPF+LsaYV8fWAsVdIS3plZELsPQmzfB7F5F8SGbRCfb4H4+J8Qq76CWLEB4v1/QLz3CcS7H0NMWY6hG+0fV5eVAzFhCcSwuRDD5ilAc5sFMYBAmwbRj0CbAvHSJAiaJ4Kt53gFbN3HQHQbrTjhXd5UjkR3Hllz3t/xhyU1ecyaH3483GMMVn93VOYiHRfSm4cQ27orAHUZgt/2HAeaxXuV9Xu8INoMVMzmi25oM3SuPHjoOGb26m8hnuuvbBSeHyBjdjzzpRaCjGbwwpVgaLTJ0CYk4buDp3DC+yr2eJzDjsNncO5SkKwJMP+QaBzw8pGa6PApP2ze6wVtkgHnLwXim/1eUlut234UKWlGhITGYOvB03LMPs/zEsQcs+3QafhcCwPNrarFVE2WkZFli8epz9hQfd9AxuVYn2qA8PWBuHAeq3TJ8mAcJy6u/BHj/IMgdh6E2LIX4uudEOu3QXz6LcRqAu1riBVfKkD761o8vfxLXEpQttscz1zZ8v2nIcYvhhi1AGLEfAVs7nMgBs9y0Gw1gHt1ivxJnHjpLQgGR/tMgOg9XtFyTJBLGgNBAHYfDdFtFH7RbRQe6zMR7UbMx7y1WxGVaJ/fcfHo2y38xw78ofcE+QukL/eddLzttM1zXW8t34DHeo3D0wOmw8svpB6f3pSJvpM/wGM9xqDTqL8iPF5fi0fxyWiuTEiTvpdZ+liqX8WaJoz+Vlq6EelGk9RIOkOa9KXojxGkBAnbmth4eF8OkSaYvps2SQ+dPhV6QxqS9anSx7uRoLP5eo7zZGbeknnTWg94j4v7BjJ1Dt3dO0gsrp2+4T06/XH5hYjMyUNkdi4ib+UiMisHUZnZiMrIRpQ5C1GmTEQabyLbyQ8tKCPRnI0wnRHhOiPCkklpCEsipUoKTUxFaKJBoQQDwhJSFNKmIKwOhWv18kPyY5Ii4vXyt5F1k8jqe9Wtmbrh7xebUxgE5Y9mGyoEMNM3PF5dtzDxzYQ4TZRKFRUVtva9+nivotzOq46rrKi0jVf7FDkKb+0++7wMezSn3HeQNWfyVt4HYwVaQfZgfOef9S1bQfazLv+DMXkryB6M7/yzvmUryH7W5X8wJv9fgE0VUJmlDzYAAAAASUVORK5CYII=;movable=1;resizable=1;rotatable=1;deletable=1;editable=1;connectable=1;" parent="1xMuABiLspTQqIyXcePy-72" vertex="1">
                    <mxGeometry x="13.5" y="20" width="153" height="40" as="geometry"/>
                </mxCell>
                <mxCell id="1xMuABiLspTQqIyXcePy-4" value="A" style="rounded=0;whiteSpace=wrap;html=1;movable=1;resizable=1;rotatable=1;deletable=1;editable=1;connectable=1;" parent="1xMuABiLspTQqIyXcePy-72" vertex="1">
                    <mxGeometry x="670" y="80" width="80" height="60" as="geometry"/>
                </mxCell>
                <mxCell id="1xMuABiLspTQqIyXcePy-7" value="Highlevel System Architecture" style="rounded=0;whiteSpace=wrap;html=1;movable=1;resizable=1;rotatable=1;deletable=1;editable=1;connectable=1;" parent="1xMuABiLspTQqIyXcePy-72" vertex="1">
                    <mxGeometry x="240" y="40" width="510" height="40" as="geometry"/>
                </mxCell>
                <mxCell id="1xMuABiLspTQqIyXcePy-8" value="&lt;b&gt;Drawing Number:&lt;/b&gt;" style="rounded=0;whiteSpace=wrap;html=1;movable=1;resizable=1;rotatable=1;deletable=1;editable=1;connectable=1;" parent="1xMuABiLspTQqIyXcePy-72" vertex="1">
                    <mxGeometry y="80" width="120" height="60" as="geometry"/>
                </mxCell>
                <mxCell id="1xMuABiLspTQqIyXcePy-9" value="HPVIZ-400-1" style="rounded=0;whiteSpace=wrap;html=1;movable=1;resizable=1;rotatable=1;deletable=1;editable=1;connectable=1;" parent="1xMuABiLspTQqIyXcePy-72" vertex="1">
                    <mxGeometry x="120" y="80" width="120" height="60" as="geometry"/>
                </mxCell>
                <mxCell id="1xMuABiLspTQqIyXcePy-10" value="&lt;b&gt;Current&lt;br&gt;Revision&lt;/b&gt;" style="rounded=0;whiteSpace=wrap;html=1;movable=1;resizable=1;rotatable=1;deletable=1;editable=1;connectable=1;" parent="1xMuABiLspTQqIyXcePy-72" vertex="1">
                    <mxGeometry x="590" y="80" width="80" height="60" as="geometry"/>
                </mxCell>
                <mxCell id="1xMuABiLspTQqIyXcePy-11" value="&lt;b&gt;Initial Drawn By:&lt;/b&gt;" style="rounded=0;whiteSpace=wrap;html=1;movable=1;resizable=1;rotatable=1;deletable=1;editable=1;connectable=1;" parent="1xMuABiLspTQqIyXcePy-72" vertex="1">
                    <mxGeometry x="240" y="80" width="120" height="60" as="geometry"/>
                </mxCell>
                <mxCell id="1xMuABiLspTQqIyXcePy-12" value="&lt;div style=&quot;text-align: justify&quot;&gt;Stephen Eaton&lt;/div&gt;" style="rounded=0;whiteSpace=wrap;html=1;movable=1;resizable=1;rotatable=1;deletable=1;editable=1;connectable=1;" parent="1xMuABiLspTQqIyXcePy-72" vertex="1">
                    <mxGeometry x="360" y="80" width="230" height="60" as="geometry"/>
                </mxCell>
                <mxCell id="1xMuABiLspTQqIyXcePy-16" value="&lt;b&gt;Title:&lt;/b&gt;" style="rounded=0;whiteSpace=wrap;html=1;movable=1;resizable=1;rotatable=1;deletable=1;editable=1;connectable=1;align=center;" parent="1xMuABiLspTQqIyXcePy-72" vertex="1">
                    <mxGeometry x="180" y="40" width="60" height="40" as="geometry"/>
                </mxCell>
                <mxCell id="1xMuABiLspTQqIyXcePy-34" value="&lt;b&gt;REV&lt;/b&gt;" style="rounded=0;whiteSpace=wrap;html=1;" parent="1xMuABiLspTQqIyXcePy-72" vertex="1">
                    <mxGeometry y="140" width="60" height="30" as="geometry"/>
                </mxCell>
                <mxCell id="1xMuABiLspTQqIyXcePy-52" value="&lt;b&gt;Date&lt;/b&gt;" style="rounded=0;whiteSpace=wrap;html=1;" parent="1xMuABiLspTQqIyXcePy-72" vertex="1">
                    <mxGeometry x="60" y="140" width="100" height="30" as="geometry"/>
                </mxCell>
                <mxCell id="1xMuABiLspTQqIyXcePy-53" value="&lt;b&gt;By&lt;/b&gt;" style="rounded=0;whiteSpace=wrap;html=1;" parent="1xMuABiLspTQqIyXcePy-72" vertex="1">
                    <mxGeometry x="160" y="140" width="100" height="30" as="geometry"/>
                </mxCell>
                <mxCell id="1xMuABiLspTQqIyXcePy-54" value="&lt;b&gt;Description&lt;/b&gt;" style="rounded=0;whiteSpace=wrap;html=1;" parent="1xMuABiLspTQqIyXcePy-72" vertex="1">
                    <mxGeometry x="260" y="140" width="490" height="30" as="geometry"/>
                </mxCell>
                <mxCell id="1xMuABiLspTQqIyXcePy-55" value="A" style="rounded=0;whiteSpace=wrap;html=1;" parent="1xMuABiLspTQqIyXcePy-72" vertex="1">
                    <mxGeometry y="170" width="60" height="30" as="geometry"/>
                </mxCell>
                <mxCell id="1xMuABiLspTQqIyXcePy-56" value="26/09/2020" style="rounded=0;whiteSpace=wrap;html=1;" parent="1xMuABiLspTQqIyXcePy-72" vertex="1">
                    <mxGeometry x="60" y="170" width="100" height="30" as="geometry"/>
                </mxCell>
                <mxCell id="1xMuABiLspTQqIyXcePy-57" value="Stephen E" style="rounded=0;whiteSpace=wrap;html=1;" parent="1xMuABiLspTQqIyXcePy-72" vertex="1">
                    <mxGeometry x="160" y="170" width="100" height="30" as="geometry"/>
                </mxCell>
                <mxCell id="1xMuABiLspTQqIyXcePy-58" value="Initial Drawing" style="rounded=0;whiteSpace=wrap;html=1;align=left;spacingLeft=10;" parent="1xMuABiLspTQqIyXcePy-72" vertex="1">
                    <mxGeometry x="260" y="170" width="490" height="30" as="geometry"/>
                </mxCell>
                <mxCell id="1xMuABiLspTQqIyXcePy-73" value="" style="group" parent="1" vertex="1" connectable="0">
                    <mxGeometry x="-770" y="-110" width="750" height="90" as="geometry"/>
                </mxCell>
                <mxCell id="1xMuABiLspTQqIyXcePy-60" value="" style="rounded=0;whiteSpace=wrap;html=1;" parent="1xMuABiLspTQqIyXcePy-73" vertex="1">
                    <mxGeometry width="60" height="30" as="geometry"/>
                </mxCell>
                <mxCell id="1xMuABiLspTQqIyXcePy-61" value="" style="rounded=0;whiteSpace=wrap;html=1;" parent="1xMuABiLspTQqIyXcePy-73" vertex="1">
                    <mxGeometry x="60" width="100" height="30" as="geometry"/>
                </mxCell>
                <mxCell id="1xMuABiLspTQqIyXcePy-62" value="" style="rounded=0;whiteSpace=wrap;html=1;" parent="1xMuABiLspTQqIyXcePy-73" vertex="1">
                    <mxGeometry x="160" width="100" height="30" as="geometry"/>
                </mxCell>
                <mxCell id="1xMuABiLspTQqIyXcePy-63" value="" style="rounded=0;whiteSpace=wrap;html=1;align=left;spacingLeft=10;" parent="1xMuABiLspTQqIyXcePy-73" vertex="1">
                    <mxGeometry x="260" width="490" height="30" as="geometry"/>
                </mxCell>
                <mxCell id="1xMuABiLspTQqIyXcePy-64" value="" style="rounded=0;whiteSpace=wrap;html=1;" parent="1xMuABiLspTQqIyXcePy-73" vertex="1">
                    <mxGeometry y="30" width="60" height="30" as="geometry"/>
                </mxCell>
                <mxCell id="1xMuABiLspTQqIyXcePy-65" value="" style="rounded=0;whiteSpace=wrap;html=1;" parent="1xMuABiLspTQqIyXcePy-73" vertex="1">
                    <mxGeometry x="60" y="30" width="100" height="30" as="geometry"/>
                </mxCell>
                <mxCell id="1xMuABiLspTQqIyXcePy-66" value="" style="rounded=0;whiteSpace=wrap;html=1;" parent="1xMuABiLspTQqIyXcePy-73" vertex="1">
                    <mxGeometry x="160" y="30" width="100" height="30" as="geometry"/>
                </mxCell>
                <mxCell id="1xMuABiLspTQqIyXcePy-67" value="" style="rounded=0;whiteSpace=wrap;html=1;spacingLeft=10;" parent="1xMuABiLspTQqIyXcePy-73" vertex="1">
                    <mxGeometry x="260" y="30" width="490" height="30" as="geometry"/>
                </mxCell>
                <mxCell id="1xMuABiLspTQqIyXcePy-68" value="" style="rounded=0;whiteSpace=wrap;html=1;" parent="1xMuABiLspTQqIyXcePy-73" vertex="1">
                    <mxGeometry y="60" width="60" height="30" as="geometry"/>
                </mxCell>
                <mxCell id="1xMuABiLspTQqIyXcePy-69" value="" style="rounded=0;whiteSpace=wrap;html=1;" parent="1xMuABiLspTQqIyXcePy-73" vertex="1">
                    <mxGeometry x="60" y="60" width="100" height="30" as="geometry"/>
                </mxCell>
                <mxCell id="1xMuABiLspTQqIyXcePy-70" value="" style="rounded=0;whiteSpace=wrap;html=1;" parent="1xMuABiLspTQqIyXcePy-73" vertex="1">
                    <mxGeometry x="160" y="60" width="100" height="30" as="geometry"/>
                </mxCell>
                <mxCell id="1xMuABiLspTQqIyXcePy-71" value="" style="rounded=0;whiteSpace=wrap;html=1;spacingLeft=10;" parent="1xMuABiLspTQqIyXcePy-73" vertex="1">
                    <mxGeometry x="260" y="60" width="490" height="30" as="geometry"/>
                </mxCell>
                <mxCell id="Wst6ycJ6fewl8fnE1nJM-77" value="Vector / NiFi" style="rounded=1;arcSize=10;strokeColor=#6c8ebf;dashed=1;glass=0;fillColor=none;labelPosition=right;verticalLabelPosition=middle;align=left;verticalAlign=middle;" parent="1" vertex="1">
                    <mxGeometry x="-690" y="-843" width="250" height="185" as="geometry"/>
                </mxCell>
                <mxCell id="Wst6ycJ6fewl8fnE1nJM-78" value="" style="rounded=1;arcSize=10;strokeColor=#6c8ebf;dashed=1;glass=0;fillColor=none;" parent="1" vertex="1">
                    <mxGeometry x="-1141.5" y="-1080" width="451.5" height="149.5" as="geometry"/>
                </mxCell>
                <mxCell id="Wst6ycJ6fewl8fnE1nJM-79" style="edgeStyle=none;rounded=0;orthogonalLoop=1;jettySize=auto;html=1;" parent="1" target="Wst6ycJ6fewl8fnE1nJM-106" edge="1">
                    <mxGeometry relative="1" as="geometry">
                        <mxPoint x="-817" y="-804" as="sourcePoint"/>
                        <Array as="points"/>
                    </mxGeometry>
                </mxCell>
                <mxCell id="Wst6ycJ6fewl8fnE1nJM-80" style="edgeStyle=orthogonalEdgeStyle;rounded=0;orthogonalLoop=1;jettySize=auto;html=1;entryX=0.5;entryY=0;entryDx=0;entryDy=0;startArrow=none;startFill=0;endArrow=classic;endFill=1;dashed=1;" parent="1" source="Wst6ycJ6fewl8fnE1nJM-82" target="Wst6ycJ6fewl8fnE1nJM-114" edge="1">
                    <mxGeometry relative="1" as="geometry">
                        <Array as="points">
                            <mxPoint x="-1235" y="-758"/>
                        </Array>
                    </mxGeometry>
                </mxCell>
                <mxCell id="Wst6ycJ6fewl8fnE1nJM-81" value="Monitoring Metrics" style="edgeLabel;html=1;align=center;verticalAlign=middle;resizable=0;points=[];" parent="Wst6ycJ6fewl8fnE1nJM-80" vertex="1" connectable="0">
                    <mxGeometry x="-0.3746" relative="1" as="geometry">
                        <mxPoint x="-38.71" y="130" as="offset"/>
                    </mxGeometry>
                </mxCell>
                <mxCell id="Wst6ycJ6fewl8fnE1nJM-82" value="Kafka Cluster" style="rounded=1;arcSize=10;strokeColor=#6c8ebf;fillColor=none;dashed=1;labelPosition=left;verticalLabelPosition=middle;align=right;verticalAlign=middle;" parent="1" vertex="1">
                    <mxGeometry x="-1019.5" y="-845" width="199.5" height="249.75" as="geometry"/>
                </mxCell>
                <mxCell id="Wst6ycJ6fewl8fnE1nJM-83" style="edgeStyle=none;rounded=0;orthogonalLoop=1;jettySize=auto;html=1;dashed=1;startArrow=openThin;startFill=0;endArrow=openThin;endFill=0;" parent="1" source="Wst6ycJ6fewl8fnE1nJM-85" target="Wst6ycJ6fewl8fnE1nJM-86" edge="1">
                    <mxGeometry relative="1" as="geometry"/>
                </mxCell>
                <mxCell id="Wst6ycJ6fewl8fnE1nJM-84" value="(n-topics)" style="edgeLabel;html=1;align=center;verticalAlign=middle;resizable=0;points=[];" parent="Wst6ycJ6fewl8fnE1nJM-83" vertex="1" connectable="0">
                    <mxGeometry x="0.1111" y="1" relative="1" as="geometry">
                        <mxPoint x="-4" y="-9" as="offset"/>
                    </mxGeometry>
                </mxCell>
                <mxCell id="Wst6ycJ6fewl8fnE1nJM-85" value="" style="html=1;outlineConnect=0;fillColor=#CCCCCC;strokeColor=#6881B3;gradientColor=none;gradientDirection=north;strokeWidth=2;shape=mxgraph.networks.bus;gradientColor=none;gradientDirection=north;fontColor=#ffffff;perimeter=backbonePerimeter;backboneSize=20;rotation=-90;" parent="1" vertex="1">
                    <mxGeometry x="-1070" y="-735" width="200" height="20" as="geometry"/>
                </mxCell>
                <mxCell id="Wst6ycJ6fewl8fnE1nJM-86" value="" style="html=1;outlineConnect=0;fillColor=#CCCCCC;strokeColor=#6881B3;gradientColor=none;gradientDirection=north;strokeWidth=2;shape=mxgraph.networks.bus;gradientColor=none;gradientDirection=north;fontColor=#ffffff;perimeter=backbonePerimeter;backboneSize=20;rotation=-90;" parent="1" vertex="1">
                    <mxGeometry x="-970" y="-735" width="200" height="20" as="geometry"/>
                </mxCell>
                <mxCell id="Wst6ycJ6fewl8fnE1nJM-87" style="rounded=0;orthogonalLoop=1;jettySize=auto;html=1;entryX=0.25;entryY=0;entryDx=0;entryDy=0;" parent="1" source="Wst6ycJ6fewl8fnE1nJM-92" target="Wst6ycJ6fewl8fnE1nJM-82" edge="1">
                    <mxGeometry relative="1" as="geometry"/>
                </mxCell>
                <mxCell id="Wst6ycJ6fewl8fnE1nJM-88" value="SysLog Producer" style="edgeLabel;html=1;align=center;verticalAlign=middle;resizable=0;points=[];" parent="Wst6ycJ6fewl8fnE1nJM-87" vertex="1" connectable="0">
                    <mxGeometry x="-0.1965" y="-4" relative="1" as="geometry">
                        <mxPoint x="-66.23" y="-34.48" as="offset"/>
                    </mxGeometry>
                </mxCell>
                <mxCell id="Wst6ycJ6fewl8fnE1nJM-89" value="SysLog Producer" style="edgeLabel;html=1;align=center;verticalAlign=middle;resizable=0;points=[];" parent="Wst6ycJ6fewl8fnE1nJM-87" vertex="1" connectable="0">
                    <mxGeometry x="-0.1965" y="-4" relative="1" as="geometry">
                        <mxPoint x="243.76999999999998" y="-34.480000000000004" as="offset"/>
                    </mxGeometry>
                </mxCell>
                <mxCell id="Wst6ycJ6fewl8fnE1nJM-90" style="edgeStyle=none;rounded=0;orthogonalLoop=1;jettySize=auto;html=1;startArrow=openThin;startFill=0;endArrow=openThin;endFill=0;dashed=1;" parent="1" source="Wst6ycJ6fewl8fnE1nJM-92" target="Wst6ycJ6fewl8fnE1nJM-97" edge="1">
                    <mxGeometry relative="1" as="geometry"/>
                </mxCell>
                <mxCell id="Wst6ycJ6fewl8fnE1nJM-91" value="MHN VPS Cloud" style="edgeLabel;html=1;align=center;verticalAlign=middle;resizable=0;points=[];" parent="Wst6ycJ6fewl8fnE1nJM-90" vertex="1" connectable="0">
                    <mxGeometry x="-0.0789" y="-2" relative="1" as="geometry">
                        <mxPoint y="-18" as="offset"/>
                    </mxGeometry>
                </mxCell>
                <mxCell id="Wst6ycJ6fewl8fnE1nJM-92" value="" style="pointerEvents=1;shadow=0;dashed=0;html=1;strokeColor=none;fillColor=#505050;labelPosition=center;verticalLabelPosition=bottom;verticalAlign=top;outlineConnect=0;align=center;shape=mxgraph.office.concepts.connector;rotation=-90;" parent="1" vertex="1">
                    <mxGeometry x="-1070" y="-1020" width="44" height="32" as="geometry"/>
                </mxCell>
                <mxCell id="Wst6ycJ6fewl8fnE1nJM-93" style="edgeStyle=none;rounded=0;orthogonalLoop=1;jettySize=auto;html=1;startArrow=none;startFill=0;endArrow=classic;endFill=1;" parent="1" source="Wst6ycJ6fewl8fnE1nJM-95" target="Wst6ycJ6fewl8fnE1nJM-99" edge="1">
                    <mxGeometry relative="1" as="geometry">
                        <mxPoint x="-873" y="-458" as="targetPoint"/>
                    </mxGeometry>
                </mxCell>
                <mxCell id="Wst6ycJ6fewl8fnE1nJM-94" style="edgeStyle=none;rounded=0;orthogonalLoop=1;jettySize=auto;html=1;entryX=0;entryY=0.75;entryDx=0;entryDy=0;startArrow=classic;startFill=1;endArrow=classic;endFill=1;" parent="1" source="Wst6ycJ6fewl8fnE1nJM-95" target="Wst6ycJ6fewl8fnE1nJM-82" edge="1">
                    <mxGeometry relative="1" as="geometry">
                        <Array as="points">
                            <mxPoint x="-1091" y="-658"/>
                        </Array>
                    </mxGeometry>
                </mxCell>
                <mxCell id="Wst6ycJ6fewl8fnE1nJM-95" value="" style="pointerEvents=1;shadow=0;dashed=0;html=1;strokeColor=none;fillColor=#505050;labelPosition=center;verticalLabelPosition=bottom;verticalAlign=top;outlineConnect=0;align=center;shape=mxgraph.office.concepts.connector;rotation=-90;" parent="1" vertex="1">
                    <mxGeometry x="-1113" y="-608" width="44" height="32" as="geometry"/>
                </mxCell>
                <mxCell id="Wst6ycJ6fewl8fnE1nJM-96" style="rounded=0;orthogonalLoop=1;jettySize=auto;html=1;entryX=0.684;entryY=0;entryDx=0;entryDy=0;entryPerimeter=0;startArrow=none;startFill=0;endArrow=classic;endFill=1;" parent="1" source="Wst6ycJ6fewl8fnE1nJM-97" target="Wst6ycJ6fewl8fnE1nJM-82" edge="1">
                    <mxGeometry relative="1" as="geometry"/>
                </mxCell>
                <mxCell id="Wst6ycJ6fewl8fnE1nJM-97" value="" style="pointerEvents=1;shadow=0;dashed=0;html=1;strokeColor=none;fillColor=#505050;labelPosition=center;verticalLabelPosition=bottom;verticalAlign=top;outlineConnect=0;align=center;shape=mxgraph.office.concepts.connector;rotation=-90;" parent="1" vertex="1">
                    <mxGeometry x="-810" y="-1020" width="44" height="32" as="geometry"/>
                </mxCell>
                <mxCell id="Wst6ycJ6fewl8fnE1nJM-98" style="edgeStyle=none;rounded=0;orthogonalLoop=1;jettySize=auto;html=1;startArrow=none;startFill=0;endArrow=classic;endFill=1;" parent="1" source="Wst6ycJ6fewl8fnE1nJM-99" target="Wst6ycJ6fewl8fnE1nJM-100" edge="1">
                    <mxGeometry relative="1" as="geometry"/>
                </mxCell>
                <mxCell id="Wst6ycJ6fewl8fnE1nJM-99" value="Elastic Cluster" style="outlineConnect=0;fontColor=#232F3E;gradientColor=none;fillColor=#5A30B5;strokeColor=none;dashed=0;verticalLabelPosition=bottom;verticalAlign=top;align=center;html=1;fontSize=12;fontStyle=0;aspect=fixed;pointerEvents=1;shape=mxgraph.aws4.data_lake_resource_icon;" parent="1" vertex="1">
                    <mxGeometry x="-1130" y="-538" width="78" height="78" as="geometry"/>
                </mxCell>
                <mxCell id="Wst6ycJ6fewl8fnE1nJM-100" value="Dashboards" style="pointerEvents=1;shadow=0;dashed=0;html=1;strokeColor=none;fillColor=#434445;aspect=fixed;labelPosition=center;verticalLabelPosition=bottom;verticalAlign=top;align=center;outlineConnect=0;shape=mxgraph.vvd.nsx_dashboard;" parent="1" vertex="1">
                    <mxGeometry x="-944.75" y="-398" width="50" height="46.5" as="geometry"/>
                </mxCell>
                <mxCell id="Wst6ycJ6fewl8fnE1nJM-101" value="Tagging" style="shape=mxgraph.bpmn.service_task;html=1;outlineConnect=0;fillColor=#dae8fc;strokeColor=#6c8ebf;labelPosition=right;verticalLabelPosition=middle;align=left;verticalAlign=middle;" parent="1" vertex="1">
                    <mxGeometry x="-660" y="-818" width="50" height="60" as="geometry"/>
                </mxCell>
                <mxCell id="Wst6ycJ6fewl8fnE1nJM-102" value="Processing" style="shape=mxgraph.bpmn.service_task;html=1;outlineConnect=0;fillColor=#dae8fc;strokeColor=#6c8ebf;labelPosition=right;verticalLabelPosition=middle;align=left;verticalAlign=middle;" parent="1" vertex="1">
                    <mxGeometry x="-594" y="-748.1299999999999" width="50" height="60" as="geometry"/>
                </mxCell>
                <mxCell id="Wst6ycJ6fewl8fnE1nJM-103" style="edgeStyle=none;rounded=0;orthogonalLoop=1;jettySize=auto;html=1;startArrow=none;startFill=0;endArrow=classic;endFill=1;" parent="1" source="Wst6ycJ6fewl8fnE1nJM-104" target="Wst6ycJ6fewl8fnE1nJM-100" edge="1">
                    <mxGeometry relative="1" as="geometry"/>
                </mxCell>
                <mxCell id="Wst6ycJ6fewl8fnE1nJM-104" value="Neo4J" style="outlineConnect=0;fontColor=#232F3E;gradientColor=none;fillColor=#5A30B5;strokeColor=none;dashed=0;verticalLabelPosition=bottom;verticalAlign=top;align=center;html=1;fontSize=12;fontStyle=0;aspect=fixed;pointerEvents=1;shape=mxgraph.aws4.data_lake_resource_icon;" parent="1" vertex="1">
                    <mxGeometry x="-790" y="-536" width="78" height="78" as="geometry"/>
                </mxCell>
                <mxCell id="Wst6ycJ6fewl8fnE1nJM-105" style="edgeStyle=none;rounded=0;orthogonalLoop=1;jettySize=auto;html=1;entryX=-0.004;entryY=0.216;entryDx=0;entryDy=0;entryPerimeter=0;" parent="1" source="Wst6ycJ6fewl8fnE1nJM-106" target="Wst6ycJ6fewl8fnE1nJM-77" edge="1">
                    <mxGeometry relative="1" as="geometry"/>
                </mxCell>
                <mxCell id="Wst6ycJ6fewl8fnE1nJM-106" value="" style="pointerEvents=1;shadow=0;dashed=0;html=1;strokeColor=none;fillColor=#505050;labelPosition=center;verticalLabelPosition=bottom;verticalAlign=top;outlineConnect=0;align=center;shape=mxgraph.office.concepts.connector;rotation=-180;" parent="1" vertex="1">
                    <mxGeometry x="-773" y="-818" width="44" height="32" as="geometry"/>
                </mxCell>
                <mxCell id="Wst6ycJ6fewl8fnE1nJM-107" style="edgeStyle=none;rounded=0;orthogonalLoop=1;jettySize=auto;html=1;entryX=0.004;entryY=0.67;entryDx=0;entryDy=0;startArrow=classic;startFill=1;endArrow=none;endFill=0;entryPerimeter=0;" parent="1" source="Wst6ycJ6fewl8fnE1nJM-109" target="Wst6ycJ6fewl8fnE1nJM-77" edge="1">
                    <mxGeometry relative="1" as="geometry"/>
                </mxCell>
                <mxCell id="Wst6ycJ6fewl8fnE1nJM-108" style="edgeStyle=none;rounded=0;orthogonalLoop=1;jettySize=auto;html=1;entryX=1;entryY=0.5;entryDx=0;entryDy=0;" parent="1" source="Wst6ycJ6fewl8fnE1nJM-109" target="Wst6ycJ6fewl8fnE1nJM-82" edge="1">
                    <mxGeometry relative="1" as="geometry"/>
                </mxCell>
                <mxCell id="Wst6ycJ6fewl8fnE1nJM-109" value="" style="pointerEvents=1;shadow=0;dashed=0;html=1;strokeColor=none;fillColor=#505050;labelPosition=center;verticalLabelPosition=bottom;verticalAlign=top;outlineConnect=0;align=center;shape=mxgraph.office.concepts.connector;rotation=0;" parent="1" vertex="1">
                    <mxGeometry x="-780" y="-736.1200000000001" width="44" height="32" as="geometry"/>
                </mxCell>
                <mxCell id="Wst6ycJ6fewl8fnE1nJM-110" style="edgeStyle=none;rounded=0;orthogonalLoop=1;jettySize=auto;html=1;entryX=1;entryY=0.75;entryDx=0;entryDy=0;endArrow=none;endFill=0;startArrow=classic;startFill=1;" parent="1" source="Wst6ycJ6fewl8fnE1nJM-112" target="Wst6ycJ6fewl8fnE1nJM-82" edge="1">
                    <mxGeometry relative="1" as="geometry">
                        <Array as="points">
                            <mxPoint x="-750" y="-658"/>
                        </Array>
                    </mxGeometry>
                </mxCell>
                <mxCell id="Wst6ycJ6fewl8fnE1nJM-111" style="edgeStyle=none;rounded=0;orthogonalLoop=1;jettySize=auto;html=1;startArrow=none;startFill=0;endArrow=classic;endFill=1;" parent="1" source="Wst6ycJ6fewl8fnE1nJM-112" target="Wst6ycJ6fewl8fnE1nJM-104" edge="1">
                    <mxGeometry relative="1" as="geometry"/>
                </mxCell>
                <mxCell id="Wst6ycJ6fewl8fnE1nJM-112" value="" style="pointerEvents=1;shadow=0;dashed=0;html=1;strokeColor=none;fillColor=#505050;labelPosition=center;verticalLabelPosition=bottom;verticalAlign=top;outlineConnect=0;align=center;shape=mxgraph.office.concepts.connector;rotation=-90;" parent="1" vertex="1">
                    <mxGeometry x="-773" y="-608" width="44" height="32" as="geometry"/>
                </mxCell>
                <mxCell id="Wst6ycJ6fewl8fnE1nJM-113" style="edgeStyle=orthogonalEdgeStyle;rounded=0;orthogonalLoop=1;jettySize=auto;html=1;startArrow=none;startFill=0;endArrow=classic;endFill=1;" parent="1" source="Wst6ycJ6fewl8fnE1nJM-114" target="Wst6ycJ6fewl8fnE1nJM-100" edge="1">
                    <mxGeometry relative="1" as="geometry"/>
                </mxCell>
                <mxCell id="Wst6ycJ6fewl8fnE1nJM-114" value="Prometheus Service &#10;Monitoring and Alerting" style="shape=image;aspect=fixed;image=data:image/png,iVBORw0KGgoAAAANSUhEUgAABLAAAASmCAYAAAA+rlJJAAAABGdBTUEAALGPC/xhBQAAACBjSFJNAAB6JgAAgIQAAPoAAACA6AAAdTAAAOpgAAA6mAAAF3CculE8AAAABmJLR0QA/wD/AP+gvaeTAACAAElEQVR42uzde5ycZX3///fnntlsTgRCSLK7SZBAEMjsbsB4omqNh9ofRSC7y1RtpdLWUg9V2tpW29oaj9X6tZ7aqnhCUBGGHAggVVHiAVAxEHazHCMBkuxsEnLglOxmZ+7P748E5JDD7s49M/d9z+v5eODjISQz9/2+7r3v6/rsdV23BAAAAAAAAAAAAAAAAAAAAAAAAAAAAAAAAAAAAAAAAAAAAAAAAAAAAAAAAAAAkCqez2e2n3vKUSQBAABQW0YEAAAgCTYuPf2YidIxZY0ck8naMQo1RW6TZZripgkmP9pdWTM/2j1olsLJkk2RaYJCHe1mWTM/WtIEuaY85+OPkin7rH/jmihp0hgOcbdM/pzP2CNp+Fn/xrTbXSMmPWHSXjcNWajH3bxkpl0eWsllj1vgQ5LtlesJc42EgXZ5qCcD+e4mK+8eyhyze17h1r1cGQAAoBFQwAIAADWz8cITJk7YNXVmYN5qZrNcfqzLjrHAjnGFx5jbMS4dI+kYyY6R/BiZjpFrOukd1LCk3XLtltluyXebtNul3Wa+OwyDXWba7fLdGfftHvhWC7PbZ6/s3W56TrENAAAgxihgAQCAimzKnznJh3dOzwYTWj0TtgWhpocKWi3wtgOFp1a52mSaLqmF/kdseoG7FKoo0y6ZBiQV3bXLzAZcYdFC7coEwcCsGRM22SVrRwgMAADUt+sCAABwCPeftaB52uRJc8ph2GYKWkPpRAu8TVKrpBPlOkn7Z0wh3T3GXZIecKlo7gPuwQOBwmIYBANZ6YFZO2Y8bGvWlAgKAABUrzsCAAAa1mBX56xyJlxgrhMlm+vS3MD9eDfNk2uupONICaMwIqko6WHJHzYFm0P5Zskfynjmgb1HP7Zh/qUPDhETAAAYLwpYAACk3ENnd0xvatKJZjoxlE4085xMC+VaIOloEkKNep27JD0g6QGTP6BQd7kH/RObJmw4trD2UQICAACH70oAAIDE25RfNCcIw9PMdZKbLzDXAplOOlCkmkRCiLmtkjbIbYMs3OCm35rs/mBycHfL5b1PEg8AAKCABQBAgjx0dsf0pglhTkGwUPKcXAsldUqaRTpIqaKkfpnukqxfYXhXU7l058zV9z5ONAAANA4KWAAAxNDD557SlmmasNCkE59RqFokaSbpAJKeU9hy6YEgyN7ZWrhjO9EAAJA+FLAAAKijjReeMHHiY1M63IIzJD9DbmdIvlDSUaQDjMvDkvoku0PudwTZ4I6WQu9GYgEAINkoYAEAUCPbzz3lqJFMdpECWyz3hZLlJL1YUjPpAFXkekymPpnWWuhr3YP+XU1hX67Qv49wAABIBgpYAABUwe/2qrLFcu3/x3SqpIB0gFgYket+mdbKtFahr1Vp4u1t167dQzQAAMQPBSwAACrkFy1uKm7b16mMv/IZxaqFJAMkTkmu+/YXtewXpvLNLcvvusskJxoAAOqLAhYAAGP08LmntDVlJrzCgwMFK5YBAul1YPmhmf8ilG72sHzL3JX37CAYAABqiwIWAACH8dS+Va7gFQr8leZ6mXgTINDoHpB081NLD3dl9Wv20wIAoLooYAEA8AwPn3tKW6Yp+2pze5Vcr5bpNJ6XAI7gSUm3mtnP3bVmeNrjv55/6YNDxAIAQHTokAMAGtrTywEtfL3cXknBCkAESjLdafIbQ+nmScHEnx1bWPsosQAAMH500AEADWVrT8eJYRi+0k2vkOwPJM0nFQBVVpZpnaSbLbRflLLhj+cV+ncSCwAAo0cBCwCQapt6Tjs5q8zr5Xq1S78vqZVUANRZWdKdkv3MFd40oVS6aebqex8nFgAADo0CFgAgVbblc1NHQr3GXG9khhWAhCjLtG7/ksPgxt1B+DM2hQcA4NkoYAEAEs2XLMkWj9mxyE2vN/PXS3q1pCaSAZBgT0q61d1uNNeNbav61hIJAKDRUcACACTO1p6OE8vS6yV/vUL9oUzTSAVAihUl3Whu17J/FgCgUVHAAgDE3s784qOHS/ve4NLZZvoDl7eRCoAGVZa0VvIfWKjrWk7v/40tU0gsAIC0o4AFAIilwXzn/DD0P3D5OeZ6g6QJpAIAz/OITDdZ6Nc1Zydec2xh7aNEAgBIIwpYAIBY8Hw+Uxy553QP/BwzvVGuxaQCAGNSkvQrd7vWAl3TtrzvHiIBAKQFBSwAQN1syueOzZaC17n5OdpftJpOKgAQmQdkus5l17bNmPBTu2TtCJEAAJKKAhYAoKa2Lm0/qRR4j7neKLPfk5QhFQCouh1y3WCy1TbVvt9yee+TRAIASBIKWACAqtv/1kA/R668pN/j+QMAdTXkphuD0AvsmwUASAoGEACAqij2LMyFHuTNlZdpIYkAQCyVJf1SpkJmRN+bvXr9ViIBAMQRBSwAQGSeLlrJ3yLZC0kEABLl6WJWaWSkcPzqeweIBAAQFxSwAADj5ssUFO/M/Z4Cy8vVLWkuqQBAKoQy3eGu68KMf3teoX8DkQAA6okCFgBgzIo9C3OSXeBufyaplUQAIPWjhrWSLs8GfuWsQv8ggQAAav8oAgBgFIpLTz8htPKbzMK/YHkgADSsA8sM7bLmPXu/N+OGDY8RCQCgFihgAQAOaVN+0ZxMWD7/wNsDX0EiAIBnOPA2Q7tsZza8Jlfo30ckAIBqoYAFAHiWjUtPP2aijZwbBpY31/8nKUsqAIAj2C3pWjcvtO2YeYOtWVMiEgBAlChgAQC08cITJk58fOq5Lv8Tuf1/kppJBQAwTpvd9D0v+3fmrupfRxwAgChQwAKABvaMzdj/UtJxJAIAiJTrLpddlpF9s2Vl7zYCAQCMFwUsAGgwD53dMb1povKSv1Ou00kEAFAD+9z0wyC0y1pmTlhll6wdIRIAwFhQwAKABuD5fGYgvOc1Jr9IrqWSmkgFAFAnRZkKZenr85av7yUOAMBoUMACgBQb6Ok41RRe6G5vk9RCIgCAmI1G1kq6vBz45fMK/TsJBABw6EcGACBVduYXHz1cGjrPzS6Q9Dru9QCABBiS6VqXXdK2vO/HJjmRAACeiUENAKTEwNKOxQrCiyT7U0lTSAQAkNAByobQ7WtWGv5627X3PUIiAIADzwcAQFJtvPCEiRMfPeocN79Y0itIBACQIsMyrXbZJXOW991IHADQ2ChgAUACbe5a9MJMUPoLd3u7pBkkAgBIubvd7VulfbrkBdf37SIOAGg8FLAAICH687kJx5aC89z8IrG3FQCgMT0u+RVhqC/NXdW/jjgAoHEw+AGAmNuUXzQnKIVvNfO/kTSXRAAA0IE3GNol2jfh223Xrt1DIACQ9ts+ACB2XLLi+e1/oFDvlXSWpIBUAAA4qEdM9g3PhP/TVuh/mDgAIJ0oYAFAjNx/1oLmqROb3+Rm/yipnUQAABi10E3fl+zzbPoOAOlDAQsAYmBbPtcyUrZ3mPRuSceRCAAAFbldZl8ZPurxy+Zf+uAQcQBA8lHAAoA6GljasViBXyzpzZKaSAQAgEgNuvQVG9n3323X3vcIcQBAclHAAoAa82UKBvpyZ5vbeyW9nkQAAKi6YUlXBWX7dMs1fX3EAQDJQwELAGpkZ37x0UPh8IVy/b2k40kEAIC6uNncPt+SPXWFFQpl4gCAZKCABQBVNpjvnF8O/X3m/ueSJpMIAAAx4LrXTZ/es3fo2yffsGGYQAAg3ihgAUCVDJ7X0RFm/B8lvUVSlkQAAIilrS59eV+Y/dz8Vet2EwcAxBMFLACI2EBX7pUe2PvNdTb3WQAAEuNxmb5ZGhn51PGr7x0gDgCIFwZWABABl2ygJ/dGc/uApN8jEQAAEmtY0lWeCT4+p9B7L3EAQDxQwAKACvhFi5sGtw+9xWXvl2khiQAAkBqhm74fuH+kdUX/bcQBAPVFAQsAxmHwgs4p4Z7w7XK9T9I8EgEAINVudvNPzVnefy1RAEB9UMACgDHYuPT0YyYGpYtdeq+kY0kEAICGGj79yuQfbV2x/nqyAIAa34GJAACObPu5pxy1LzPhXRb4++WaTiIAADT0IKpXbh9rWdl3tUlOIgBQk3svAOBQni5cmX9A0jEkAgAAnjGYopAFALW75wIAnmtTPndsULb3mnSxKFwBAIDDj6r6LLSPUsgCgGreagEAT9vcdeoMs+x7KFwBAIBxWG/un25Z1P9tW6aQOAAgOhSwAEDPKlz9raSjSQQAAFRgfyEru/A7ViiUiQMAKkcBC0BDGzjnhcdZU/M/uvxdkqaSCAAAiHC01WfuH2lZ0b+cpYUAUOktFQAa0OAFnVPKT/jfsDk7AACogfXm9pHWlX0FogCA8aGABaCh9OdzE6aHwYVy/7CkFhIBAAA1dItk/9y2ou9nRAEAY0MBC0BD8GUKBu/s6HHzT0o6kUQAAEAd3RiG/o9zV/WvIwoAGB0KWABSzSUrdrV3yfQxSaeRCICIbZdpi1ynSJpEHADGIJT0nSATfKil0LuROADg8ChgAUitLT0drzf3T0h6CWkAqJjrLplulfyXZbNfl4564r75lz44NNCVe6XMfka/CsA47XOzrzYF4cdmFfoHiQMADo6OFoDUKS7NvVSmT7jZ60gDQAVc0q3mWlnK+qp5hf4Nz/sDyxQUe9t/JenFxAWgQk9K+vxwmP30/FXrdhMHADwbBSwAqbGp57STM8p8Uq4u7m8AKvCoTN+S7Etty/vuOdwfLPbk3uZulxIZgAjtNNd/PDE09MWTb9gwTBwAsB8DPACJt7nr1BmBsv8m07skNZEIgHEqyvXJYGrw9ZbLe5880h8evKBzSvhkeK+kOUQHoAo2mukDLcvXF2z/jFAAaGgUsAAkVn8+N2F6GPyN5B+UazqJABinbTL7VDmY+qV5hVv3jvYvbeluX2bSh4gPQJUHbLeagr9vWdH7S9IA0OD3QwBIni09uXPM7bOSTiINAOMUSv61iZmJ/3RsYe2jY/mLO/OLjx4qDz8o6RhiBFALbrouK7t49vK+B0gDQCOigAUgUQZ7Fr4s9OAzkl5BGgAqcEvo/q65K/vvHM9fLnZ3/JvLP0KMAGps2F1f2OfZT7DRO4BGQwELQCJsOa99nmX0cUlv5d4FoAIjLn2iLXPaR61QKI/nAw7sffWgpOOIE0Cd7HS3/9ydDT+bK/TvIw4AjYBBIIBY25bPTR0p2z+Y9H5JE0kEwLi57vIgfOuc5XfdUcnHbOnqeL+Zf5JAAcTgxnafefDB1pV9BbIAkHYUsADEszu2TEGxt+OvJP+opJkkAqBCXx+e9sTfzL/0waFKPmTjhSdMbH5s6oOSZhMpgNj0m2Q/ybhd3LKydz1pAEgrClgAYmegp/3F7vqiSS8nDQAVKrnbB+es7PtURPent8p1ObECiOP9TvJvhF7+l7kr79lBHADShgIWgNjYls+1lMr2KUkXcH8CEIGtHqh7ztXrb4nqAwe6238hXiIBIOZdKjf9c1vH+kttmULiAJAWDBAB1J0vWZItznjk3XJ9WNLRJAIgAr8tW/msecvvvj+qDyzmcwu9bP1ECyAhI721YWjvmbuy71bCAJAGAREAqKdid+41xWMfuUOuz4niFYBoRm2/skzTmVEWryQpLNu7yRZAYrgWB+Y3D3S3XzbY1TmLQAAkvodHBADqYSCfO17l4DOSn08aACIbr5muC4Oj/nhe4da9UX7uxgtPmNj86NStMk0jZQAJHPXtcteH2nYe9yVbs6ZEIACSeSsDgBrqz+cmTA/tnXJ9TNJUEgEQoeuf3DvUc/ING4aj/uCBno6lcl9JxAAS7h4Furjt6vU/JAoAScMSQgA1M9jV/sbpZbv7wHJBilcAorRyV8a7q1G8kiSF3kPEAFLgVIX6v2J3+xUPn3tKG3EASBJmYAGouk35RXMyYfkLcnWTBoAqWNl6XPOb7JK1I9X48PvPWtA8ZdLErWKfPgDp8qi5/2vLov4v8bZCAEnADCwAVePLFAz0dFyUKZXvongFoEpuGp72xJ9Uq3glSUdNnPgHongFIH2OdrP/Lva23zbQ0/5i4gAQd8zAAlAVW3oWnmEefEXSS0gDQJX8pqk08tqZq+99vJpfMtDTcYnc/4q4AaRYyU2fy0wOlrVc3vskcQCIIwpYACK1LZ+bWgr1Ebm9R1KWRABUhetelfa9su3a+x6p9lcVu9vvd2kBoQNoAA8Frr9pWbn+OqIAEDcUsABEZrCr/Y2h6b8lvYA0AFTRzrKVXz5v+d33V/uLtpzXPs8yepjIATQSN12nkt4155r1m0gDQFywBxaAim3vPq11oLv9stB0rSheAaiuEZOfX4vilSQFgb+GyAE0GnO90TK6e0tXx/s9n8+QCIA4oIAFYNye2qR9xDP3SLqARABUf1Rlf9O6ov+mWn1daKKABaBRTTHzTxbL99xW7M6xpymA+ncDiQDAeAx2dbaHFn5DbNIOoGa9Fv9s2/L+v6/lVw50td8j0ymED6DBlcz8M0NHPbls/qUPDhEHgLp0BYkAwFj4kiXZgek73mfmH5bUTCIAatRhuXVnxpfkCv37avWdgxd0TgmfDB8TM9YB4Cm/Nbe/bF3Z91OiAFCH/iAAjHIwd15HR5jxb0h6MWkAqKGtpdLIi45ffe9ATe95PQtfFnrwS+IHgGdxyb+azeh9swr9TxAHgFrhN4oAjqg/n5sw0J37SJjxtaJ4BaC2SgqCfK2LV5JU9qCd+AHgeUyyi8plu2Ogu+P3iQNArVDAAnBYm7tyi6aXg19K9m+SmkgEQG35h9uu7v15nTpJi8gfAA5xd5YWSL5moDv3le3nnnIUiQCoQd8MAJ5v44UnTCz25D4ZmP1G8jNIBEDtR0f+89bMwv+o3+DMTqYRAOCwTLKLRrLZ3i09Ha8nDgBVvuEAwLMNdne+PFT4DUmnkQaAOnnUwuzpravWPVivAxjo7lgveY6mAIBRjy4L5cDfMa/Qv5MwAESNGVgAfjdYO2fx5IGe3H+FCn8hilcA6sjN31nP4tWBo5hDSwDAWG6bymfKdmexp+OPCANA1JiBBUCSVOzOvcTdLpfpFNIAUN/eiV/Ttrx/aT0PYfu5pxw1km16jMYAgHG7vKk08u6Zq+99nCgARIEZWECD8yVLslu6Ot7vspspXgGIgR2ZEfvreh/ESKZpLk0BABW5YCSb7eVNhQCiQgELaGBbezpOLB77yBoz/6R4wyCAGHDz98xevX5rDI5kBq0BAJWyEyS/aaCn/fP3n7WgmTwAVIICFtCIA0TJtnS3v6fsvl7SK0gEQCyGObLVc5b3XxGLg8nYZFoEACIac7reO2XyxF8OdnW2EweA8d9MADSUbflcS7G7/VqTviBpEokAiIk9CjMXx+ZoyppKkwBAhFynhxbetqWr4/2+jHEogLHjxgE0kGJXR75UtvWSziYNAHFipmX1f+vgMw9IU2gVAIjcRDP/ZLG3/edbl7afRBwAxoICFtAAduYXHz3Q3X6Zm18liX1dAMSM9bfMaP5crA7JKWABQBX9Xtl0+0BPx0VEAWC0KGABKbelp+P1Q+Xh9ZIuIA0AMeSm8D12ydqROB2UyTM0DQBU9UY7Te5fGehuv3rgnBceRyAAjoQCFpBS95+1oHmgu+Oz5v5DSbwOHkA8uX2vdUX/TbE7rCAYoXEAoCZ61DShd/P5na8jCgCHQwELSKHBfOf8yZMmrpH8byUZiQCIqb2y0j/H8cBcXqJ5AKBmWoMw/NFAT/vn+/O5CcQB4GAoYAEpU+zK/VlYDntNejlpAIg3+0zbirsfimUHKaSABQC1fijI9d7pZfsFG7wDOGj/jAiAdNh+7ilHDXS1X+5m35J4/TuA2NvavHfvp+N6cG4BBSwAqI+XlE23D3R3/AlRAHgmClhACgz0tL+4lG26Xaa3kgaAZPAPzrhhw2OxPTqFT9BGAFAnpmmSf2egu/2rA+csnkwgACQKWECyh3+SDfS0XyzXzS4tIBEACXF/686Zl8a7h2SP0EwAUHdvV9Pw2s1Lc6cTBQAKWEBCFfNnzCx2t18r1+cksdklgMRw93+3NWvivUTPgh20FADEwqlBYLcO9LRf7LycCGhoFLCABBrsyr1W5dI6SWeTBoBEMfW1Leq/Ku6H6aV9zMACgPiYKNfnij25lZu7Tp1BHEBjooAFJIgvWZId6G7/RGj2I5e3kQiAxHU8Qv2LLVMY9+Ocs+ieXVL8jxMAGqszbOcFlr1jS3fuFYQBNB6mYAIJsS2faymV7AqZlpAGgIT6TduK9S9JysEOdLcXJbXQbAAQOyNyf3/ryv7PmeTEATQGZmABSRhEnd/5qnI5WEvxCkCimX08SYfr0oM0GgDEUpPM/muwu2PVxqWnH0McQGOggAXEe/C0/y2DYfhjlgwCSPgN7a7Wjr7VSTpkc9tIwwFAnB8tfm5zUPr1pp72TtIA0o8CFhBTO85aMK3Y3XHVgbcMNpEIgEQPMgL/WBL2vnoW8wdpOQCIvZMzrl8NdOX+iiiAdKOABcTQlp6FZwxPmniH5OeTBoCkM2lDW7DwqsQduDszsAAgGSbK7JKB7vavbbzwhInEAaQTBSwgZga6cn9lHtwi6UTSAJAK7p+zQqGcwE7Sb2k8AEiUv2x+7Khbti5tP4kogPShgAXExMYLT5g40N3+VZldIonfHAFIB9OuTFbfSuKhh6WRXhoQAJLGzyibbi9251jJAKQMBSwgBjb1nHbyxMem/krS20kDQLrGEfryrEL/E0k89LZr73tE0iCNCAAJY5rmsqsGeto/7xctZi9ZICUoYAF1tqU7d24mzPzGJd6eAiBtRkIF/5vwc+ijGQEgkUyu9xa3D/+wmD9jJnEAyUcBC6gTl6zY0/HvJlsp0zQSAZC+kYOWz13RuznZN2ungAUAyX4YLfHyyG1behaeQRhAslHAAupg+7mnHFXsbl/u7h/m5xBAWrnsS4kf9wRiHywASL4XmAc3D3R3/AlRAMnFwBmosU353IKRbNMtkrpIA0CK3d26ou/nKegp3UZTAkAqTJL8OwPdua/4kiVZ4gCS2C0DUDMDPbk/zIT2a0ntpAEgzcz9f0zypJ9HS6H/bkm7aVEASM0T6qLisY/cyL5YQPJQwAJqZKCn/WK5XS/XdNIAkHJPNGcnfjsVw5z9RThmYQFAurzayyO/GVjasZgogOSggAVU2cA5iycXu9uvkOtzkjIkAiDtTCocW1j7aHrOyH9JqwJA6hyvwNcUu3PnEwWQDBSwgCra3N05V03DP3XpzaQBoFG47NI0nY/JfkWrAkAqTXXZVcWe3Cd9GWNjIP59MgBVUezOvcZlV0k6jjQANJCNrSvWn5SG/a+esimfOzZTtu3iF38AkGbXT8w0/2m6ZhAD6UJHDKiCge7c2132A1G8AtBgTPpWmopXkjSv0L9T0jpaFwBS7eyh8vBtW/KdpxAFEE8UsIAIeT6fKfbkPinZVyU1kQiARrsNBqG+ndJzu4nmBYDUO9nK4S3F89uXEAUQPxSwgIhsy+emDpbvWeFu7ycNAA3qltmr1v82jSdmFLAAoFEc66F+UOzJvY0ogHihgAVEYFN+0ZxS2X7q8nNJA0CjcunKtJ5btjTyM0kjtDIANIQJ7nbpQE/759ncHYgPfhiBCg32LHxZplz+jaQXkQaABhaWSyPL03pyM1ff+7hJv6GZAaCBuN5b7O24cuCcxZMJA6g/ClhABYrdufNDD34iqYU0ADR4J/9nx6++dyDlZ/kDGhoAGu4Bd74mDN+85bz2eWQB1BcFLGBc4zTZlq6O97vsSkn8RgZAw7NAVzXA3f/7tDQANGTn//QgY78cWNqxmDCA+qGABYzR/WctaC52t19q5p/kZwgAJElh1sur0n6SLZ39ayVtpbkBoPG4vE2Br9nS1XEeaQD1weAbGIPNXafOmDJp4g8l/RlpAMBT7LaZK+4upv4slymU2//R3gDQsKaa+cot3e3LiAKoPQpYwCht7lr0wsCyv5b0+6QBAM8UXtcoZ2oBywgBoMGZSR8a6G7/X8/nM8QB1A4FLGAUNnd1nBlY+WZJJ5IGADxb6Lq2Uc51qJz9oaQRWh0AGt47i+Fdy3lDIVA7FLCAI9jSnTs3ML9R0nGkAQDP8/Dclf13NsrJzl+1brekNTQ7AEBu56lp+KZi/oyZhAFUHwUs4DAGutrfYbIV4k2DAHBwpsZbUudaQcMDAA54qZf3/WJrTwcrNYAqo4AFHHRsItvS3b5Mpi9JYm07ABz6hvnDRjvlTFkrJYU0PgBgP3th2f2WgaUdi8kCqB4KWMBzx2JLlmSLPR1fMelDpAEAh1UeGbY1jXbSs1ev3yrplzQ/AOCZjwcF/tNid/vZRAFUBwUs4Bm25XNTizO2r5b7X5EGABzRr15wfd+uRjxxc62k+QEAzzHFpWsGejouIgogehSwgAO25XMtpbL9VG5nkQYAHJlLP2rUc7dssHx/BAAAPEtG7l8udnf8G1EA0aKABUjaku88pVS2WyS9iDQAYHQsCH7cqOfeUujd6NKvuAoAAAd7RLr8IwPdua94Ps9+ukBEKGCh4Q12d77cyuHNkuaTBgCM2vDw1Mdua/DRyRVcBgCAwzwpLhos371yU/7MSWQBVI4CFhpasTv3mlDhDyXNIA0AGJPb5l/64FBjd6KC70kqcSkAAA7FpXMypcd+sDO/+GjSACrtewENaktXx3ku+76ko0gDAMbs540eQMvK3m1y/YRLAQBwWGavGirvu2mwq3MWYQDjRwELDWmgu/0CM79a0kTSAIDx9MXtF6QgmRnLCAEAo+BnhBbeurWn40SyAMaHAhYaTrG7/X2SviUpSxoAML5e+L4h3UoM0oS9e1dIGiIJAMAonFh2X7Ml33kKUQBjRwELDWVLV8f7Xfp/kow0AGC8/P4XXN+3ixykGTdseEyy60gCADBK86wc3jLYs/BlRAGMDQUsNMZQS7KB7o7PmvknSQMAKvYbInjmQ8ZZRggAGItjQw9u3NLT8XqiAEaPAhbSP65YsiRb7Or4puR/SxoAEAEL1hLC7zw5NHS9pN0kgXEalrSKGICGM9Xcrxvobu8iCmB0KGAh1e4/a0Fz8dhHrpL520gDACLizMB6ppNv2DBsrhUkgXHYoSD4A5dNIwqgITVLuqrY3XEhUQBHRgELqbUzv/joKRObfySJ32oAQHS8qbTvDmJ4tjDgbYQYs3syZi910zaTv4Y4gIaVdfnXi925dxEFcHgUsJBKm7tOnTFUHv6JzF5FGgAQqQdnrr73cWJ4trbg1JskFUkCo3TTyLD93uzlfQ9YWP5r8XIZoOHH5S77n4Gejg8QBXCYHxQiQNoU82fMzFj2J5JeRBoAEC039ZPC81mhUHbXt0kCo3DZroz/fy+4vm/XpvyZkyS7kEgA7H/I+n8Uezr+nSCAg6OAhVTZls+1eLl0k0udpAEAVeg4uN1FCgdn0jdJAUfwtdbO9X+eK/Tvk6Rs+NgfyzWdWAA8xd0/PNDV/jGSAA7SDyUCpMW2fK6lVA5ulDxHGgBQpY61fD0pHFzbyvV3u/RLksDBmOsbrZ3r/9qWKXz6X4a6gGQAPP+GoX8d6G7/fwQBPBsFLKTClvPa55XL9nOKVwBQZSEzsA475nD/Bing+ReGfbVl0fq/embxauu57bPdbAnhADiE9w10tX/O2SMPeBoFLCTeQD53vGV0k0sLSAMAqqt5eO/9pHCYfIaGr5S0hyTwDF9v7eh7x7NmXkkqZ/QmSRniAXBIpouL3bkv+zLG7YBEAQsJt3Vp+0kq288lnUQaAFB1j8y4YcNjxHBoB/K5miSwf/BpX21d8eyZV88YmL6JgACM4kZyUbG3/SsUsQAKWEiwzV2LXlgOtEbS8aQBADXpRP+WDEaRUsBm7pDcdF1rcOo7TfLn/reBfO54SWeSEoBRenvxzo5v+5IlWaJAI6OAhUQa6Go/LbDyGklzSQMAasPkG0nhyFquXv9TSRT7GvpnRbeGwVF/bIVC+aD/vWx5sa8NgDHdWPwtxek7LqOIhUZGAQuJM9DVfppMP5bUShoAUDvuFGVGNcaQ3GTfIomG9YB5sHRe4da9h/xZks4mJgBjf8D4W4rH7rjCL1rcRBhoRBSwkCiD53V0yPQzUbwCgHrYTASjE5b9Uukg+x4h7baXM/6HLSt7tx3qD+w4a8E0Sa8kKgDj4+cXHxm+kiIWGhEFLCTGlnznKWHGfyjpONIAgDp0mc0HSGF05lyzfpNcN5JEQ9nrgZbOK/RvONwf2jep+Q2SGHgCqERX8ZHhK1hOiEZDAQuJsLlr0QutHN4kqYU0AKBOnYZQg6Qwem76Bik0UnP7n825ev0to/iTZxEXgAj0FI995FLP5zNEgYbpixIB4m7r0vaTAiv/RCwbBIC6Ct2KpDB6+6Y9cY2knSSRfu76f60r+q8+4p+TzE0UsABE5U8Hynd9zZcxrkdj4EJHrA3kc8eXA/1I0hzSAID6jtHbZjczA2sM5l/64JBM3yaJ1LulbWbzv47mD27t6syJX8gBiJDJLhy8s/2rFLHQCLjIEVtbzmufp7KtkTSfNACg7j3k3XbJ2hGCGGts4SWkkGqDTSqfP9qfjVAhm7cDiJyb/mKwN/d5l4w0kGYUsBBLW89tn20Z/VAUrwAgJr1j7SaEsWtdfle/pJtJIpVK5vbmmSvuHv3SWuPtgwCq9Zi2vyl2tX+WJJBmFLAQO4NdnbPKGf1E0qmkAQAxYXqUEMYZnflXSSGF7er659aVfT8d41+jgAWgms/qiwe6cp8hCKQVBSzESjF/xszQ/CcyLSQNAIgRp4A1XqVg2lUy7SKJNI0RbXXLyvVjGiRuOa99nqQXkB6A6t6g7O8HunMfIQikEQUsxMbmrlNnqDxyo+Q50gCA2A3YKWCN07zCrXvN2cw9RbaZ21+Z5GP6W1ln9hWAWj21/22gO/dBckDaUMBCLOzMLz46sOwPXeokDQCIH5c/TgoVDCU8YDP3tPwsuF3UsrJ325ivgVAvJj0ANXzyfLTY3f4+ckCaUMBC3W3KnzlpqDy8WtKLSAMAYtoNlvaRwvi1rOxdb9KtJJH4n4NvzlnZd814/q5bcDoJAqgllz490JX7K5JAWlDAQn1vqhctbsqUHy9I+n3SAIA4d4J9hBQqZczCSrbN+4Zt3LMZTM4scwA1f/DI7EvFnvY/JgqkAQUs1G8wtExBcfu+b0k6mzQAIOb3bAsoYFWolJl6JZu5J1Zo8j97wfV942q/gXzueEnHESOAOsi46/Li0o6ziAJJRwELdVPs7fiMzN9CEgAQfxZ6iRQqs38zd/8OSSTxB8A/37qi/6bx/nUv63RCBFBHEzzwqwe6crxMAolGAQt1MdDV/jHJ/5YkACAZPBAzsCJgZTZzT6CN2jexord5GS+pAVB/kxXY6sHzOjqIAklFAQs1t6W7/T0y/StJAEBymFPAikLLNX19Lv2SJBLUWXa9t+3atXsq/Al6IUkCqDvX9DDjN27Jd55CGEjkM5kIUEvFrtyfmfR5kgCAxPV6WUIYFdNXCSExbbWiZeX66yr/GC0gTAAxMcvK4Q8P7M0HJAoFLNTMQE/HUjf7+v5+HAAgUeN4CyhgRSQMjrqCzdwTYY+Vs++L4oOcAhaAeDle5eD7m7tOnUEUSBIKWKiJwa7ca+X+PUlZ0gCA5HFnBlZU5hVu3euy75JEvJn0762r1j1Y6efsOGvBNEkzSRRAzJ7sucCy399+7ilHkQWSggIWqm6wZ+HLQrNrJDWTBgAktJvLEsJo8wxDlhHGmamv5bjmL0TxUcOTJjP7CkBcvXQk27Ti/rMWME5DIlDAQlVt7lr0wtCD6yRNJQ0ASPB4niWEkZq7sv9OyX5FErHk7v5Ou2RtJC8uMJVPJFIAMfb6qZMmXurLqA0g/rhIUTXF/BkzAytfJ+k40gCAxI/oeQth1JnKmYUVT9+ds6L/5sja2WwOkQKI9/NIby72tv8nSSDuKGChKgbOWTw5LI+slnQyaQBACjoMJmZgRcxGmq+QtJskYmVfxuzfI/3E0FuIFUACvG+gO/e3xIBY90eJAFHzixY3qWnfcpNeThoAkJJ7OzOwItd27do9kq4gifgw2edmL+97IOLudivJAkjIXfAzxa6OPDkgrihgIdoBjmSDjwx/RfL/jzQAIE0De/bAqoYw9EtIITZ2DIWZ/6jCD89sogWQlPqAm182cH7nq4gCsbxAiQBRKnbnPuzSn5MEAKSM+R5CiN7cVf3rJP2aJOJwjeuj81et2x39x3ob4QJIkIkKw2s39bR3EgXihgIWIjPQlfsryf6NJAAglaP7J8igOlxiFlb9/XZX4F+qUvvOJF4ACXN0xrX64XNPoQCPWKGAhUgUu9vPltn/kgQApJO7KGBVSWZK8D25HiOJ+jH5B3KF/n1V+vhjSBhAAr0gm236wcalp3MPQ2xQwELFiktzL3XpSklZ0gCA1A7xKWBVScvlvU8q0HdJom5+07Kif3k1PtiXLMlKmkTEABKqvTkoFfrzuQlEgTiggIWKbO3pONEDWy1pCmkAQHqFTgGrqvmG/mVSqA+Tlpnk1fjszTO3TyNhAAn3+mPL9i2XjChQbxSwMG4D57zwuND9BxJv1wFwULuJID3C8hAFrCqau7L/Tkm3kUTN/aZlxfrvV+vDM+XwKCIGkHQuvbnY3f4xkkC9UcDCuPTncxPUNGG5SwtIA8AhnjBvGhm2Y03+Usne4a6rJG0nmGSaMlKmgFX1EYJ/lRBqHLn5R6o1+0qSAm+igAUgLf6l2JN7GzGgntizCOMyvRRcIvPfJwkAhxTqz15wfd8PtX9WyW2SvuKSFc/vfKWF4Z+7lJc0laCS4dipZzwpbSCIanbKsrqiVNZnJFH0qAXT2rbl/ddV+Tu4xwFIDXf7ysD5nQ+0Xd37c9JAPTADC2M20NPxAZlTfQdwJF3bzz3lqGeP5eRtV/f+vHXF+r/IZrxVrotNNkBUsbfXCoUyMVTXrEL/EzL7HknUaiBW3dlXkhR6mV8WA0iTZoXhiq1L208iCtQDBSyMyUBXe7fcP04SAEZhcqkp2324wXrbyvVfGJr2+Elu9h5JW4kstlg+WCNWDr9GCjVxe9uK/mur3p6mJqIGkDLHlQNdt3Hp6ccQBWqNAhZGbWBpx2KZLue6ATBa7vbHR/oz8y99cGjO8r7/Hg6zp0r6kqSQ5GLncSKojdZV/b+WdCdJVP3eVPXZV5IUujEDC0AandoclAp+0WKK9KgpChEYlU35RXMs0GpJk0kDwBi8bmd+8dGj+YPzV63b3bZi/btM/nK57iK6WNlJBLXjZszCqmrAuqttZd/qmnS0KWABSK/XFx8Z/iIxoJYoYOGINuXPnJQpl1e6vI00AIxR81B539lj+QutK/pvGz76icUyfYH44sIeIYPamRRMuFzSHpKoDg/0mVrMvpKkMBNSwAKQZn890J37W2JArVDAwuE7ecsUZMqPf1fSS0gDwDh1jfUvzL/0waG25esvdunNYvlaDITMwKqhYwtrH5W0nCSqYnDPnqHv1K4jJSNyAOlm/2+wq/2N5IBaoICFw/fyejv+Q9JSkgAw/gGcv2G8eyTMWbH+yqBsr5D0EEHWsw1tOyHUfEDAMsLq+OLJN2wYrllHOwxGiBxAymVC0xWbu3KLiAJVf64SAQ6l2N1xocv/iSQAVDYO17SBR4ZeOt6/3nJNX1+TymdK+g1h1qkJzXaQQm21rej7maS7SSJSe0IvfaWWXxhmRAELQCOYGphdvym/aA5RoJooYOGgBrpyr3T5V0gCQCRcb6jkr89ccXcxmBIskXQjYdaj/VhCWA8mfZ0UoszTvzF35T01Lcaa2TDJA2gQc4Jy+er7z1rQTBSoFgpYeJ4t57XPk9nVkiaQBoCIRnFvqPQjWi7vfXJ42hPnSPo+gdZWKDEDqx4yTZdJ2kcQkSgHFny25h1tL9F+ABqnuye9fOrEif9LEqjac5UI8EwbLzxhomW0QtJs0gAQYYdm8eAFnVMq/Zz5lz449OTeoW6TrSbVWvYWAt5CWAethTu2y3QNSURyF1o5e3nfA7X+1tCzLCEE0FDc9BfFrty7SQJV6ZISAZ6p+bGpX5H0YpIAELEmPVF+WRQfdPING4Z3ZsK8pB8Qa62UmYFVr4FAqK+SQuXM9d91asC9pA+g4Z5dZp8d6O74fZJA1Chg4WkDXbm/k/RnJAGgOp2Z4BVRfVau0L9PI83dkm4h2RooMQOrXtpWrr9R0m9JoiJ3t6zs+1k9vriczTxG/AAaUJPkKwbznfOJAlGigAVJ0mBX7rUy+0+SAFAtLn9FlJ/Xdu3aPZZpWirXvaRbXZlpAZu414lJLtM3SaKSe4++ZJLX47ubVXqUFgDQoGaEYVjYlD9zElEgKhSwoOLS008Iza6UlCUNAFW0OOoPbC3csT3IBmdJYoZQ9TzRcnnvk8RQP6WRkW9KKpHEuDw5KdN8Wb2+fGah/0lJZZoBQENyLc6UH+fN9ogMBawGN3hB5xQPSqskHUcaAKrsuC3ntc+L+kNbCr0bTf7HktgsuTq9zwEyqK/jV9874Kb/I4lxMPvusYW1dZsFdWAGHcsIATSyCw5sVQNUjAJWIw9JJPMnw69JWkQaAGoi66dX42NbV/Tf5NL7CLgqQ/AtZBCDVghZRji+zo59OQYdLgpYABr8IWafHujK/X8EgUpRwGpgA10d/+TSm0kCQO0eOsEZ1frsOSvWf9Fc3yDlyAsAg4RQf7uyfp2k7SQxhktX+mXbit7bY3AovMUTQKPLyOzbbOqOyscSaEhbutr/wMw/ThIAajui9NOq+fFDRz/xbpN6CTrKIoBvJoX6yxX698n1XZIYQyfX/UuxOBDzrbQGAGiGl8NVgxd0TiEKjPvZTgSNZ2tPx4kW6EpJGdIAUEsuO6Wanz//0geHzIM/lbSXtCMaewfMwIqLUM4ywtF7tJSdVojFfc9FAQsAJLnUGT7hXyUJjBcFrAaz8cITJpblV8k1nTQA1KHr8kKXrJrf0LKyd71cf0/WUQ2+nT2wYmLuyv47JbuDJEble/MKt8aikG0uisAA8Lub4luKXbl3EwTGgwJWg2l+/KgvyKN/lT0AjNKULd2dc6r9JW0r139Z0krijqCfKSuSQny4sc/bqHIKdFmMfoiYgQUAz3qW2WeKS3MvJQmMFQWsBjLQ3fEncv8rkgBQ1wdPoNps4Dmy7yJJ20i8MpmQGVhxEgbhdyUNk8Rh3d929fpb4zNQo4AFAM/R7IFdPXDOC48jCoxpHEEEjWGwq7NdYr0xgDiMwH1eLb6m7dr7HnHzvyXwypTLzczAipF5hf6dMq0micO61CSPy8GYBxSBAeAgjzQ1TbjC83n2ZcaoUcBqANvyuamhhVdJmkwaAOrNXfNq9V1zlvdfIdMKUh/vyFu72q5du4cgYtYsZWMz90MLvazL43VIpYdoFgA4qNcXy3f9MzFgtChgNYBSaN+QdBpJAIjFg8fCubX8vmzg75ZpF8mPpxQgZl/FUEvTqT+UxKyeg/vxnGvWb4rTAbXunL1FUommAYCDsWWbz+98HTlgVOMIIki3gZ72i+XKkwSAuHAFLbX8vlmF/kGT/pXkx9On1CZCiGGzFApluV9OEgdN59LYHdGaNSXJN9M2AHBQmSAMv7spv2gOUeBIKGCl2OaujjPl+jRJAIgV95pv2NkSnHaJTGsJf6wjb20khHgKlf2mYrTPUzzuLXqsnJka07ePGssIAeDQZmXK5Sv9osVNRIHDoYCVUgPnvPC4wPxKSdwEAMRsHKeaF7CsUChb2d8lKaQBxlAPcKeAFVNzV955n6RbSOJZ95ZV8wq37o3nD5M9SAMBwGG9orh96JPEgMOhgJXGAccyBWqa8G2pdhslA8AY1OWVya2r+n8ts68T/5g6CQ+QQqyf+JeSwe9YaN+L7bGZfksLAcARb5Z/V+zOnU8QOEzfFGkz2NfxQUl/SBIAYurouvWLguy/SnqUJhgdN2aNxFlTqXSlpCdJQpK0s2XWhBvj+8Oke2giADhyV81lX9uUzy0gChwMBayUGTi/81Xu/u8kASDGJtTri1sLd2yX9CmaYHTKgTMDK8Zmrr73cUnLSUKS2XK7ZO1IbH+WFN5HIwHAqBydCe17/fncBKLAc1HASpFN+dyxCsPvSMqQBoAYy/iSJdm6DSQzR31OEm8EOxLXY/MK/TsJIt6MZYQHLlddFevjy067T+zBBwCjvakvPia0jxMEnosCVppGhGX7utj3CkACbJ45XLcXTMwr3LrXzD9IKxwBbyBMhJYV/Wskf7DBY9jetmPGmjgf4IHN5TdxxQLAKLshrvcNdrW/kSTwTBSwUqLYlXu3pKUkASAJSiN7m+s66O/ov1zSnbTEYXuODxJCAppJcjNd2eAxXG1r1pQScJzsgwUAY3jEhaavbcvnWogCT6GAlQLFnoU5N/s0SQBIikkW1nVfA1um0N0+REscFvtfJac3d1mDj3G+l4SjdFMfFysAjMnsUsm+5cuoW+CpLg8SbeCcxZM9DK6SNIk0ACRFOQyb630MbSv7Vku6ndY4hJA3ECZFa6H/LjXujMJia2ffL5JwoObq5WoFgLHePPWGgd7cPxAEJApYydc0/HmZFhIEgCTJmur+ZhmT3OUfpjUO2UFgBlaCuPy7DXrqq2xZMjZHLxvLlgFgfH02+/jmro4zSQIUsBKs2NWRl/R2kgCQNOWMNcXhONpW9F8r01pa5Pk86xSwktReynxXjfiWO/NrknKojwV+j6R9XK0AMGbZwPzyHWctmEYUjY0CVkIVl55+gptfQhIAEvnwCWw4FmNfZmEdSmmntIEYkmPuit7NLlvTYKf96K5ANyXlYHOF/n2S7uZqBYBxOWl4UvOXiKHBxxBEkDy+ZElWQem7ko4hDQBJZMPhnrgcS9vy/uvE5srPfdI8cGCwjUT9YPl3Gup0pRsSeJ2yjBAAxn/n/5Nid8eF5NC4KGAlUPHYRz7sEmuAAST44TMSmwKWSW6h/z9a5ZmZBPeQQvJM3DN0taS9jXK+obQqacfsZrdxpQJABfdR+X8P9HScShKNOoZAogx0d/y+pA+QBIAkO65l6lCcjqdl5sQrJG2iZQ4UBtzvJYXkmXHDhsdkuq5BTnd44t6hGxLX8S6Hv+ZKBYCKTJH8237R4iaiaDwUsBJkWz431eRfp90AJNyIXbJ2JE4HZJesHTHp8zTN070DZmAllIfWGMsIzX8y44YNjyXtsHc2aZ2kYa5UAKjkYafFxUf2/TtBNGIXFckZ8ZX1RZcWkASAhHc6YrnEKVsauUTSbhpIklHASqq2mRO+L2lH+u8jwTVJPOwDe3b1cqUCQMUPgn8ZOL/zVeTQWChgJcSWro7zTHYhSQBIPNOeOB7WzNX3Pu6mr9FAkpdLLCFM6o/XJWtHZCqk/RItlfZdm9iDN2MZIQBULlAYfn3wgs4pRNFIjY7YG+zqnGXml5AEgJSI7SbTWdmXJIUN3j7b5668ZweXaXK5+7fTfYa27vjV9w4k9ujlv+QqBYBInBzuCXkRTwOhgJUAoYX/K2kWSQBIiV1xPbDZy/secNP3G7x97uYSTba2Ff23SHogtSfonuif0dCDNVylABDVM0F/XexuP5sgGgMFrJgb6M69XVIPSQBIkWKcD85C/58G7wmy/1XCmeRyXZHaK9T8hiQf/9wVvZsl/ZYrFQCieey59I3Brk4mfDQAClgxNpjvnC/Zf5EEgLTd3uJ8cK0r+38g+X2N2w0M2P8qFT08S+cyQtOutp0zf5WCM1nDRQoAkZkVWvgVYmiA7g0RxJMvUxCWyt+SdBRpAEiZbfEeH8vl+nKjNo65U8BKgbblfffItDaFp3ajrVlTSsF5/JSrFAAitXSgu/0CYkg3ClgxNdCb+weZ8VpQAOnj8Z6BJUmhypdJGm7E5gnL6uUiTQv7bupuH6HdkIrzKDMDCwCq4IsD+dzxxJBeFLBiqNizMGeyD5MEgFQOqWXFuB/j3JX37JBpdQM2z84516zfxFWaDqHbVZI8Rafk5fK+H6ThRA78nD3AVQoAkTpaJX3bl1HnSCsaNmbuP2tBszz4rqSJpAEgjdy0NSGj/280YPPcyRWaHnNX9G526VfpOSNbd/zqewdSczbOLCwAiP7maq8q3pm7mCDSiQJWzEyZNOmDLnWSBIC0Cj0YTMJxtmYX/khSg81GMgpYqevHWyE9Z+P/l67WcfbBAoDqPPw+vrlr0QsJIn0oYMXIlp6FZ0j+fpIAkGbN5aFiEo7TCoWyZN9qqP4eM7BS2NMLr1ZKlhGa/EdpahrPMgMLAKpkUqDS11hKmMJuDRHEpBNz0eImU/ANSU2kASDFts1cfe/jSTnYjOmbStceQocVWpkCVsq0FfofTskywr1D0568NW1tI2kjVykAVIHZqwZ6299NEOlCASsmBh/Z9wG5TicJACm3IUkHO3t53wOSbm2QthnZs2ffXVyiaezDp2IZ4c3zL31wKIXN8xOuUACo0vNP+o/BfOd8kkgPClgxMNDVfprL/5UkAKSe2/3JO2S7okE6eXeffMOGYS7SFP7YlbyghM8kdLcbU9o813OFAkDVTAnL4dddMqJIBwpY9e6QLVmSlelbkppJA0D6nzqeuAJWEGSvlFRK/fOI/a9Sa8416zdJ9uskn4MF/uNU3hKnBD+UNMRVCgBV85pid8dFxJCS5yYR1Fdxxo5/kPQSkgDQCExKXAGrtXDHdkk/boC2oYCV6vb1JC8j3N0anHZHGtul5fLeJyXxNkIAqCb3/xzI544niOSjgFVHW/Kdp8j9QyQBoHH6D8GGJB63mad+GWFoRgErze1b1lVK7jLCm/a/FTSdzP1arlAAqOaNVtNUNpYSpgAFrHoN4pYpsHL4DUkTSQNAo2jeuyeRBawJe4ZXKuXLfDKh9XKFpleSlxG6Wao3OncLr+MKBYCqe/1gd8fbiCHZKGDVSfHO3MWSfo8kADSQrTNu2PBYEg98xg0bHjPZD9PaMCYbaFnZu41LNN2SuozQQk/1Et62FXc/JFMfVygAVJeb/9f27tNaSSK5KGDVwaZ8boHMPkYSABrMvcke/YcrUtuhk/+ay7MBOu4qX63kLSMcbFu5/u4GaByWEQJA9e+100cs+BJBJBcFrJr/zMgyZfuapMmkAaChmNYl+fBLga5VWt9GaPYrLtD0a1tx90OJW0Zo+nkjtE3oxjJCAKjJgNzO29KVezNBJBMFrBorduf+UtKrSQJAozG3RL9FbF6hf6ekNelsm5ACVqP8HCZsGaHLftYI7TJnUd+vJG3lCgWAGjwLzT730Nkd00kieShg1dDmrlNnSPYfJAGgEZU9vCPp52DylSlsmnDC3uG1XKGNIWlvI/QwbIgZWLZMoctv4AoFgJqY3dQcfpIYkocCVi3DtuxnJR1HEgAa0L5Hs0r8PjYjpdIqSWHKhs53J3VzfYxdwt5GuHvOov6G2dzcLLiGKxQAanbXffuW7twryCFZKGDVyObzO18n6a0kAaBBOwn9uUL/vqSfxfGr7x2Q7LZUtYw7ywcb7acxOcsIb7FlaSsYH9rwUY//n6RHuUIBoCYCk33ZL1rcRBQJajQiqL77z1rQHIThf0sy0gDQkANm9ztScy4pW+bjARu4N5qkLCN0b4z9r54y/9IHh+S2iisUAGqmvfjI8D8QQ3JQwKqByROb/0XSqSQBoGEHzAl/A+GzBtWm61PVNuXw11yhjWX/MkL9JvYHauEvGvBu+T2uUACoqX/b2tNxIjEkAwWsKtvcteiFZvZPJAGgkaVpBlbr8vVrJQ2m5HT2zNk9cz1XaONx6fsxP8S9e/YO/6bR2qV118wbJW3jCgWAmplUDv1LxJAMFLCq2zm0wMqXSJpIGgAaWCmbTc8MLJPc5f+XjgeVr7U1a0pcoo0nY2Hcl8L++uQbNgw3WrvYmjUlmVZwhQJATTt3b9jSlXszQcQfBawqGujquFDSq0kCQIPrnVXofyJVD0+zVOyD5bJfcnk2ptkdd92meM/0ublhx1GhsYwQAGp97zX73ENnd0wniZj3wYmgOjZ3nTrDzD9FEgAavkOQwoFoc9D8A0kjie8EmLP/VaP+XC5TKPmNcT0+N2/Y4mrLor6fS9rMVQoANTW7aaJ/ghhi3nclgmoF2/QZSTNJAkCjC81vTds5HVtY+6ikxBd/SpnsrVyhDSzGMwkzYaZh345pyxTKvMAFCgA15rpoy/ntv0cQ8UUBqwqK57cvkfmfkQQASObhLans47j/ONHtIm2YV7hzC1doA/9sBk0/kBTG8NB+27Kyt6E3MjfXFVyhAFBzgbm+7BctbiKKmDYQEUQ8oLlocZOH9t/7xwYA0PC2tK24+6FUDjAtSHQBy6Wfcnk2ttbCHdslxfFNfw2/N1vriv7bJP2WqxQAat5B6ihuH/obgognClgRKz4y9G7JcyQBAJJMt6T11HZlwl9KejLBp0ABC3KP3xs13Xi5wIEkLiUDAKhH/9U+tPXc9tkEET8UsCI02NU5S7IPkQQAPC21bxLLFfr3SfpFYk8g4xSwoEwMC5nmdgstI5Uz2W9KKpMEANTc0aWsf5IY4ocCVpQdDSt/StIxJAEAT7s5zSdnpqQuI3ygrdD/MJcnNDXzK0mlGB3R3tbjmvpoGOnAHnU/IAkAqEMfT/a2we7Ol5NEvFDAishgd+fLTfY2kgCApz3euuO4dWk+Qfdk7oNlLB/EAS2X9z4p050x+qH6jV2ydoSWedrXiAAA6tNdChV+0ZdRM4kTGiOKvtYyBaHCL4qN2wHgd/dG009tzZpSms+xtbN3naTdyeuSsXwQzxKbmZIu9r961j3muObrJG0lCQCoixcX78z9JTHEBwWsCBy4qF9MEgDwO+b+49Sf4zKFMr81acftHq7hCsXT13GMCliB7DZa5Bltc8naEXddRhIAUK8bsf3H5q5TZxBEXPoJqMhDZ3dMl9nHSQIAnvOA8cyNDXGibknbyH1T24q7H+IKxVNGRkZicw0HgdbSIs+5xSjzNUlOEgBQFzMylllGDDHpJxBBZbIT9VFJM0kCAJ5l2+yVvf2NcaoJK2C5/YTLE890/Op7ByTVv6hp2jVred9GWuTZ5q688z6l/IUYABDrrpPsnZu7cotIov4oYFWg2LMwZ+5/TRIA8LxH/Y3WIDMGnty791eShpPTCWMDdxz0yrg5BhfnWmOm0UGZ7OukAAB1kwnM/tvZ87ruKGCNfwBg7sH/SsqSBgA89x7ZOLN8Tr5hw7Ck3yTleLMBBSw8n7luqfsxyG6nJQ6RzRQrSHqUJACgbl450JN7MzHUFwWscSp2d7xF0u+TBAAc5OESZn/cSOdr5klZRrhx9vK+B7hC8Vxhxu6IwVGwgfshtFze+6Rk3yQJAKhjf8/t09vyuakkUccxBhGM3cA5iydL/imSAICD+m3rqnUPNtTgPwazV0bV8ZJfz+WJg2ky75UU1rVTagEzsA6jnAn/p95tBAANbk6pZB8ghjr2FYhgHCYM/52kuQQBAM/n0g8abvCf0a+TcaT2f1yhOJhZhf4nJN9Qx0PYyQbuhzev0L/BTd8nCQCoZ1dKf7/lvPZ5BFEfFLDGaLCrc5ZC/RNJAMAhHywNN8CaVegflPRwzA9zOJNx9r/CIbnbujp+PRu4j0aoLxACANTVJMvo48RQt3EGxtRvsPJHZZpGEgBwUHt9pPmmxjx1i/ssrJ/tn2UDHOIKNq2r33c7ywdHoW3l+hsl3U0SAFBXfzqwtGMxMdQeBawxGOhqP02yvyAJADikm9quXbunEU/c474BtbF8EEe4RML6zcAKw/oVzxLVRpKb6YskAQB1FSjwzxBDPYLHWHoNn5WUJQgAODg3u6FhH6hBzGdghX4DVygOJxuU1tWvi2V30gKjvM/ua/6WpJ0kAQB19eotXR3nEUON+9tEMDqDXbnXSvpDkgCAwwyAy41bJMmY/0ZSOaaHt6lt5XqWHeGwZq64uyhpax2+em/rruPupwVG58As12+SBADUl5l/pj+fm0AStUMBaxQ8n8+EgX2OJADgsO6evWr9bxv15A/sLxXXIhFvLsNoravDd/bbmjUloh9DBz4T/I/iWzAHgEZx0jFl+2tiqOHzjwiOrFi+68/l6iAJADgsiiTSHbE8Kva/wmi599fhW1k+OEYthd6Nkq0kCQCocxdL+tDGpacfQxK1QQHrCLblc1Ml+whJAMARHijuDV/AsngOxEcmBhNu4grF6H6Qg3tr/ZVu9ds8PsnCMPy4JCcJAKirGRMypX8lhhp1U4jg8Epl/ZOkVpIAgMPavSOrXzT8gNJiuBG16+ZjC2sf5RLFKK+Xe2r9lebqJfixm7uqf51cPyIJAKgvc71na0/HiSRRfRSwDmNTftEcyd5HEgBwRNfnCv37Gv6hGmRjV8Ay6XouT4z6GnardQHLh8MMBazx/nybf5IUAKDumsviflyTfgoRHCacculjkiaTBAAcYRAlX0UKUmvhju0mG4jVsyywFbQMRqtlZe82STtr943+0PxV63aT/DjvOSv6b5LsVyQBAHXmOn9zV8eZBFHlfi0RHFyxZ2HOZBeQBAAc0d5MRmwS/lT/xcIYzcKyO2Yv73uAVsEY1WwWlilg9lXlIfJbfwCIwd04kH+CGKqLAtahBiAefExShiQA4EhjJ/vRrEL/EyTx1AMkRhtSmy+nQTD2n2nVbCN3V13eepgqrcv7rpG0niQAoO4P0CUDPbk/JIjqoYB1EMWluZdKOo8kAODIQtcqUnjGgNw9PjNKQrF8EOO4bLx2+2C5UcCqeLwkN/dPkwQAxKEjaJ9wyQiiOihgHbwn8Alx0QHAaJSsNHwtMfxOJgziMSB33dW2cv3dtAjGoWYFLA/KdxF35VpmTrxC0kMkAQB196LBnvY8MVQHBazn2NLT8Xo3ex1JAMBoRp/6Rdu19z1CEL/z+L6990kq1/1AjM3bMU6ZTK2WEJbD4Oh7CDyCH/dL1o7I/eMkAQAx6B6H+ogvWZIliehRwHrWOExmro+RBACM8r5pLFF7rpNv2DAsqe4bp4ceXk1rYDz2PLHnQUlhDb7qgXmFW/eSeDRaZ068VNJvSQIA6sx0ysCxj7yNIKJHAesZij25bslfRhIAMCpuGb+GGA7WcfF6L4t6YO7K/jtpCIzHgSLslhp8FftfRXnbuWTtiJl/lCQAIAb3ZOlDGy88YSJJRIsC1lOjsHw+o9A+QhIAMOoH8y/bCv0Pk8RBhLq7vm1jzL5CpTZWv/NFAStqLcHCb6uGe5gBAA5pXvOjU95JDNGigHXAQHj322RaSBIAMMqxp3uBFA7OVOcClpVZ2okKf8Ct6gUsD5wCVtQ/+4VC2c35hSwAxOKmbP+y46wF0wgiOhSwJPXncxPM9UGSAIDRjz2V1XJiONTA3Oq5hHDL7OV3/ZpWQGV9bq96ASuUUcCqgraO/itN6iUJAKi74/ZNmvh3xBAdCliSpof2TknzSQIARjm4ZfngYWUDv0eS1+XLXVdbvb4bqeHVfxFBuXTUE/eRdBXuz8sUuuvDJAEAsXievm/gnBceRxLRaPgC1vZzTzlKrn/hUgCAMTyMWT54WLMK/U9IGqxP49jltAAq73B7tQtYD8+/9MEhkq6O1pXrV0q6nSQAoO6OUrbpn4khGg1fwBppanqvpFlcCgAw+rGth2wSPoqUNtT+S62/bVXfWsJHpcqlUnWXELruJ+Uq3gkkD4Pgn0gCAOJwU7Z3PXzuKW0EUbmGLmBty+emynUxlwEAjMktc65Zv4kYjjA+N/229v0j/xbJIwrzVt9blLS3itcqywerbO7VvT+W9H2SAIC6m5jNNPFLhQg0dAGrVLb3SJrJZQAAY+HMvhrVAN1qPQOrXAoy3yV5RHL97t9H7aGq3UXcmIFVk/tQ+E+SyiQBAHV/sF60vfu0VoKoTMMWsLblc1Ml/T2XAACMSRgqQwFrNAP00Gs7A8v143mFO7eQPCK8pqr4ogZmYNVC6/K7+iX/OkkAQN1NGlGWWVgVatgC1kgpeLck3gYAAGPz87krejcTwygesLVeQmjG8kFEfE2pakuFM0FAAatW9yLP/Jtcj5EEANSbv4O9sCp8pjXiSQ9e0DnFzJl9BQBjHtAaS9RGad9wULslhK7HNDJhFakj0h93Va2AtW/WjhkPk3BttKzs3WaBfYYkAKDuJmYz2fcRw/g1ZAHL94TvEm8eBIAxDzrLQcjywVF6wfV9uyTtrMV3mXR127Vr95A6ohRWbwbWA7ZmTYmEa8cm22dMNkASAFDvG7K9Y+u57bMJYnwaroA1eEHnFHf9A00PAGN94PoN8wr9OwliTB6sUeNcRtSIXFidApbJWD5YYy2X9z4p6V9JAgDqbnI5q38khvFpuAKWPxG+U8y+AoDxDDpZPjh2tVgm9VDLor6fEzUi/5kPrCoFrNDYwL0eWjr7LpN0G0kAQN29c7Crk5rEODRUAWvjhSdMdOPNgwAwDo/7vubriGGsFYDqF7Dc/Vu2TCFhI/JO4mSr1gys+0m3DrejZQpDt4slOWkAQF1NLitkVdh4+iaNdLLNj055p6RWmh0AxshtBXssjWPAGFbvLW4HhNkg4O2DqIqWy3uflGlX5D8XHlLAqpO5K/tulYm9DAGg3n1E07uK+TNmksTYNEwBa+OFJ0w0C6hyAsA4uPw7pDCup2yVZ2DZD2cv73uAoFFFm6P+wFImyxLCet6WguD9koZIAgDqaorKJeoTY+5aN4jmx6a8w+VtNDkAjNm2tl3H3UQMY2ceVLWA5Qq/RMpQdS+yqGcRPjm3cCdvw6ujlkLvRrl/jiQAoN6PWH83e2GNTUMUsPrzuQmSUd0EgPE9Xa/glffjs680XM0C1qa2zMLrSRlVZbYl4k/cYOzBVHdN5dInJG0lCQCoqymhwvcSw+g1RAFrell/JmkOzQ0A4xm/snxwvOa96N5BSfuq0i6yr1qhUCZlVJOHYTHiC5flgzEwc/W9j0v+QZIAgHp3tPU3O/OLjyaI0Ul9AcuXKZAz+woAxun+1hX9vHZ9vH2S/W8H3FKFjx4ZKe37Ogmj6h3FwAaj7ZiJDdxjojWz8JsyrSMJAKiro4fLw28nhlH2S9J+gsW+XJdMp9DUADCesaa+SwqVMWkw+oaxq49ffS/7CKEG9wCLdAaWmTMDKy73pkKhbKa/IwkAqHt/++/2b3uEI0n/EkK3f6KZAWCct1DPUMCq+DGkYtSfGQTlz5MsatJR9GhnYIVmzMCKkdar16+R+TUkAQB1NeeY0N5KDKPol6T55IrduddIeinNDADjctvclXcyW6JC7tHOwHLply3L7/oVyaIWQo1EWoDNlIMNpBqze1SQeb+kEZIAgPox1z/4ssbYo7wSqQ7I3T5AEwPAeJ+kYvP2SB600c5gCUyfJVXUypN7RwYV3VsD97Ss7N1GqvEyp9B7r5tdQhIAUFenFfs6ziWGI/WrU2pzV26RTH9AEwPAuISlkZECMVTOPYyygLWlZUbzSlJFrZx8w4ZhmXZH9HEPkWhMBwRB9sOSHiUJAKhrp/GfCeEIz6u0nljG7AOSjCYGgHH5MZuER9QXCaJbQujyL9gla1nqg9oKI9vH7WHCjKfWwh3bJf0nSQBAXb202NXxamI4tFQWsLb2dJzoUp7mBYDxMXOWD0aVZXRvcXt04t7hL5Moas0tqmWwzgysGCtnjvqspE0kAQB1fOYG4ftJ4dBSWcAqy/9RUobmBYBx2ZMdKa0ghmiEHkQ1A+t/Ztyw4TESRa2ZPKIirFHAirF5hVv3mvm/kQQA1JHbWVt6Fp5BEAeXugLW1nPbZ8t1IU0LAOO2cubqex8nhmjs3btnexQfkynpC6SJOommCOsUsOKupaP/cpnWkQQA1I+5/QMpHFzqCljlrC6WNJGmBYBxPxkuI4TonHzDhmFJT1Q07pe+OXv1+q2kifp0pKPaxy2kgBX3tl6m0Nz/niQAoK534zdtXdp+EjkcbJiSIgPnLJ4s6a9pVgAY5+NSNtBqp/2YJKLmj1Twl8vZUP9Fhqjb1RvRPm4eMgMrCVpX9N8k8xtIAgDqJlM2vYcYni9VBSybMPw2ScfSrAAwPqH7d6xQKJNE1A8o2zH+Ub99e/aq9b8lRNTtvpCJZBP3UtuE03izaVIGCGHmnyTxLACAuvUd9Rc7zlowjSCe83xKy4m4ZO56L00KAOOXCe1yUqhGBUDjLWCVQwWfIEDU9b5g5QhmYPlmiuPJ0bKyd73LeR4AQP0cNTyx+S+J4dlSU8Aa7Ok4S9KpNCkAjNvtLdf09RFDNYxvBpa5vjV35Z33kR/qqRTJJu4sH0zcXUvhMknDJAEAdbsRv9fz+QxB/E56ZmCFfjHNCQAV3Un5bXu1+h8WjqeANRIE9nHSQ73NLfTvkjRU4cdQwEqYthV3PyTXl0kCAOrWgzyhWL77XHL4nVQUsIr53EKZ/oDmBIBxK2Uz+h4xVEc4vhlY35q9vO8B0kPdu8+SS6rwLZhOASuRT4Z9H5PrMYIAgLphos4zpKKA5WV77/7+FQBgXPdR0//NKvQPkkTVjLWANSyVP0ZsiI+KN3J/mAyTp+3a+x5x+edIAgDq5tVbehaeQQz7Jb6A9dDZHdMlvZWmBIAKHgahXUYKVRz6S7vH8ufd9MW2FXczYwUx4hVt5O4WPEiGydSU1aclbSMJAKhTPzLMMAvrqTFL4h+qE/XXkqbQlAAwbruHjn78WmKo4tDfbfRLcEy7wsD/g9QQr95zZRu5exgwAyuhZhX6n5DZp0gCAOr1DPY3b8vnWggi4QUsX7IkK/d30YwAUJEr51/64BAxVE9G4eOjrxPoP+YV+neSGmLV5/KK9sByz07eRIrJNXzU4/8rloECQL00j5TtHcSQ8ALWwIzteUnzaEYAqGBkydsHq5+xabQFrC2l4Kj/JjHEr8PolSwh2zqvcOteUkyu+Zc+OOTSR0gCAOrDpHdtvPCEifRHkj0ieC+XMgBU5LdtK/pvIYbqKnv20VH2Tj7AQB8xVUkBi5k7KdC287hvSbqHJACgLmZOePSotzR6CIktYA32LHyZSS/nOgaA8TPpcpOcJKqr2faNZgbWLa3L13+HtBBHHmQqWEJoFLDS8LxYs6bk0jKSAIA63YfNG34z98QWsEIP3sMlDAAVjknNWD5YA+UpTUfaxD1UaO+lmIjY3iysghlY5gMkmA5tnesLkvWTBADUxaJiV8erGzmARBawBs554XGSerh+AaCSEan/YvbyvgcIovpmX967R1L5MI3xtbZVfWtJCnG1byQY9wwsD40CVkrYMoUu/yhJAEC9bsTe0Ju5J7KA5dnmv5Q0kasXACrC7Kta9TX2z6x64hD/cZdlJnyQlBBn81et2y1peHydzbBIgunR1rm+IFMfSQBA7bnUvfXc9tmNev6JK2D5MgVmfhGXLgBUZGjYmwrEUFMH3QfLQv+31sId24kHCTCuZYSesUGiSw9bptCkj5EEANTFhHJWf9GoJ5+4AlbxztwbJJ3IdQsA4+eu1QdmVKBWgz5p6CD/9lct2YVfJh0k5CIeVwErKAcsIUyZluXrCyb1kgQA1MU7PJ/PNOKJJ66AZRa8k+sVACqTYflgzfnzC1j7zMp/aYVCmXSQkKt4XAWskWyZAlbKmOQyfZwkAKAujh8cuecNjXjiiSpgbe7unOvys7leAaAi22fPbP4BMdTc3ucUAz7Vuvwu3uaFxHDXeDZyH55b6N9FeunDLCwAqKNA72jM007UwZYvkpThagWA8TPpe3bJ2hGSqPno/xkzsPy+4WlPfoJQkKh+mI2rgDV44CUGSN+zxOXGXlgAUI9upfzsge7TXtBwfZHENNBFi5tMwV9yqQJAhUL/NiHUZbj31AyscujBhfMvfXCITJCsznKwbex/R7yBMMVaFvUt542EAFAXGSn79kY76cQUsAYfGTrP5W1cpwBQ0Qj03tZV/b8miHo8cf2pAtan5q7su5VAkMAbyJgLWEYBK9VsmUIPndmkAFCf5/Jf+kWLmxqqO52gQdc7uEABoOK7Ppu312ug5zYk2R27Mv5h0kAiu8nh2JcQuhkbuKdcW3ZhQdL9JAEANdc6+MjQeY01lEmATfncAjd7LdcnAFQ2/gyC4LvEUKfw5Y8GZb0tV+jfRxpI6DU8jhlYzgyslLNCoSzXf5EEANTl4dxQE30SUcDKlPROScbVCQCVPOD8Fy2F3o0EUaf4y/axlmv62CsGiTUhO44ZWK5Bkku/4aOfuFSirQGg5v1Ls9duyXee0ijnG/sC1sYLT5goswu5NAGgYiwfrKM516zfRApIspnbZz4iKRxTRzNkCWEjOPBSii+QBADUnFmpfFGjnGzsC1gTHp2yVNKxXJcAUJGhYW8qEAOAcfeQ16wpSdo5lr9TtpACVoNo3jv0P5J2kwQA1PoBbW/rz+cmNMKpxr6AZbI/54oEgIpvptfOX7WOgQWASm8mY1pGmFWGPbAaxIwbNjxm5l8hCQCo/S14etnOboQTjXUBa8t57fNkej3XIwBUxt2/TQoAKr6XaEz7YJVmL+p9hNQaR9bDz0saIgkAqC2TGmLiT6wLWJbxtykhG80DQIzt2J3R/xEDgMo7yOFYNuoetGVj2zMLyTZzxd1FyS8jCQCoLZfO2t59WmvazzOIcQOYyd7GpQgAlQ44/YpcoX8fSQCI4I4yliWBLB9sQBkLPiWpTBIAUFPZkmXemvaTjG0Bq9jd8SqXFnAdAkCFw01j+SCAyG4oo96U3W1Myw2RErOX9z0g0zUkAQC15Z7+ZYTxXZ7n+gsuQQCo2P2zl9/1a2IAEE33LBz1rKrAtZ3EGpOF9gVSAICaO22wZ+HL0nyCsSxgbcvnpsq8h+sPACoebl5mkpMDgEg6jjb6JYShiw3cG1Tryr6fSrqTJACgtkIPUj0LK5YFrJHQ/ljSVC4/AKiIB5nMd4gBQGQdYwvGsK+V7SCxBn4ASV8kBQCouTcPnLN4clpPLpYFLPPGeAUkAFTZLS2F3o3EACAqE4aHR70HlgJnCWED27N36NuStpEEANTU0cru60rrycWugLWp57STJb2C6w4AKuPSlaQAIEozV9/7uKQnRncTcpYQNrCTb9gwLOnrJAEAtWUKUzshKHYFrIxn/lyScdkBQEXCcmlkOTEAqILRLSMMjAJWgytnMv8jaYQkAKB23Oy1W3s6TkzjucWqgOXLFEh6K5ccAFTsJ8evvneAGABUwagKWF7OUMBqcPMKd25x10qSAICastD9gjSeWKwKWAN3tr9O0jyuNwCokPtVhACgKr3i0c7A0jCbuEMmZzN3AKj1UEC6wFO4si1eSwjN/4RLDQAqNhKqvIIYAFSlU2w+mtmd5TmL7tlFWmhb2f8LSb8hCQCoqZO2dne+LG0nFZsC1sYLT5hobt1cZwBQsR/OXXkPMx8AVIXJRjMDa6ctU0hakCQ3fYkUAKDG916FqZsgFJsC1sRHjzpHpmlcZgBQ8ejye4QAoHod4lEsIXRtJyk8JTM5uFKux0gCAGr6vH6TL1mSTdM5xaaA5eZv4RIDgIoNNe8ZWk0MAKoltODIBSyjgIXfabm890mZ2JsRAGprVvG4R16bphOKRQFrx1kLpkk6i+sLACpkunbGDRv4LTeA6nUey+Fo9sDiDYR4zqAj+DopAEBteZiuiUKxKGANTZqYlzSRywsAKn5MXUkGAKpp2LOj2QOLAhaepWVF7y9N6iUJAKgdc+velD9zUlrOJyZLCI23DwJA5R4vB9O+TwwAqmn+qnW7Je057B9yClg4yGXhfikpAEANmaZly4+dnZbTqXsBa3v3aa0mfzVXFgBUbNW8wq17iQFADQwe/j87b0LF84QqXyZpmCQAoHY8RROG6l7AGrHsWyRluKwAoDImsXwQQK0cfhmhGTOw8DxzV96zw13XkAQA1NTZm/K5Y9NwIvVfQui8fRAAIrBzZ8Z/RAwAasJ02I3cLaSAhUP6GhEAQE1NCMrWlYYTqWsBa3PXohdKejHXEwBUbEWu0L+PGADUhOvhw/+BkCWEOKi2Ret/LPmDJAEAtROkZOJQXQtYZmU2bweACIRB8D1SAFC7Tpw2He4/ly27m5Bw0EtnmUKTXUoSAFA7brbk4XNPaUv6edS3gCWWDwJABAbn2ClriAFADXtxDx3uv2blu8kIh1L2zBWkAAA1lclmsm9K+knUrYC1eWnudMleyHUEAJWOI3WVFQplggBQM26HXUK4I1veTUg4lLkr77xP0u0kAQA1HDKY5ZN+DnUrYAVB0MMlBABRjCN5+yCAGhsZOlwBaw978uHIAymx9B0AajlmkF6+5bz2eUk+h3ouIeziEgKAim1uu3r9rcQAoJbarr3vEUlPHuI/P0ZCOOJAKvAr94+nAAA1YsraeUk+gboUsLbkO0+RPMf1AwAVP4ZWGAMAAPVxqI3cdxENjqSt0P+wpFtIAgBqOHQIPdEr4epSwLJyOc+lAwBRPIRsBSkAqJODbuTu0qNEg9FwM5YRAkBNBw961WBX56ykHn59lhCasf8VAFTukZZdM24mBgB16s89fPC+se0mHIxqIBJkr5RUIgkAqJlMGPjSxD43av2Fg/nO+XKdznUDABW7xtasoeMPoE784DOw3NkDC6PSWrhju6Q1JAEAtXx8e3dSD73mBSwPw/O5YgCgchbaclIAULf+r/yBg96bjD2wMJbriLcRAkCNvXZTPndsEg+89gUsZ/kgAETg0Z1N4Y+JAUDdOpGuDQf79yZjDyyM2r4wu1zSMEkAQM00ZUOdk8i+Ry2/bFN+0RzJX8r1AgCV8utzhf595ACgXvYNBwctYLmxhBCjN3/Vut2S3UQSAFDLoUQyJxbVtICVKZV7JBlXCwBUyMTbBwHU1Quu79slacfzbk/uLCHE2B5pHl5HCgBQOy69YcdZC6Yl7bhru4TQxPJBAKjc3mBy5v+IAUD92fNmYbkHLCHE2AZSWV27fzwFAKiR5qGJzX+UtIOuWQFrsKtzlqRXcJ0AQKXjRf9hy+W9TxIEgPrzDc/vXDoFLIxJW6H/YZP6SAIAajiksCBxE4xqVsAKVT5PUobLBAAqHC66XUsKAGJxP9LzN3IPM8zAwriuJZYRAkBt77xnbcqfOSlJR1yzApYHdi4XCABULGzK+PXEACAOTPrt8zqXZbEHFsYxKAn45QwA1NaUptLjr0vWs6IGNuXPnGSu13J9AEDFw8XbZhX6B8kBQByE/vw9sMphyAwsjNnszt5fS9pKEgBQw+d4oLOTdLw1KWBly4+/VtJkLg8AqIxJzL4CECMj9z3330ya0PwYuWDMz7dlCl1+A0kAQA25znbJknK4NSlguemNXBkAULmyh6tJAUBczF15zw49Z9bM9O1H8ZIJjIsZ+2ABQI3N27I0tygpB1v1ApZLJqeABQAR2DRnZX8vMQCIE5f1P+P/DtmaNSVSwXhkA/1A0jBJAEDtBEFy6jVVL2AdqObN5bIAgIpdZ5ITA4A4MfP1z/i/zL7CuM0q9D8h109JAgBqx2WJ2Qer6gWsTBCcwyUBABEMEkPjDU0A4nh3euYMLApYqOxqCnQjKQBADe+70ku3nts+OwnHWoslhGdzSQBAxZ4cOubxm4gBQNy4hxSwEOXYgWcdANRWEGbtrEQcaDU/fLCrc5bkL+F6AIAKmd84/9IHhwgCQNzsC5soYCEyrcFpd0jaTRIAUDsuT8Q+WFUtYJWD8I2q0ZsOASDdT5WAV4sDiKX5q9btlrTlQA/4CRJBJaxQKJv0c5IAgJr6w/vPWtAc94OsanHJWD4IAJHImH5ECgBiy9V/oPPHDCxUfjm5s4wQAGpr6uTJk14V94OsWgGrP5+bINcfcB0AQMVd+ftmL+97gBwAxJapT5LcKWChcqH0E1IAgBo/ysP4LyOsWgFrutsSSUdxGQBApeNC+wEpAIgzN197oGPJEkJUbM7K/l5Jj5AEANR00HFO3A+xeksIy/ojrgAAiOBZ4vohKQCIszDQbQc6v8zAQgRjKLlMPyMJAKipE7fkO0+J8wFWr4Bl+kPaHwAqti/I+hpiABBncwv9v5W0w5mBhYi4jH2wAKDWyuEb4nx4VSlgbcovmiPpVFofACp286xCPwNCALFmksu1lhlYiG6QUqaABQA1v/fGex/zqhSwglK8q3YAkBTu7H8FIDFukzsFLESiZfldd0naShIAUMOxh7TEL1rcFNfjq0oBy8TbBwEgkoeIhxSwACSk02u3ibcQIrrxhEu6hSQAoKaOKu4ceXlcDy7yApZLJvPX0e4AULGtc1b130kMAJKgKRv+ygP2wEKkbiMCAKixsBzbCUmRF7C2LM0tkjSLVgeAit144DfQABB7swr9g1YO7iMJRMXNKGABQK3vvbLGKWBlMsbyQQCI5OnhPyUEAEnS2nTqOlJAVPaVM78Rv8gBgJoy6SUPnd0xPY7HFv0SQhcbuANABMpBuIYUACSq01solEkBUZm/at1uuZjVBwC1lWma4K+J44FFWsDaeOEJEyW9gvYGgIoV5y2/+35iAAA0OJYRAkCtBfF8MV+kBawJj059laRJtDYAVOwnRAAAAAUsAKg5b4ACliT2vwKASB4a7H8FAEBgwa9JAQBq7qStPR0nxu6ZEOWHmbH/FQBEgf2vAACQ9k57bJ2kfSQBADUej8RwFlZkBazBrs5ZkjppZgCoGPtfAQAgaf6lDw5JWk8SAFBrnt4CVjkov06S0cgAUPHD4iYyAADgaeyDBQC1Znqt5/OZOB1SZAUscy2hhQEgAq41hAAAwFOPRQpYAFCHm+/0gbA/VqvsItwDy36fFgaAyoXKsoE7AAAHZCxkCSEA1IEpiFWdJ5IC1oH9r06heQGgYo/MWXkn+18BAHBA0559d0tykgCAmktfAcvlrxb7XwFAxUy61eikAwDwtBk3bHhM0maSAIAac/2+x6jWE80SQgtZPggAkTwj9EtSAADgee4iAgCoueMGexYujMvBRDMDy+zVtCsARHBTdqeABQDA8wYc3k8IAFCXEUpsJixVXMDalM8dK1eORgWAioVNQ8O/IQYAAJ7NzZiBBQB1uQErPQWsoBS8SpG+zRAAGpNJ6w/s8wEAAJ4ho4AZWABQBy7FZsVdxYUnE/tfAUA0DweWDwIAcDBNe/fcJV5yAgD10Lqp57ST43Aglc+cCtj/CgCi4B5QwAIA4CAOzFDeQhIAUHuBZ2IxcamiAtaOsxZMk+t0mhMAKmfMwAIA4HBYRggAdRmnKPkFrH3Nk14hKUNzAkDFdrcuWn8vMQAAcKgRlLOROwDUx2vicBAVFbDc2P8KACLyG1umkBgAADjE2MONGVgAUB/zBrpPe0G9D6KyPbDMKGABQBSdctM6UgAA4HADF3+AFACgPsyDuu9/Pu4C1v1nLWiWtJhmBIAIHgihrSMFAAAOM3Cx4CFSAID68MDOrPtzYLx/cdLESS+S1EwzAkDlLCivIwUAAA5t1owJmySVSQIA6uLl9T6AcRewAgtfRvsBQCSGW3bMYgN3AAAOwy5ZOyJpgCQAoA5cHdvyuan1PIRxF7BMRgELAKLRZ2vWlIgBAIAjDaD8QUIAgLrIlEtBXbeRGncBy+Uvp/0AIBLriAAAgFEwe5AQAKA+wjovIxxXAWuwq3OWZCfQfABQOTe7kxQAABjVU/NBMgCA+jDzuq7EG1cBqyw/k6YDgKgeBBSwAAAYDZfxJkIAqJ/kzcCqd9UNANLUF59oTb3EAADAqAYiFLAAoH5aB/K54+v15eMqYDkbuANAVDYeW1j7KDEAAHBkYRA+SAoAUD8WWt1mYY25gOXLFJj7i2k2AIjgASD1kwIAAKPzmPSwpJAkAKA+6vlCvzEXsLbe0ZGTaRrNBgCVC033kgIAAKOTK/Tvk1QkCQCoE6/firwxF7DCTMjyQQCIiMnuJwUAAMaEfbAAoH5e1J/PTajHF49jDyx7Oe0FANGwkBlYAACM0VYiAIC6mXhsWYvq8cXj2cSdGVgAEJFMNqSABQDA2GwjAgCon7BOE5vGVMDals9NlXQazQUAEXA9NqvQP0gQAACMhW0nAwCo411Yekk9vndMBayR/dPEMjQXAERy57+PEAAAGCN3ClgAUN+BzIvq8a1jW0JowRk0FABEhuWDAACMkctZQggA9b0TnzpwzuLJtf7WMRWwgtApYAFARMyMGVgAAIxRhj2wAKDut2LLDLXX+kvHVMByMwpYABCRMAwpYAEAMPZxEwUsAKgzD2q/Qm/UBaz+fG6C5AtpJgCIhlmGAhYAAGNHAQsA6j6Y8dNr/ZWjLmAdPaKFkpppJQCIxsiwbyQFAADGZnb2lB2SyiQBAHXkqvlG7qMuYFmmPrvMA0BKPfmC6/t2EQMAAGNjhUJZ0k6SAIC66vAlS7K1/MJRF7ACZwN3AIiMazMhAAAwXsYyQgCor0mDM7e/sJZfOOoClosN3AEgun63NhECAADj5RSwAKDed+JSbTdyH1UBy5cpkNRJ8wBAVHd720IIAACMj7GROwDE4Gbs8Stgbblz0QJJR9E6ABBZz5sZWAAAjJPLHyUFAKj3vdjiV8AyK7N8EACixR5YAACMf9T0BCEAQH2Z+RkuWa2+b1QFrMDYwB0AIr3ZyylgAQAwTm72OCkAQL1vxppe7D7t+Fp93ej2wHI7nZYBgOiUnQIWAAAVDGIoYAFAHFi2ZhOeRvsWwnZaBQCi41n2wAIAYNzPUdeTpAAAcbghhzWrFx2xgLVx6enHSJpDqwBAZPbOK/TvJAYAAMaLJYQAEAseLKzVVx2xgDUhW1pIiwBApLYTAQAAFYyXxCbuABAL5vEpYFnoFLAAINKbvJh9BQBABTIKmYEFAPFwqi9Zkq3FFx15DywTBSwAiJJrFyEAAFDBo9SZgQUAMdG8ZfquE2vxRUcuYLlRwAKAaDEDCwCACrixBxYAxEUQhDWpG43mLYQ5mgMAImRGAQsAgAp4yAwsAIjPTdnrX8DacdaCaeINhAAQKWMJIQAAFdlnWWZgAUB81L+ANTJp8kJJRlsAQHTcKGABAFCJE3YfwwwsAIgLq83KvcMWsMoWsv8VAESNGVgAAFQ2VlqzpiRpL0kAQCzGN6d6Pp+p9tcctoBlzhsIASDyTreziTsAAJU/UDVECAAQCxM366751f6SI2zibmzgDgARK2fYxB0AgIq5SoQAAPEQlKs/AeoIBSxnBhYARH3jLfluUgAAoGIUsAAgJqwGE6AOWcDals9NlTSPZgCAiG/uTSF7dgAAUDkKWAAQF17HGVjlsk4TbyAEgGr0tveRAgAAUTxSAQCxEOi06n/FIbiCk2kBAIhehgIWAABRoIAFAHERquo1pEMWsMy0gBYAgOhlKWABABAFClgAEBemacX8GTOr+RWHnoHlfhItAADRG6aABQBAFIMlClgAEKfbcrlc1TrS4d5CyAwsAKiCicOlEVIAAKBCbhSwACBGQgurWkc6XAGLGVgAUAW7R8rMwAIAoGJOAQsA4nRXdtW+gLUtn5sqaTbxA0D0FtywgQIWAAAVMvbAAoB43ZddtV9COBI6byAEgOoYMcmJAQCAyrgzAwsAYnVftjrMwArCDPtfAUB1MPsKAIAoGHtgAUCsbsuqQwHLA/a/AoAqYQN3AACi4DxTASBmjtu49PRjqvXhB9/E3Z0ZWABQnc52QAgAAETA2AMLAOKmWeWqTYg61ECKAhYAVKezPYEQAACI5KHKL4UAIGY8qN6EKApYAFBbFLAAAIhikMQzFQBix6q4kfvzClib8mdOktRG7ABQnfuuL1mSJQYAACocJMkpYAFA3O7NrtotIWwqPXmSJCN2AKiO4lGP0+EGAKByPE8BIGZcNSxglYPyfCIHgOoZCfc1kwIAABViX0kAiKMTq/XBzytgBaGOJ28AqJ6JGZY8AABQsZACFgDEUKtftLipGh8cHOTfzCNvAKieEr8xBgCgYsbzFADiKFN8ZE9V9lV/XgHLnQIWAFRTlg43AAAV4y2EABDXG3RQlbrS82dgyeaSNgBUT5kCFgAAUWgiAgCIH6/Syr6DFLCcPbAAoIqCIJxGCgAAVIyXogBAHIVBVepKzypg+TIFkrWRNgBUj5czx5ICAAAVm0QEABBDtZiBten2U1rEWnIAqCrP+AxSAABg/DZeeMJEUcACgFgKvAYFrAlNGTZwB4BqC8UMLAAAKpDZ2cyzFABiylWDApa7UcACgGrf0I0CFgAAlZiQoYAFADEe8dRgD6wqTfMCADzzxssSQgAAKhGaU8ACgPiaMXDO4snRj6Oe/f8oYAFAlbmYgQUAQEXPUtd0UgCAGN+nJ45EXl96dgHLAwpYAFB1xgwsAAAqwy+DACDOQq9yAUvMwAIAOt0AAMRbwBJCAIi3UNUtYBkFLACoBWZgAQBQAZYQAkC8BRb9Ru5PF7A8n8+4fDYxA0DVtRABAADj50YBCwBifZ+WWqP+zKcLWFtL986QlCFmAKi6ycX8GTOJAQCAcQ9imM0MAPEW+QSp3y0hDJl9BQC14iOl40kBAIBxPkfZ+gQA4m5W1B/4dAGrnBUFLAColcApYAEAMH4UsAAg3qo3A8tCClgAUDv+AjIAAGAcT9B8PqMq7K0CAIhUFZcQBhSwAKBmTMzAAgBgHIq6a46kLEkAQKxNHThn8eQoP/B3M7AUziJfAKgVYwYWAADj4GWWDwJAIkY8mXKkdaanC1ihMwMLAGqIAhYAAOMaETGLGQAScbvO7Iu0zvS7GVhGAQsAasbpfAMAMM5nKDOwACABym7VKWAp4g8GABzWzMELOqcQAwAAYx7AUMACgAQwqTpLCCVmYAFALY3sCU8iBQAAxsaNAhYAJIJVYQaWSyZpJukCQO1k3NpJAQCAMfKAZfgAkAzRz8DanM9NlzSBbAGglh1wX0gIAACM4dEpmeQnkwQAxJ9F/LLAQJIyJfa/AoDa39GVIwQAAEav2H3a8ZKmkgQAxJ9Xo4AlM5YPAkCNmcQSQgAAxjQaCk4jBABIjCps4m4hBSwAqHUfXDpxU/7MSSQBAMBoRy8By+8BIClMMyJ9BEiSux1DsgBQh254+OipxAAAwCi5MwMLAJJjeqSDpwP/cwy5AkDtmQL2wQIAYPQoYAFAckyIcsXJ/hlY8qPJFQDqIHQKWAAAjB4zlwEgQXx4Z2SzsAJJMrGEEADqwcwoYAEAMAqDXZ2zpGj3UwEAVFdTc/aYqD7rwB5Y0a5LBACMli0mAwAAjszF/lcAkDRhhHuu75+BZWIJIQDUpzPetrm7cy5JAABwpJGL8wZCAEjcrTviApaLGVgAUL+bevhSUgAA4AhCvZgQACBZPFS0e2CJtxACQN2Y2ctIAQCAIwyCAr2EFAAgYWMdhcdE9VkUsACg3h1yOQUsAAAOY+CcxZPlYg8sAEjaWCeIeAmhKGABQD292JcsyRIDAACH0DyyWBLPSgBIGI+w3hQcGDRNIVYAqJspW6ZvzxEDAACHGgE5ywcBIIHMIyxgFY8aOEaSESsA1E8QBCwjBADgkAMgClgAkNA7+DGRjZnKE5uOIVAAqPNtPWQfLAAADsUl3tgLAMm8gx8T1ScFmZHgaAIFgDrf1nkTIQAAB7UpnztW0nySAIAEMk2P6qMCC8JpJAoA9eYLi/kzZpIDAADPlgn1ErHlCQAkU6ipUX1UIAsmkSgA1J2F5ZHXEgMAAM95QHrA8kEASOxNXJOj+qhAHk4mUQCIwb3d7HWkAADAs7n8NaQAAIkVZQFLFLAAIBY9dKeABQDAM9x/1oJmSS8nCQBIrMhW/QUuo4AFAPFw4mC+k01qAQA4YOqUiWdGOfgBANTcJI9oH8NAch4IABATYbnMLCwAAJ5+LrJ8EAASzjbnz5wYxQcFCpiBBQCxubuLfbAAAPjdc1EUsAAg6ffy0q5I6k6BQqbkAkBcuPRa51XhAABo4JzFk2XGGwgBIOEszEZUwAqcGVgAEB+zNve0dxADAKDReXb4FZKaSQIAEn4/DzKRTJwKJGMGFgDESNb1B6QAAGh0ZlpCCgCQgvt5MDIlis8J5GIGFgDEiEvnkgIAgOehXksKAJACFkQ2A4sCFgDEyysGznnhccQAAGhUG5eefoxJi0kCAFLALaI9sMQeWAAQMxnPNp9DDACARtUclP9IUhNJAEAahFHNwOIthAAQNxaE55ECAKBhn4NyfpEDAGkR3QwslhACQAxv8m8YvKBzCkEAABruEXjR4iY3/SFJAEBqxjYRFbDMeTUtAMTPpPIT/npiAAA0msFHhl4p13SSAIB0MEVTdwrkyhInAMRPYM4yQgBAw3EFvI0XANJ0Xw8skrpTIClDnAAQxw68zvUlS/glAwCgoZj8jaQAAKm6r0dSdwokZmABQEzNKB674/eIAQDQKIo9C3MuLSAJAEgTi6yAFRAmAMT0Vi8/nxQAAI0iDDPMvgKAlHEPo1pC6CwhBIC43uylN/lFi5tIAgDQCMz8HFIAgJTd26ObgWUsIQSA+Jo1+MjwG4gBAJB2W85rnyfpTJIAgLSJbg8sZmABQJxv925/SgoAgNTL+FvE9iYAkL7xjKJ7CyEzsAAgzsyX7swvPpogAACpftyZvYUUACCF9/cIN3FnBhYAxNuk4fK+LmIAAKTVQE/HqXKdThIAkEYsIQSABrrnh28lBABAip9zf0IIAJBOzMACgEbq15u9ZnN351ySAACkdHjzZjIAgJSOZTyMbA8sClgAEH9BxkL2BgEApM5gz8KXSTqZJAAgrZiBBQANxaULSAEAkDahZ5h9BQBpHscEvIUQABrszq+Owe7OlxMEACA1j7ZlCiTPkwQApJdFuIm7EScAJEOo8J2kAABIi+L69tdLmkMSAJBm0S0hdMIEgMR4UzF/xkxiAACkguuvCQEA0n6v91IUHxNIKpEmACRGs8ojf0YMAICk25bPtch1DkkAQLqZvBzF5wSSysQJAMnh0jv37xkCAEBylUL7S0lNJAEAKR+/uFHAAoAGddLAne2vIwYAQGIHM8sUyP3tJAEADcAU2RJCClgAkLRngInN3AEAiTW4ruMPJTuBJACgAcYuYgYWADSyczZ3d84lBgBAEnngF5ECADTIPT/CPbDYxB0AkidrCll6AQBInO3dp7VKOpskAKBROEsIAaCRmfTOTfkzJ5EEACBJSsq+XWzeDgANNG4xZmABQIOblQmfuIAYAABJ4UuWZF1s3g4ADXXvj3AJYUicAJDUp4G/3/P5DEEAAJJgYPr28yUdTxIA0EiYgQUAkE4shnctJQYAQCKGMBb8LSkAQKPd+xXVHljOHlgAkGRu7ycEAEDcFc9vXyL5y0gCABpsuBLdDCyjgAUAyfaSYlfHq4kBABBnoet9pAAAjSi6PbAoYAFA0h8J5v9ICgCAuNqS7zzFXH9EEgDQeCz0iJYQGntgAUAK/NFgV2c7MQAAYjp4eZ/2//IcANBgIltC6K4h4gSAFIwNLGQWFgAgdga7OmfJ/a0kAQANOlAxi6TuFEi2hzgBIBXeMpjvnE8MAIA4Kav8bkmTSAIAGpR5JHWnIKoPAgDUXVO5XP53YgAAxMXgBZ1TzOxdJAEAjSuU743icwKT9hInAKSDyS4Y6Ok4lSQAAHFQfrL8bknHkQQANC63TEQzsEKWEAJAimTk4b8RAwCg3gYv6JxisveRBAA0uHJUSwgDZwYWAKSKvXlzV24ROQAA6il8MnyvpFkkAQAN/0SIagYWe2ABQMoEQWDshQUAqJtt+dxUSX9HEgAAKRvNHliygAIWAKSNq6vYnXsJQQAA6qFU1t9KmkkSAIDo3kIolhACQCofE7IPEQMAoNZ25hcfLRmzrwAAkiTPlCMqYDkFLABIqbMHzu98FTEAAGppb3n47yQdSxIAgP2mRbSEMAieJEwASKkw/CghAABq5aGzO6abdDFJAAAO8LmFW4ei+CBmYAFAur16oKu9mxgAALXQNMHfJ+kYkgAAHLDXJI/igwJjDywASDfTp+8/a0EzQQAAqmlTftEcmf6WJAAAzxDZiwMDhSwhBICUO3HypGaWcwAAqipTCj8uaQpJIGacCIC6imzSVKAsM7CAGDxV/1emD7r8Usl+pQir1IAkmdu/DnZ1ziIJAEA1DHR3vkjmF5AE6mybZP8n6RMyPz9jdpLLbiIWoK6D3cjGtlkPg8ekkFCBOgqkcuvy9R9/5r97+NxT2jJN2cVyWyzTYnMtltRKWhgX07RQ5Y9K+mvCAABE/pjx8n+6WUASqKGim9bKtTZw61dQvqt1+V39z/wDgxd0TrEnw1cQFVDXccijkX3U1p6OE8vuvyVVoK62tx7XPMcuWTty2D/UfVprKcyeroxeEspfYq6XSmJWDUarXDa9aN7y9b1EAQCIypbu3Lkmu4YkUCUu6QGZbpfsdim8w4IJt7cW7th+pL9Y7On4I3e/ngiBuvpR24r1b4jig7L7gnB3pmxECtTXzMFHht8g6bAP2Jkr7i5KKkq64al/N9B92gvMMi/z/cWsl0haLPafwMFlArfPSnodUQAAIqksXLS4qbh9+D/FcALRKEu6T9LtJt0h+e1DYdMd81et2z2+CzQ8S1ycQH2Zdkf1Udm5WvhoUXe7+MkG6u2tOkIB62DaVtz9kKSHJF0lSZ7PZwbD/lMV2mIPbLH2Lz18sSTeQgeZ/LVbujrOm7Oyj9+UAwAqVtw+/E6ZTiEJjENJrvtkWivTWoW+NpiauaPl8t5IXjLmkhVl5xEzUGfuu6Iby0ga6Gp/VKZpJAvU1d7mvUMtM27Y8FjUHzxwzuLJ3jR0xv4lh8FLZP5SSScRecN6oJw5qn1e4VZe4gEAGLeNS08/pjko3S/pONLAEQxJ6pN0u8xul/z2J/cM9Z18w4bhan1hcWnupR7Yr4geqC93fXrOyvX/FMVnZSU9NaWLAhZQX5P2TZrULenSqD+47dq1eyTdfOAfSdLmrlNnZLzppcroJe7+1PJD9tNqDCdmSo/9u6R/JgoAwHg1W2mZKF7h+Z6QdKdp/55VJfPb5+447i5bs6ZU00GzqYumAOrPTJHNwMpKkkm7XTqeaIH6cvmfqgoFrIOZu/KeHdq/l9bT+2kd5M2Hr5R0DC2TyifJP2xemrty7qr+dYQBABirTT3tnXK9myQavvP6mEx9Mq210Ncq8LUtQe4eKxTKMejsUMACYjHsiG4PrP1LCLvbfyrp94kWqLuwnMkcP69w55ZY9Eny+czm8O5c4HqJSWdKepmkhZJ4TXYaHibSrS2d619pyxSSBgBgLP2DYvnuW7V/9jYax7b9bwH0O0x+e2DB7bOX9z0QxwMt5nMLvWz9NBkQg2eG+Z/MWd5/RRSfdWAJoe+Ss4c7EANBNiz/iaRPx+FgDvz2rPfAP1+XpG353NRSSacrsMWSXiHXEkkzaboEPkykM4t3tl8krf8yaQAARmsgvOedRvEq7YpuWhvI+xXqLgW+tnX5XYkpCHlZ3TQhEA8WRryEUGGwW+YkC8Thgev6U8WkgHUwswr9T0j6xYF/Pi/tX3rYlJnwCg/8lbz1MHE+tSm/6Nq4zPoDAMTbtnyupVT2j5JEqhTdtFautTJf2xTotlmF/sGED5lZPgjERGCZ3VF9VvbAkHk3sQKxsWjwvI6Olmv6+pJywMevvndAUuHAPxo4Z/FkZYdepMAW7y9o+askO4GmjWP/TtOCUvm/JL2JMAAAR1Iu2+fE/phJ9qxiVRBM+GVr4Y7taTrBge7TXiDpDJoaiIfQoqs3ZSXJTbtZQAjEh2f0VknvT+rxH3jr4VOztJ7uTLgHZ5rs5W56mUkvkjSB1q4/M/1xsafjW63L+75PGgCAQxYGenJ/6M4vPBJiRLYyFxYAAF1gSURBVNJdLr/jwL5VtzdldOeBmfQpF3TpwF7PAOovG4S7Ixu37B9Y5v5Wss8SLRAbm1s7178gzZtr33/WguZJEye9KND/396dh8dV0Psf/3zPTJq2lK2lbWbaAsWylCyARaGKP3uvKyJLEuJ2RXEDFxT3FaXqVcEdca2iLF5RhySlZXHBe0FBBAyUJNOyb22TtKWlQJdsc76/PyjKUtomnZmcc+b9ep4+j/f38JvMvM/JmXO+OUt4rMuONdOx4mmoY8gfCvZI1dVc1rmZFgCA51rZMn9CqvBkl6QXUSNyBiR1SX67FNxuCm/v32tz1+yLH+qvxBirm+puNulYVgsgIhuovTZNKNb2KC1JpmCji3tgAREyc3V3w39InX9J6gc8+Nr7BiTdvO2fpKfupZVOVx3jrvkmP1Zm8yRNZHUoBzsw3BJ+W9IHaAEAeK7U8JNfkDG8ioBNku406fbQ7Q5XePuMqeOX26KOIdJIK1tq51hBx1ACiIz+Yg7T/3UJIfMrIFqCMHyXpL9U0mfedi+t9m3/5C0tqb4wf5hCm+eml8vtOJnmitPCS8N1Zm9z/VIuJQQAPNPq5sOPkuvTlCj79/ITMnXJ1GGhdyjwjpqg9q5tT4nG9vafC/Z29hOBSHmsmC/21CWEpza8QmH4V9oCkbJ1fKo6MznX8Tgp/q235aipNjx0TCgda/Jj3eylkvakTLG+FKxnOBXWz8rlN1ADAPDg6QeOr35iz39KXkuNklon6XZJt5vbHUGgjumtXQ+QZde5ZL1NdXdLOpgaQGR0Z9u664v1YmlJCgu2JmBODUTNhP5w8M2SFpHi37Y9Keeqbf84S6voO3+eTQ0HP5T0NmoAAMY9OemrDK+KrtdNHYE8r1DLFXhHTevy5Sauidkda5oajpFChldAhJj7mmK+XlqSJqbTa/oLnIkKRG6Y4P4uMcDa8UbxqdPo89v+XSpJ64+fs1f/xAkvlftxMs0z13Hikd8j+aZ56+qmuitntHX/jhgAULlWNdbPN/ePUWK39LqpQ64OmXdUBbptWi7fR5YS7Der8F/8/RKI2O+lqagDrH/9hvc01W2VNJ7EQLRYymszufxySuzGhnPBgnTv5A0Nbv4ycz9W0sskzabMDq2vUqF+atuKXlIAQOXpOXHeRFUNLBOXY+2qUNI9crvD5Leb/PatXnX77MXLNpKmDPt6Z8yr6n10YLWkqdQAovTLqQuy7d0fLdbLpZ/xv9eKR9gD0dsbGrbTJW6cujvs+uuHte2+EpJ+KElrTqqbPlzlL5XbPJNerqf+TaDWv0wZUuoSl17HJQ0AUIHfnVX957uM4dX2Dct1j0wdMnW4LB8G4e3cP3Ls9K4bOFHG8AqInMCKesbpM8/AulXSSygMRE5fZr/q/Xk8cmn5GfOq1qzf+uJQwbHmmu9PnaU1iyMYOzPb2sVlrABQSTsejbX/GZpdJ67HkqQBSV2S3y4Ft1sY3tG/z+bOYj4WHruvp6nuaklvoAQQsWMs03tmtHb/smiHJk//j9XNdUvN9UYSA1EcIvip2dZ8KyHKa2XLETPSheH5bnqZuR3r0oslVVdYhk0ye0m2tesu1ggASL71x8/Za2DC+E5JB1Tgx98s6U6T3x56cLt7eMeMaePz/BEx2lY1NcwMFD4kKUUNIFoC14k17d1XFev10v8+Pi7uzbUAFFFoZ0higFVms3J3rpZ0xbZ/T91La5/1Ryjlx8k1T9JxSv69tCbJPddz4rxjsks7trBWAECyDYwf/yNVwvDK9YRMXTJ1WOgdCryjJqi9a9vDYRAjKfm7nOEVEM3D2EBFvYTwuffAAhBFplevaa4/aHpr1wPEGMPF8NS9tDq2/ZMk9bTU7u+hXm6yY+WaL+lISVUJ++h1qhr4gaT3shYAQHL1NNW+V9LbE/jRNkn6h9z/aQpuD9xvn7a4+4Hn3+ORZ+bEjS9U0Nvp76IEENVf0sK6Yr5c+hkHyGu4TS8QWUEhDN8n6XOkiJZsLv+IpEckXS5JK1vmT0j55qM9LMw32XxJx0qqScBHfU9Pc9312dbuX7PUASB5+hob6kKFFyTk46yR6Sa5/01mN2bW77ds2x+hkDA9XfX/aXKeLA1E1MBeW4t6pd+/74HVWPsWM7ucxEB0d8Yy+1XP4j4M8fPISYdmU1XpeYH0cnc7Tk/dSyuOTzzcLNdLsu3dK1iqAJAcfac17BFuCm+V6fAYvv2CXHc/9URAu9FUuKmmdflynqBbGXqb6i536S2UACLp8Wxb9z7FfMF/nYEVmNawlQcibXrfo/0na9v9mBAf+y+5u0dSj6SlkpRvqR03JfSjwjA4RubH6KkzteLw18M9FOh3K1vmHzMrd/NWliwAJINvDi+MzfDK9YSkf7jpZgv09+rN/f+Ycu19T7AUK8+qxsOmuNRICSCyin6bqmdcQuhr5TwpF4j4Ttv7xQAr9mpz+UFJt2z7J0nqa2yYVrDCsSY7RtJ8SUdL2jOC62B9qvDkheJ+WACQCD3NdW93V5TvIXS/pL+b6eZh6aaZqbl5brQOSUoF6Xe7V9zToYE4KfoA618Tq54TD9lPVePW0RiINLeU12Vyee4ymvQF3dKSWjN41+FhKjxG0kskO1pSvaJyg3jTadwPCwDibXVLw6FWCP8paVJE3tIGyW51D28NzG5VqurWTO4Ojk+w3f2k3sLy+yQ7kBpARJnasq3dzcV8yX+dgZWZd8+G3s66ISXv6VlAojYDYcE+JOlDpEj4gn7qr8td2/79QpLuPX5O9aTq6iMU6GjJjnbT0XIdrrF4dLTrJ32NDctq2ju7WVoAED8Pnn7geHsi/J3Gbng1INkyk9/qplsLKtwyq3XFvSwZ7IqewvITjOEVEG2uNcV+yWddM9jTVPeIpFmUBiJt0/hU9czJuY7HSQE/Y15V79rBBqX8OLnmyTVPpsMkBWX46Q9ZatxL+es4AMRPb2PdRW56dzl/pEw3SrpJoXcM7L35n7MvfqifJYHR6Gmq+7OkV1MCiDDTOdnW7q8V8yXTz/m/V4oBFhB1k/rDgdMlXUAKbHsqZce2f5KkdScduudQKn2EApv3jKHWXD3njxZF+OkH+vBga76l9tXb7usFAIjDwX9j7cdKPLx6XNJtLt0k8w4bHLo5u/SeRymP4qy/dXMlvYoSQMSPU0JfWezXfNYAy6SVPIkQiAHXh3yhLrSFComB55q65O4nJd247Z8kaWVL7eSU29Fye7GHfpSZjpL0Iu3umVpmr5hc8O9I+jDlASD6Vp3a8CqF4TeLd4Sixyz020PZ7TJ1BGH6lsziZQ9RGiXbDQ7sQ+Y8fQyIOpNWleA1/211c923zPVJUgMx2CCE9obM4q5rKYHRWttSO2l4KDjULKz1p8/Wkl4sacLIV0g7M9vatYiqABBdvacceaAHw7dJ2m+UL7FRUl6mDgu9Q4F31LQuX24SfwNHWTx1lnnVKpn2ogYQbalQc6Yv7r6/mK/57DOwQq0Us2wgFjwVflgSAyyM2rRcfpP+ffnhpdJT99Rava7/8FSgIz20o2Q6UtKRkvbe8QrpF/Y01i7PtudvpCwARE/faQ17+ObhK7Xrw6teSbdLfrssuN2HvWPGld0rKYmxNJiuOt3E8AqIw+Hqln02rS72iz73Ju6NktpoDcRjo2AW1mdal+dJgVJb01x/UEHhUfLgSMmP0lNDrRnP/c+U8pdmc/lHKAYAEdphkKy3ue53crW8wH+yUua3m4LbLfTbBwtDt++/5O4eyiFy63Fj3QqZDqUGEHlrs23d04v9os++iXtojyjgDGAgJkwefEIq6xOEUKGmt3Y9IOkBSa1P/789eMqR+1TbUN2zbhYfWlvfaQ2vrLmsczPVACAaepvrPv+M4VWvmzrk6pB5R1Wg26bl8n1UQtT1NNe+0ZzhFRATJfmD9rMGWKnQVxUCSgNx4dJ/PXLSoefwV1KMhdmLl23Uc24W33dawx5Vj25JUQcAoqGvsWGah+FAGNhrwiC8fVYuv4EqiCNz417NQHyU5JJze87BsPU21W2RNJ7eQEy+zM3Pz7TmP0sJAAAAJFFvU+1LXHYrJYCYcF2Qbe/+aLFf9lnnW217gshqagMx2jaE9oENLfP2pgQAAAASub9rxh9rgRgxK80ZWM+/YNDF00WAWG0dtFd/OPgeQgAAACBp1jTXHyTXyZQAYnWMWqYBlomnRwFx4/6xfEvtOEIAAAAgSQrun5bE/TWBGDEPSjJX4gwsIBlmTh7WW8gAAACApOhrbJgm6R2UAOJlWFpVitfdzhlYxgALiCE3O8dbWvjrFAAAABIhNP+wpAmUAGJlaEbq0N5SvPDzBlilutkWgJI7uGd4eQsZAAAAEHd9pzXsIfkHKQHETq/lcoVSvPDzBlge+oP0BuLJZF/0hds5sxIAAACIkXBL+F5JkykBxM79pXrh5x3obu7vf0BSgeZADJkO772z7hRCAAAAIK7yLbXj5PoYJYA4HpPafaV66ecNsA6+9r4BleiGWwDKINAXXTJCAAAAII4mF/ReSQdQAogfD8t4BpYkuex+sgNx3WLoyJ7m2jcSAgAAAHGTb6kd57JPUwKIp8DC8g6wTOF9ZAfiy9wWchYWAAAA4mbysN4nzr4CYqsQqnyXEEqSlfCaRQBl8eI1jXUnkAEAAABxce/xc6rd7DOUAOKrOhwu8yWEJbxmEUB5hIG+zhMJAQAAEBeTxle/V9IsSgCx1Td1yd1PlurFt3twWwjEGVhA3Lnqe+6sfRMhAAAAEHXbzr76LCWAWCvpyVDbHWClBqvvk+S0B+LNzL7iZ8yrogQAAACibNvZVzMpAcSYl/Z2VNsdYGWXdmwxWS/1gdg7uHdd/+lkAAAAQFRx9hWQDGZjcAaWJLmcywiBRGxEgoUrW+ZPoAQAAACiaOLECe8TZ18BsRdaWP4zsCTJnPtgAUng8my68OQHKQEAAICouff4OdXmzpMHgQQISjxHeuEzsIwnEQJJ4dJn1x8/Zy9KAAAAIEomTRh/ljj7CkiEwYFgjM7AMs7AAhJkv4EJ1Z8kAwAAAKLiwVOO3Melz1ECSIQNB1zd9Vgpf8ALDrBChffSH0gS+8Sqpgb+ugUAAIBIGJ8a+qykKZQAEqHkJ0G98BlYgxPulhSyDIDEmBi4/zcZAAAAMNZWthwxw90+TAkgGVy+vNQ/4wUHWNmlHVskPcRiABLE/LSe5rqjCQEAAICxFBSG/1vSREoACfmdNhu7AZYkuWk5iwFI1nZFrm+TAQAAAGOl7+T6epOdRgkgQVxjO8AK3BhgAcnzyp7m+lPIAAAAgLEQpsPzJaUoASTqFztf6h+xwwGWLGSABSSR+7fvPX5ONSEAAABQTr2N9a+U2/GUABJlS82Ryx4p9Q/Z8SWEsjzLAUikF+0xofoDZAAAAEC5uGSh+XmUABJnuS0s/UMAd3wJ4cRghXgSIZBQ9sWVLbWT6QAAAIBy6GuuazHpWEoAiVOWq/d2OMCquaxzs+SPsCyARJocFOyrZAAAAECp+RnzquT6GiWABP5+l+n+6cHO/xMuIwSSyqQze5oaXkwJAAAAlFLvuoEPuDSHEkACBWE0Blju4kbuQHKlpPCnvnBXhtkAAADAyK1qPGyKTF+iBJBMaQVlOfFppwetgRkDLCDZXtLTVXc6GQAAAFCSg05LnydpCiWARNoyrb7robJsS3b6X4QhAywg4cz1zVWNh7FTAQAAgKLqOaV+nqR3UwJI6sGkVpTjCYTSLgywUlVaLslZKkCiTTFLf4UMAAAAKBaXzAP/ocTtKoAE/6KX7aSnnW5IpuXymyStZKkAyWbS+3tPqX0pJQAAAFAMPc117zLpWEoAST6QtOgMsLbpYqkAiReEgV3ADd0BAACwuza0zNvbXF+nBJD0g0jvLtvP2rX/zO5gsQDJZ9KxPZ1176IEAAAAdkf/8MCXJU2nBJBsQ+lU2eZFuzbAcmeABVQIk77Z19gwjRIAAAAYjd6W2sNl+iAlgMRbOyt35+py/bBdGmAF6YABFlA5JodW+B4ZAAAAMBpesB9KqqIEkHhlnRXt0gBreq7zIUkbWDZApbC3rW6uPZEOAAAAGInVTXVvlvQflAAqQJmv1tulAZZJLulOlg5QOczth2tbaidRAgAAALui58R5E006nxJAhRwzBha9AZYk7oMFVJ79hwvBV8kAAACAXVI18AVJBxACqAxhEJT1RKddH2AFPIkQqDz+kVWN9fPpAAAAgB1Z3dJwqKRPUAKoGJuytZ33lvMH7vIAyxQywAIqT5Ay/6mfMY+bcAIAAGC7XDIrhD+RVE0NoGIss4UKy3pwuqv/YU1Qe5ekLSwjoOJ2SBp61g1+nBIAAADYnt7m+veJG7cDFcXK/ARCaSRnYOVyBUndLCagAjdO5ueubKmdQwkAAAA809qW2hrJz6MEUFlC07Jy/8xghP89lxEClWlCqmCLXDJSAAAA4GmFgn1frn0pAVQW82BZuX/mCAdY3MgdqGD/0dNUdxYZAAAAIEk9jbWvd+nNlAAqzuDmrVvy5f6hIxpgWciN3IFKZtI3uJQQAAAA6046dE+Z/ZQSQEUeGC4/+Nr7Bsr9Y0c0wBqu2qtL0jBLC6hYe6QK9itfOOLLjwEAAJAgg+mq8yQdQAmg8piPze2lRnQQOit381bJulhcQEU7rrer/qNkAAAAqEy9jfWvNOkDlAAqk8tuGYufO4qzKPwfLC6g0rdY/vXe5sNrCQEAAFBZek6cN1HmvxAP9wEqVhiG8RhgmfktLC6g4lW7py7ylpYUKQAAACpI1eDXXOKeqEDl2jxj49TusfjBIx5guQIGWAAk+TG94V2fogMAAEBl6GtqOFbyD1MCqOTDQN1m118/JvdGH/EAK9PadbdMj7HUAMh9YV9jQx0hAAAAku3B0w8cHyr8lSTOwAcqmJndOlY/e+SXEEou160sNgCSqkPzS/2MeVWkAAAASPBO35N7fF3SYZQAKpubbh6rnx2M6g1L3MgdwNNbhKN6Hh34Ah0AAACSqffUugVyO5sSAIaHBuNzBpYkBaFxHywA/2LSF1afWvcySgAAACTL+uPn7OWhLh7tsSOARHl4/yV394zVDx/VRmi4KrxFkrPsAGyTtlC/Xn/8nL1IAQAAkBz9E6ovkHQAJQDYGF+NN6oB1qxcfoPk97L4ADzD7IHxE35ABgAAgGRY3VR7kslOpwQASXL3Mb0abzdOAzXugwXgOZsFf+fq5tq3EgIAACDeek48ZD+TLaIEgKeFCuJ3BpYkmZz7YAF4/rbB7cc9LbX7UwIAACDGxlX9QtJ0QgDYZnBo7yfvGMs3MOoBlocBAywA27OPhvVrb2lJkQIAACB+eptqPyi3kykB4BmWzb74of6xfAOjHmBlpo3rlLSFZQjgecxe0Rve9SlCAAAAxEtvS+3hLvsWJQA8+xhPY34bqdFfQrioY0iuW1mKALbL/Ss9zXVHEwIAACAeHjz9wPEq2OWSJlIDwLMO70K/eazfQ7BbH0D+VxYjgBdQZa7L15106J6kAAAAiL7qxyed51IDJQA8V6EwPObzn90bYKVSDLAAvPA2QpozVDXuO5QAAACItt7m+jfI9BFKANiOe/dfcnfPWL+J3RpgBQNVN0saZFkCeEHu7+ttrnsTIQAAAKJpzUl10939l5KMGgC2IxInL+3WACu7tGOLSR0sSwA74q6LVjUecQglAAAAIraftlBBIaVLJU2nBoAXcEMU3kSwuy/g7jewLAHsxKQgKPzm3uPnVJMCAAAgOvq66s+R6bWUAPDCCvE/A0uSLAj+xsIEsFOueXuMH38+IQAAAKKht7H+le7+JUoA2IGV2bYVD0fhjez2AGvclq03SiqwTAHslOkjPU11jYQAAAAYW32NDdNk+o2kFDUA7MD1UXkjuz3AmnLtfU/ItIxlCmAXmKRf9rU0zCYFAADA2PCFCkILf+3yLDUA7GSL8deovJMgaR8IQOTtExbC3+ZbaseRAgAAoPx6Ouu+JOk1lACwMwULI3Pf86IMsDwMuJE7gJF46T6hfY0MAAAA5bXq1IZXmXQOJQDsgt5ZrSvujcqbKcoAK0yHf5MUsmwB7CpzfWJ1Y/3JlAAAACiP1SfXzQrC8HJx3ysAu3LMJkXqaruiDLBm5fIbZMqzeAGMZHtogf+qp2nuAaQAAAAorXuPn1NtKV0haSo1AOwaT94AS5LMncsIAYxwe6h95cFlvmBBmhgAAACls8eE6h9IeiklAOwq81QyB1hu0Xm0IoA4bRXtFX2T13M/LAAAgBJZ3Vz3bsnOoASAEVg7vb0zUlfaFW2ANdQf/K+kAssYwEi5/FO9TbWnUgIAAKC4Vp1Se6S5fkgJACM8SrvOJI/SOyraAOuAq7sek9TBQgYwCuayX/Y01s0lBQAAQHGsbKmdHATWJmkCNQCM6ABNwZ+j9p6Cor6a688sZgCjtKdMv+87rWEPUgAAAOzmodmCBelUwX4raTY1AIxUQXZd1N5TUQdYJmOABWB31Pnm8BdkAAAA2D29Ux79jqTXUALAKKyY2da5KmpvqqgDrA3p8GZJm1jWAEbLpbesbq4/ixIAAACj09tc+065PkIJAKM8KPtTFN9WUQdYtbn8oKQbWNoAdoe5f7ensfY4SgAAAIzM6lPrXuZuP6MEgFEfj1k0bw8VFP+Tch8sALutSma5dU1zM6QAAADYNT1Ncw+wUO2SqqkBYJQGUymP5IlJRR9gWeAMsAAUQ82QUv/jCxakSQEAALBjK1vmT5ClWiVNowaA3XDztFw+kreGKvoAK5PLL5e0imUOoAj+o3ffdV8lAwAAwAtzyYLhJy+Wax41AOyWCF9VF5TiRV1+HUsdQHE2oPaZ1Y31JxMCAABg+3ob675qpjdRAsDuChReF933VorjTQVcRgigaJsUM79kZfPcg0kBAADwbL1N9afL9AVKANj9Iy89Nj2o/WdU315JBliB23WSnKUPoEj2TnlqyYaWeXuTAgAA4Ck9TfX/z+U/pQSAonD7i+Vyhai+vZIMsGraO9dK6mTpAyiiw/rD/kt8YWm2WwAAAHHS01x/mMwXiycOAiiWCN//SlLpDgRN9keWPoCicju5p7PuS4QAAACVrK+xYZrcr5FrX2oAKJYgsMocYLl0NYsfQLGZ9KXexvoWSgAAgEq0smX+BLdwsaTZ1ABQRN01uc4Ho/wGSzbAyqQOu0nSetYBAEVmbv7LvsaGOlIAAIBK4pKlhjdd5NJ8agAo7gbGr4r6WyzdJYS5XEFyLiMEUAqT3ML2h0+o57R5AABQMXqba78j87dSAkDRpVLXRP0tlvRmyG66irUAQEm2L9Kcqmr/nbe0pKgBAACSbnVT7afl9jFKACiBDZlHJ98c9TdZ0gHWcH/wB0nDrAsASuQ1PcMrvkEGAACQZD1N9W8z2XmUAFASrmvs+usjP7sp6QDrgKu7HpN0E2sDgFIx06d6m+pPpwQAAEiiVac2vEryX0kyagAoBZfH4iF8Qal/gBlPIwRQ8g3uT3qbal9CCQAAkCS9TbUvCcJwsaRx1ABQIsPDg0Es7l9e8gGWh9wHC0DJjXfZFX2NDdNIAQAAkmBlS+0cly2VNIkaAErGdeO2q+cir+QDrGx79wpJ97NWACix/UMLc37GvCpSAACAOFvXNDeTKujPkqZTA0ApmeJz1VxQlp/inIUFoCz+X++jAxeSAQAAxNWqxsOmDCn1J8kOpAaAUnMGWM8JEhgDLADlcmZvU90nyAAAAOJm/fFz9gosfa2kOmoAKIMHtl01FwtlGWBlp4y7QdLjrBsAysGlb61urn0rJQAAQFysbJk/YWD8+Csl8WAaAGViS+L0bssywLJFHUOS/ZmVA0C5tsTmdtGqxvr5pAAAAFHnZ8yrShWezMm0gBoAyrbtsfhcPiiV6x5YkszDpaweAMpoQmC+uK+lYTYpAABAZA8gW1pSvY8O/kbSCdQAUEaPbwzCv8bpDZdtgNXvVUskDbKOACijaWEhvObhE+r3JQUAAIgal6y3sOKnkp9KDQBl3gAtrc3lYzWjsXL+sJ6muj9Ieh1rCoAyb5yv98C+RggAABCpgzH3UyWdSQkAY6Ap29bdHqc3nC7vQaS3yowBFoAy7x1qgbkvIAQAAAAAaIuGqv8YtzcdlPWnDQ+1SxpmXQEAAAAAACg/d12VXdqxJW7vu6wDrOzSex6V60ZWFwAAAAAAgPILArXG8n2X+wd6YK2sLgAAAAAAAGXXnx4aujaOb7zsA6wwCNolhawzAAAAAAAAZWT+x6lL7n4yjm+97AOsWbk7V5t0C2sNAAAAAABAGXl8r4oLxujnchkhAAAAAABA+QwNDdhVcX3zYzPACtOtkpx1BwAAAAAAoAzMrzvg6q7H4vr2x2SAlVm87CFJd7D2AAAAAAAAlJ57vB+qF4zhz+YyQgAAAAAAgNIrBKmqJXH+AGM2wAo9dQXrDwAAAAAAQGm57IZM7o51cf4MYzbAmtl+5z0mdbIaAQAAAAAAlE5gHvuTiMbyEkK52eWsRgAAAAAAACUzbGEQ+9s4BWP708PfiKcRAgAAAAAAlISb/lDT3rk27p9jTAdY2Vz+EUk3sToBAAAAAAAUn3kyrn4LxjyknMsIAQAAAAAAim9LOhUuScIHGfMB1nBKv5U0yDoFAAAAAABQTL54Wi6/KQmfZMwHWLNy+Q2S/sxKBQAAAAAAUDyBJ+fheUEk3oXzNEIAAAAAAIAi2rA+7X9KyoeJxAArmGSLJW1i3QIAAAAAACgC0+9rc/nE3LIpEgOsmss6N8ttKWsXAAAAAABAESTsarcgOm/Ef8PaBQAAAAAAsNtWZhq6bkzSB4rMAGv61Oo/SnqUdQwAAAAAAGD0THa5LVSYpM8UmQGWLeoYkukKVjMAAAAAAIDRK4Rh4h6WF0Tq3VjAZYQAAAAAAACj5Vo+c3F+WdI+VqQGWJkrOm+UdD9rGwAAAAAAwMi57NIkfq5IDbBMcpNdwuoGAAAAAAAwYsOFwuBlSfxgQdTeUEH2K0kF1jkAAAAAAIBd56Y/7L/k7p4kfrbIDbBmtnWukvS/rHYAAAAAAAC7zkL9KqmfLYjim3LzX7HaAQAAAAAA7LL1m/v7r07qh4vkAGtwz83tMj3GugcAAAAAALAr7LKDr71vIKmfLpIDrNkXP9Qv6XesfAAAAAAAADsXenhxkj9fENU3ZgUuIwQAAAAAANgFt89sz9+Z5A8Y2QFWZnH+VpM6WQcBAAAAAABemJsl/iSgIOLv71JWQwAAAAAAgBc0aIMDv036h4z0AMs8uEzSEOsiAAAAAADA87lrcXbpPY8m/XNGeoBV0965VubXsDoCAAAAAAA8n6ky7iEe9UsI5WHAzdwBAAAAAACeb3UmffifK+GDRn6AlZ067hpJfayTAAAAAAAAz+C62HK5QiV81MgPsGxRx5BcF7FWAgAAAAAA/Etonv5FpXzYIA5v0kP9TFKBdRMAAAAAAEBy0zWZxcseqpTPG4sB1owru1e66VpWTwAAAAAAAClw/bSiPm983qj9hNUTAAAAAABAj9Sk5v6hkj5wbAZYNfVdf5D0IOsoAAAAAACocD+rlJu3Py02AyxbqFDSz1lHAQAAAABABRsaHh66uNI+dBCnN2upql9IGmBdBQAAAAAAlciktv2X3N1TaZ87VgOsTO6OdSYtZnUFAAAAAAAVKaism7f/+2PHjXMzdwAAAAAAUJHuqrmi+4ZK/OCxG2Bl2rtukCzPOgsAAAAAACqK6acmeSV+9CCW79p9EWstAAAAAACoIFsLgV9WqR8+lgOs8enqSyRtZt0FAAAAAACVwKTfzsrlN1Tw54+nnqa6X0h6D6swgJ1s5TokPUAIAAAQYa+Wa18yANjhoU3ox2QW52+t1M+fjusbDzz4fmjhuxXjIRyAsmzmF2Vbu7jsGAAARFZPU12HxAALwA6OaqSbK3l4JcX1HliSato7uyVdz2oMAAAAAACSLJQuqPQGQZzfvLtdwGoMAAAAAAASbHV2v+q2So8Q6wFW9oiupZLfw7oMAAAAAACSyN0utEUdQ5XeIdYDLFuoUGY/ZnUGAAAAAAAJtMU19AsyxHyAJUlVQ0O/lPQ4ixIAAAAAACTMJTPb71pPhgQMsKYuuftJmf+SRQkAAAAAABLE5bqQDE8JkvAhrFD1A0kFFicAAAAAAEiIa7Pt3SvI8JREDLAyi5c9JGkJixMAAAAAACRCoAuI8MwcCWFuLFgAAAAAABB/ruWZK7r/TIh/S8wAK9PedYOkf7JIAQAAAABArAV2gUlOiGckSdKHMfMfskgBAAAAAECMbQgm2v+Q4dkSNcDatGXgt5L6WKwAAAAAACCmflZzWedmMjxbogZYB19734BMnIUFAAAAAADiaGB4eIi5xnYESftA44PqH0p6nEULAAAAAADixS/Zf8ndPXR4vsQNsCbnOh53089ZtAAAAAAAIEYKBQu/TYbtC5L4oaoC/46kfhYvAAAAAACIBVPbrNYV9xJi+xI5wJqWy/dJ4o79AAAAAAAgFgKF36HCjvoklKeCb0kKWcQAAAAAACDirqtpXX4LGV5YYgdYM3Kdd8u0mEUMAAAAAACizM3Op8KOBUn+cOZ+HosYAAAAAABElmlZtrXrL4TYsUQPsDJt+dsk/R+LGQAAAAAARJGF9nWTnBI7FiR/TXBOwwMAAAAAAFH0QE36sDYy7FziB1jZ1vwfZepgUQMAAAAAgGixb1ouV6DDzgWV8CHd9S0WNQAAAAAAiJA1hdSkS8mwaypigJVNzb1C0v0sbgAAAAAAEBEXzMrdvJUMu6YiBlhPnY7HEwkBAAAAAEAkbBwI0z8hw64LKuWDZvYbf4mkB1nkAAAAAABgLJnsu7MXL9tIiV1XMQMsW9QxJDPOwgIAAAAAAGPp8f4wdSEZRiaopA+bmTLuV5I/xGIHAAAAAABjwYyzr0ajogZYtqhjSG7ns9gBAAAAAMAYeHywX5x9NQpBpX3gzNTqizgLCwAAAAAAlJtL3z/g6q7HKDFyFTfAskUdQ2b2TRY9AAAAAAAoo8eHB+wCMoxOUIkfekPgF0l6mMUPAAAAAADKwd0v4Oyr0avIAVZtLj9o7t9i8QMAAAAAgJJzPRGmxdlXuyGo1A++qX/gF5JWsQoAAAAAAICSMr9gVi6/gRCjV7EDrIOvvW/AJe6FBQAAAAAASmmThoZ+QIbdE1Tyhx/ca9PPJa1mNQAAAAAAACXhuiC79J5HCbF7KnqANfvih/rlnIUFAAAAAABK4slQw98jw+4LKj3AY2n/qaQHWRUAAAAAAEAxufTdme13rafE7qv4AVZtLj/opv9mVQAAAAAAAEX06Pit/d8lQ3EEJJCywdxLJK2gBAAAAAAAKAqzb0y59r4nCFEcDLAkWS5XMPmXKAEAAAAAAHaXyXoKwaSfUKJ4GGBtU9OWb5XsFkoAAAAAAIDd4QrPnZW7eSsliocB1jYmuQLOwgIAAAAAALvl3syGqReTobgYYD1D9oruP7nsfykBAAAAAABGw0zn2PXXD1OiuBhgPTdIGH5OklMCAAAAAACMhEmdNfXdV1Ci+BhgPUdmcf5Wky2lBAAAAAAAGJHQPmsLFRKi+BhgbYe5fUFSgRIAAAAAAGAX3ZhZ3HUtGUqDAdZ21LR3dkv6DSUAAAAAAMCuMLdzqFA6DLBeaMUL01+SNEAJAAAAAACwE1dn2rtuIEPpMMB6AZnFyx4y+c8pAQAAAAAAdiAM3b9AhtJigLUDwymdK2kDJQAAAAAAwAv41cz2/J1kKC0GWDswK5ff4PLzKQEAAAAAALZjU5UKXyRD6THA2omNKX1f0v2UAAAAAAAAz2Rm35ratqKXEqXHAGsnanP5QXfnSQIAAAAAAOBfTNZjE+07lCgPBli7INue/52kmygBAAAAAAC2+ULNZZ2byVAeDLB2gUkeKPikJKcGAAAAAAAV786ahq5LyVA+DLB2UU1b5z8ka6UEAAAAAACVzV2fsoUKKVE+DLBGEitln5Y0QAkAAAAAACqTSUtntHf/mRLlxQBrBGpynQ/K/UeUAAAAAACgIg3Lws+RofwYYI3QgFd9VdJ6SgAAAAAAUFnc7GeZ1uV5SpQfA6wRmr142UaZvkoJAAAAAAAqypPpIWceMEYYYI1CZkr1jyXdSwkAAAAAACqDu31t+pLuNZQYGwywRsEWdQwFro9TAgAAAACAinD/4N5PXkCGscMAa5Rq2ruvknQ1JQAAAAAASDaTzp598UP9lBg7DLB2QyrU2ZJYgQEAAAAASCrXnzJt3ZzAMsYYYO2G6Yu775f0PUoAAAAAAJBIg6FSHybD2GOAtbuGqv9b0sOEAAAAAAAgcb49s/3Oe8gw9hhg7abs0o4t7v5ZSgAAAAAAkCir0in/BhmigQFWEcxoz/9W0v9RAgAAAACAZHDpk9Ny+U2UiAYGWEViFn5Y0hAlAAAAAACIvRuzbd2/J0N0MMAqkkzr8rxMP6EEAAAAAACxViiYPmSSkyI6GGAVUfWW/i9K6qMEAAAAAAAxZfrRrNbuTkJECwOsIppy7X1PuHQOJQAAAAAAiKW1A4X0uWSIHgZYRZZt6P6VZLdQAgAAAACAeHHp87MXL9tIiehhgFVktlChzM+SVKAGAAAAAADx4NI/njopBVHEAKsEsq3d/zTpx5QAAAAAACAWhj30D9hChaSIJgZYJZIeHvqCpFWUAAAAAAAg2kz23ZmL88soEV0MsEpk6pK7n5T5RykBAAAAAECkPZJKhV8lQ7QxwCqhbGu+1WRLKAEAAAAAQDS5+VnTcvlNlIg2Blil/kVIhR+WxC8CAAAAAABRO2Z3/X5Ga34pJaKPAVaJZXP5R8z1ZUoAAAAAABAhrifCdOrjhIgHBlhlUPPYft+X7A5KAAAAAAAQDWb+uVm5O1dTIh4YYJXjl+L664dN4ZmSCtQAAAAAAGDM3VaTOvxnZIgPBlhlkmnL3+ZmP6UEAAAAAABjatgtPNNyOU4yiREGWGU0fsvWz0vi9EQAAAAAAMaIu743o3U5t/mJGQZYZTTl2vueMLePUQIAAAAAgDHxSFXav0KG+GGAVWaZ9q6cSTyiEwAAAACAMjOzD0zL5TdRIn4YYI2BtApnyvQYJQAAAAAAKBO3SzKtXdcQIp4YYI2BqW0rel36JCUAAAAAACiLvkI6/DgZ4osB1hiZ0dr9S8n+QAkAAAAAAErM9aFZufwGQsQXA6wxVEgF75W0kRIAAAAAAJSGSb/Ntne3USLeGGCNoVm5O1eb6fOUAAAAAACgJB41D84mQ/wxwBpjNa3dP5X0Z0oAAAAAAFBcLp1V0965lhLxxwBrjJnkFqbPkMRjPAEAAAAAKN7x9tIZbd2/o0QyMMCKgMziZQ/JdA4lAAAAAAAoiseHU6kPkCE5GGBFRKa++0K5/40SAAAAAADsHnP/yKzcnaspkRwMsKLyy7VQYaj0eyVtpQYAAAAAAKM9wPZrM+35SwmRLAywImRm+533uHwhJQAAAAAAGAXXEz5sZxIieYwEEftda2lJ9RVW/M2l+dQAirKZ+4NZeCcdAABAZI8B3E6XNJ0SQBF+n6T3zmjrvogSCTyyI0H0rGmuP6jgvkzSntQAAAAAAGDnTLYk09Z1MiWSiUsII2h6a9cDcn2aEgAAAAAA7JJ1wbCfQYbkYoAVUdn27p9KupoSAAAAAADshPkHpi/pXkOI5GKAFeWF48G7Ja2lBAAAAAAAL+iibGu+lQzJxgArwmraO9fKeHoCAAAAAAAv4MHqrf0fJ0PyMcCKuGxr12JJl1ECAAAAAIBnCc3tXVOuve8JUiQfA6wYGJ+q/rCkhykBAAAAAMA27t/MtHfdQIjKwAArBibnOh5XEJwmKaQGAAAAAACWH9h785fpUDkYYMVE9orOv8n8AkoAAAAAACrcQMH8bbMvfqifFJWDAVaMbN4y8DmZuigBAAAAAKhUJn1hVmt3JyUqCwOsGDn42vsGXOE7JQ1SAwAAAABQgW6oaej+HhkqDwOsmJnRuvwOM51DCQAAAABAhdkoFd5pC7k/dCVigBVDNa3d33bTVZQAAAAAAFQKl96fbVvxMCUqEwOsGDLJU2HwHkm91AAAAAAAJJ1LP57R1v07SlQuBlgxVdPeuVaBTpc4dRIAAAAAkGSWD1N7fpIOlY0BVoxlr+j+k7u+QwkAAAAAQEL1F8zfNit381ZSVDYGWDGXfWy/z7v0D0oAAAAAABLH7OxZrd2dhICRIP7WNNcfVAj9Dpn2ogYAAAAAICFas23dp5IBEmdgJcL01q4HLND7KAEAAAAASIiVhZSfQQY8jQFWQmRau3/v8ospAQAAAACIuWGXv3VWLr+BFHgaA6wESe2ROkvSXZQAAAAAAMSWaeGMtvxNhMAzMcBKkJrLOjcHBXuTpH5qAAAAAABi6IZMMPc8MuC5GGAlTM2VXV0ufZoSAAAAAICYWTs8PPQ2y+UKpMBzMcBKoBlt3RfK9WtKAAAAAABiIlSg0/ZfcncPKbA9DLASKp32D0haQQkAAAAAQOSZvpS9ovtPhMALYYCVUNNy+U2BB2+StJkaAAAAAIAIuyZT3/0NMmBHGGAlWE17Z7ebv48SAAAAAICIWqmhwXfaQoWkwI4wwEq4Ga35yyX9jBIAAAAAgIgZ8kBvyS6951FSYGcYYFWAzVv7z5apgxIAAAAAgKgw+UdnXNH9d0pg19YXVISeprkHSKkOSVOoAQAAAAAYSyb9LtPW/RZKYFdxBlaFyLateNikd0pyagAAAAAAxozr7nFb+88gBEaCAVYFybR1Xy338ykBAAAAABgjmy3tTVOuve8JUmAkGGBVmEz68HMkXUcJAAAAAMAY+EAml19OBowU98CqQGtbamuGC3a7pAw1AAAAAADl4GY/mtHadRYlMBqcgVWBpuXyfYGCJkkD1AAAAAAAlMHfNwbhx8mA0eIMrArW21z7Tne7mBIAAAAAgFIefg4PDx29/5K7e0iB0eIMrAqWac1fIuknlAAAAAAAlEi/hX4KwyvsLgZYFS6zX/XZkm6gBAAAAACg2Nz0oczi/K2UwO7iEkJozUl10wtp3SZpFjUAAAAAAEXhuiDb3v1RQqAYOAMLmr6ke41beLKkLdQAAAAAABTBjY+l/dNkQLEwwIIkaUbr8jtkOpMSAAAAAIDd9Iilqppqc/lBUqBYGGDhX7Kt3b+W7PuUAAAAAACMUr9MzZncHetIgWJigIVnyaQO+6SkP1ICAAAAADBSJvtAtrX7n5RA8dct4DlWttROThXsNkkHUQMAAAAAsCvc9a0Z7d3c9wolwRlYeJ5ZufyGMPRmSZupAQAAAADYBX/Opud+jgwoFc7AwgvqaaprlHSFGHQCKPu3k31C0iZCAMBI+evkaqIDgDK7ayBMz5+9eNlGUqBkhwgkwI6sbqz/jJmfRwkA5VSlQnZq24peSgDAyPQ213/J3b9MCQBltL5ghfmzWlfcSwqUEmfWYIdmtHedL/kiSgAop0KqajwVAGDk3L2aCgDKaMjkLQyvUA4MsLBTmf3Gn+Wy/6UEgHIJQw7AAGBU3PkDAIBybnM+lGnL/x8hUA4MsLBTtqhjKEyFLZKYqgMoi7AQcgAGAKM5ljRj+wmgXL6ebc//nAwoFwZY2CWzcvkNngpOlOkxagAotXSQ4gAMAEazc+9i+wmg9ExtmYbuLxICZf2OIwF21Yxc591yO0XSIDUAlJIHnIEFAKPafhqXEAIouduDicE7bKFCUqCcGGBhRLJtXX+V+1mUAFDiI7CJRACA0bAJNABQQquGh4dOrLmsczMpUG4MsDBi2fb8z+X+XUoAKJ1wKg0AYFSmkwBAiWwxedP+S+7uIQXGAgMsjErmiPynZH4lJQCUQhgGNVQAgFFhgAWgJLtn7va2TFv+NlJgrDDAwqjYQoXpQG+XaRk1ABR9GxOEHIABwOiw/QRQgp0z+9SM9i5OYMCYYoCFUZuWy2+q8sIbJH+IGgCKyjkAA4CRWttSO0nSJEoAKLKfZFu7uIUMxhwDLOyWqW0reuX2BkkbqAGgWFxcQggAIzUgse0EUFQmW5JJzf0wJRAFDLCw27Lt3SsCC98gaQs1ABRlZ8mdgzAAGOmOfYGzVwEUkfvf+vd68s2WyxWIgUh8z5EAxVDTuvwWmb9DUkgNAEX4dsoQAQBGxowzsAAUzYpCWqfMvvihflIgOocIQJFkW/Otcn2IEgB2m2vfVY2HTSEEAIxk22mHEAFAEfRKheNn5fLcJgaRwgALRZVt7/6pu75FCQC7y1LpQ6kAACPgxnYTwO560i08Idu24mFSIGoYYKHosu3dn5F0KSUA7N6BmA4jAgCMgLHdBLBbhhTo1Bmty+8gBaKIARZKsO8kz+xX/V5Jf6YGgFF/QXEmAQCMkLPdBDDqDYiZvy97RfefSIHIHh+QAKVgizqGqrf2nyrTMmoAGN1eVMiBGADsorUttTWS9qEEgNEdwNnnM635SwiBKGOAhZKZcu19TwwPDZ0gieunAYwcZ2ABwC4ruHH5IIDR7nQtyrZ2nUcHRB0DLJTU/kvu7jELT5C0nhoARuhF9x4/p5oMALArx5+aSwQAo9CaSR3+QTIgDhhgoeQyrcvzJj9e0pPUADACVXtOmHgUGQBg50L3l1IBwEiY+182b+3/L8vlCtRAHDDAQllk2vK3mfxkSf3UALDLB2QWHkMFANiFA1HZsVQAMIKtxi2ptE45+Nr7BmiBuGCAhbLJtOX/z+VvljRMDQC7JDQGWACwExta5u0t6RBKANhF3YVU+IZpufwmUiBOGGChrGa05ZfI9C5JITUA7JQ5ZxQAwE5sHR54Kfv1AHbR/VUqvHZWLr+BFIgbvuhQdtnW7l+b+0coAWAXzF5zUt10MgDADnbojcsHAeycyXqCVPCaqW0reqmBWH7fkQBjIdOe/5G7f4USAHZmOO1cRggAO+BiOwlgpzYWwvCEmlzng6RAXDHAwpiZ0Z4/1+Q/pASAHX9RBS+nAgBsny9UIIkzsADsyKbAwtfPXJxfRgrE+7gAGEM1bfmPmOuXlADwggdn5q+lAgBsX9+y2qMlTaEEgBcwKPeWmtblt5ACcccAC2PKJK9Jzz1DUis1AGyX64h1TXMzhACA7UgFrycCgBdQMLe3Z9vzfyAFkoABFsac5XKFQmrP0+S6nhoAtreZGLaAs7AAYDvc/XVUALD9zYO9L9PelSMFkoIBFiJhVu7mrRquPkHSDdQA8Lw9sDDgAA0AnuPhE+r3lfRSSgB47q6Tyc+a0d71K1IgSRhgITKySzu2BHsEJ8j9b9QA8Czmr9l2o2IAwDbjxvtrJKUpAeBZu02mz2Ta8j+mBJKGgwFESs1lnZvHp8efKOk2agB4hv223agYAPC0UJydCuDZzD6Xae3+FiGQRAywEDmTcx2PD4Tp18rUQQ0AT/PATqYCAGzbJra0pNx0AiUA/IvpnGxr13mEQFIxwEIkzV68bKMGB18vqZsaALZ5i0tGBgCQen3FqyRNpwQASXLpy9nW7q9RAknGAAuRlV16z6OBB6+Sazk1AEg6aE3z4dysGAAkWai3UAGAJMn9uzPauhcSAknHAAuRVtPeuTZV0H9KWkENAKHszVQAUOnyLbXjXOKyagCS64Jse/4ThEAlYICFyJu+pHtNqOC1ku6nBlDpO2n2Fm9pSRECQCXbZzg4XtJkSgAVzuznmfbujxEClYIBFmJhZlvnKi/oPyQ9SA2gomX6fMUryACgoo9ZJc5GBSp9O+D6Zaa+6/0mOTVQKRhgITZmXNm9MhXqNZJWUQOoXB76W6kAoFKtbamdJPMTKQFU8L6Q/OKaI7rfZwsVUgOVhAEWYmX64u77pcJxkh6gBlCp7G3rj5+zFx0AVKLhQvBfkiZRAqhYF2Ub8u9heIVKxAALsZNtW/GwUv4fJt1HDaAiTRoYP/5tZABQmfwMGgAV+/u/KNPQfQbDK1QqBliIpWwu/0gq5a+Qazk1gMpjpg9QAUClWdVYP1/SiykBVKSfZNry72d4hUrGAAuxNS2X70sV9J+SuqkBVBaXGlY31b6cEgAqasfdnOE9UIn7PaZvZ9u6P8gN21Hx34MkQJxNX9K9JvDgVTJ1UQOoLCbjQA5AxVjVeNgUSS2UACpsf8f8/Bmt3Z+iBMAACwlQ0965dqjfXinpNmoAFaWlr7FhGhkAVIJUkH63pPGUACqHmZ+fac1/lhLAUxhgIREOuLrrsYEw/VrJbqEGUDHGeeDvJwOApPMz5lW5+wcpAVTUb/4XGV4Bz8YAC4kxe/GyjeNT415n0s3UACpk18797HUnHbonJQAkWd+jg/8l2YGUACpj90buH8+25f+bFMCzMcBCokzOdTxuewSvkfR/1AAq49d+OF3FI+UBJPdIdqECd+f+N0CF/MrL9dFse/57pACejwEWEqfmss7N6ZSfJNf11AAqYU9Pn3jw9AO5LwyAROrrrG2S6XBKAIkXyv3MbHv3D0gBbB8DLCTStFx+0+b+/tfL1EYNIPEy1Y9POp0MAJLIzbgHDpB8w2b+7mx7/uekAF4YAywk1sHX3jeQCea+yaRfUQNIONOnfcGCNCEAJEnvKfXHyzWPEkCibbHQTsq05i8hBbBjDLCQ7GPaXK5Q09D9XpP/kBpAos3u2Xf9aWQAkBQumQL/IiWARHtc7q/LLO66lhTALhzfkwCVYnVj/WfM/DxKAMn9NddQ9SHZpR1bSAEg7nqbak91WY4SQGKtdQtfP6N1+R2kAHYNZ2ChYsxo7zrf3M+SFFIDSOavuaoGziYDgLjzM+ZVuezrlAAS65HQU69geAWMDAMsVJRMe/5HMr1T0jA1gET63JqT6qaTAUCc9Tw68H5JB1MCSKS7vKDjZrbfeQ8pgJFhgIWKk23t/rWbN0nqpwaQOHsWqvR5MgCIq3UnHbqnSV+gBJBIt1uq6v/NuLJ7JSmAkWOAhYo0ozW/1AIdL9cT1AASxvWBlc1zOXMBQCwNpdKfl8SZpEDy/HV8qvo/M7k71pECGB0GWKhYmSu6rzf310jaQA0gUapSnvoGGQDETU/T3ANkxr38gIRx01WF1J6vn5zreJwawOgxwEJFyyzO32oW/j9JnMYLJEtzb3P9G8gAIE5MqQslTaAEkCiXZqdUN83K3byVFMDufk8C0LqmuZkhS10j15HUABLj4WCPoLbmss7NpAAQdT1NdY2S2igBJOpo+weZ1u6PmuTEAHYfZ2ABkqa2rehNB/4KSX+kBpAYB4SbCueQAUDUrTvp0D0l/YASQGIUTP6hbGv32QyvgOJhgAVsMy2X3/RYyk+S/DfUABLC7JOrGmuPIASAKBtKj/uKpJmUABKh3+RvybTlf0wKoMi79iQAns0l62mqO9ekc6kBJOKr7pZMQ9fLbKFCWgCImpXNdQ0pV4ekNDWA2Nsg95Oz7fkbSQEUH2dgAc891JV8Rlv3Qpk+KnHAC8SfH9PXVXcmHQBEbuu0YEE65bpIDK+AJHgg9NR8hldA6TDAAl5AtrX7AkmnSuKJIUDcDxJd31rVeMQhlAAQJT37rvuipKMpAcSbSZ2FVOr/zWy/8x5qACX9XQOwI31NDceGCpdK2o8aQKy/8ToyU6rn26KOIWIAGGs9zXVHy/V3SVXUAGLtuuqt/c1Trr3vCVIApcUZWMBO1LR1/sNS/kpJD1MDiDHXvL5HBz5PCABjre+0hj3k/j9ieAXEfN/CLsnsV/0GhldAeTDAAnZBJpdfXkilXi7pTmoAMd7PlM7pPaX2pZQAMJbCzYXvSsZlzUCMdync/SuZ9q53cWY3UD5cQgiMwNqW2kmFQvA/Lj+JGkBs3Z9O+ZHTcvlNpABQbj2Nta+X2TXshwOxNWjmZ2Ra85eQAigvzsACRmBaLr+pJnVYk2TfpwYQWy8aLvA7DKD8VrYcMUNml4jhFRBXj8r9VQyvgLHBlycwSj1Nte+V7Mfi/hVALLn03hlt3RdRAkBZtjlnzKvqXdf/F5m9ghpALN3rqeDEGbnOu0kBjA3OwAJGKduW/4WbvUHSRmoA8WPSD3ua63h8PYCy6Ht04DsMr4DYum4gTL+U4RUw5vvvAHbHyua5B6fC1FKZDqUGEDuPaGhwXnbpPY+SAkCprG6qe7NJv6UEEEu/yOxX/UFu1g6MPQZYQBGsbKmdnCpYm6RXUgOInesyqbmvt1yuQAoAxba6peFQGw5vlWkvagCxUnC3L8xo7zqfFEA0cAkhUASzcvkNm7f2v07SZdQAYufVfYUV55ABQLGtO+nQPa0QLmZ4BcTOJjdvZHgFRAtnYAFF1tNcd7Zc3xUDYiBOXLK3Z9u6fkMKAEXZqLS0pPoKd7W5/CRqALGyWqGdnF3c1UEKIFo4wAaKLNvafYG5vUXSVmoAsWGSX7SqsX4+KQAUQ2+44ocMr4DYua1KhZcwvAKiiQEWUAKZ9q5cGPrLJH+IGkBsjA/Ml65snnswKQDsjt7muk/J9X5KADHidrmGqhdMbVvRSwwgmriEECihVY2HTUkp9Ts3exU1gNi431JV8zO5O9aRAsBI9TTXNsvt9+IPxUBccLN2ICYYYAEl5gsWpPumrPtvd/sMNYC4/OL63zb3D7zm4GvvGyAGgF3V01x3tFw3SJpIDSAW1rvZW2a0dl1HCiD6GGABZbK6sf5dZv4TSdXUAGLxBfnbmobu/7KFCqkBYKff8y0Nh1oh/JukqdQAYuHOIBU01uQ6HyQFEA+c2gyUyYz2rl9JwcskPUINIPpcektPZ+1Fzh97AOxET0vt/lYI/yiGV0AsmPS7YI/g5QyvgNj97gIop96Wo6b68NDvZVpADSAWX5QXZtq6P0IJANuzsuWIGalC4a+SDqIGEHnu0leybd1fNsnJAcRuvxxA2b85FyxI90559DtycVAMxOPr8r+zbV1fpAOAZ+o58ZD9lB53g0yHUwOI+g64nnDz02a05ZcQA4jpHjkJgDHc8W2uP0PuF0oaRw0g8j6fbev+BhkASNKGlnl794cDf5FrHjWAiHPdrcBOybZ23UUMIL4YYAFjrKex9jiZ5STVUAOI/LfmR7Ot3RcQAqhsG1rm7b21MPAHk46lBhD57+62qqGh06cuuftJYgDxxk3cgTGWbc/fGHhwhLn/hRpAxLm+39tUdy4hgMr18An1+/YXBv/I8AqIvGGXvpyp725heAUkA2dgAVE5Ll6wIN0z+dFzTPqiGC4D0f7yND8/05r/LCWAyrLmpLrpYVp/cqmBGkCkrQ2D4G0zr+jkD8RAkvbBSQBEy+rm2hNNdolc+1IDiLSfZBq6z7KFCkkBJF9PS+3+Kth1kg6mBhBpf61S4S1T21b0kgJIFgZYQBR3kpvmHiClcpJeQg0gwly/zjy237vs+uuHiQEkV19Lw+ywEF4n6SBqABH+VjZdmJlS/Ulb1DFEDiB5GGABEbWyZf6EVOHJCyW9hxpApL9If7sh5e+szeUHqQEk8Pu4ua4h5fqjeNgKEOUv48dc/s4ZrfmlxAASvd8NIMp6mupOk/RTSROpAUTW3zU0eHJ26T2PkgJIjtXN9a829ysk7U0NILKHtHekQm+Zvrj7floAycaNooGIy7Z1XybX0ZJWUAOIrJdZ1bibVzUecQgpgGRY3Vz3bnO/RgyvgCi7rJCa9HKGV0Bl4AwsICbWnXTonkNVVRfJ1UINILLWy/2UbHv+RlIA8eSS9TTVnWvSudQAIqvfpbNmtHVfRAqgcjDAAmK2U93bWPtRmZ0naRxFgEjaKvPTsq35VlIA8fLg6QeOH//EpItdejM1gMhaEXjwppr2zm5SAJWFARYQQz2n1M9T4JeLR3kDURXK7AuZ1q7zTXJyANG3tqW2ZrhgV0h6OTWAyPqFhqrPzi7t2EIKoPIwwAJiat1Jh+45lK76kaTTqAFE9kt2aX+Yfsfsxcs2UgOIrtVNtS8PFPze5VlqABHkesIDf/+M1vzlxAAqet8aQJz1Nta3uPkiSftQA4jkXvc9gaeaudQBiKae5voz5H6huDQfiKrbUqHeyo3aATDAAhKg95QjDwyD4ctNOpYaQCRtMrd3Z9q7cqQAomHb/a5+7NK7qAFEkst0YWZK9SdtUccQOQAwwAKS8g2/YEG6Z/Kj55j0RUkBRQB2xAFsX09L7f4qWKuko6kBRNJaub8z257/AykAPI0BFpAwq5vrX23ul0rKUAOIHpf+kQ71di6FAMZGb2N9iwf+M7n2pQYQSX9Op/wd03L5PlIAeCYGWEAC9TU2TAvNL5H89dQAIsj1hAJ9KNva/WtiAOWx/vg5ew1MqP6WZGdQA4ikIZe+nm3o/ootVEgOAM/FAAtI6vHxQgW9nXWfkfRlSVUUASLp0uqt/R+ecu19T5ACKJ1VjfXzA/P/kTSbGkAk91zvkVJvzbZ13k4LAC+EARaQcCub6xrSrstcaqAGEEkPy/3t2fb8jaQAinxI3NKS6hm+65Nm/lXxxxwgqi5Lp/yD03L5TaQAsCMMsIAKsLJl/oR04cnzXTqL33sgkobd/esb0/pabS4/SA5g961uaTjUCuEvJb2MGkAk9Vpo78ks7rqWFAB2BQeyQCXtzD91g/dfSZpJDSCS7jW392Xau24gBTA6vmBBunfKox+S6+uSJlIEiKRWDQ2+P7v0nkdJAWBXMcACKsyGlnl79xf6v8lNbIHICiX/RTqlT3A5BTAyK5vrGlKuiyQdTQ0gglxPKLBPZVu7FhEDwEgxwAIqVG9jfYub/0TSFGoAkdzLf0iBnZm9ovtPtAB27MHTDxw/7olJnzXpc5LGUQSIpL+nQr1j+uLu+0kBYDQYYAEVbGXLETNSw4VfyvRaagCR5C6/JOWpz9S0d64lB/B8T10eH/5IskOoAURSv0nn1DR0f88WKiQHgNFigAVU+tGxZL3N9e+T+3cl7UERIJI2utt5G9Ph97jJO/CUVU0NMwOFX5d0GjWAyOoOQz9t5uL8MlIA2F0MsABIknqa6w+T+6WSXkINIKJcyz2ws2e0dl1HDFTs99WJ8yZ6uv8zZvYpSRMoAkRSwcy/vSHQl/jDC4BiYYAF4N/HxgsWpHv2Xf8JM18oaTxFgIj+rpquSsvOnt7a9QA1UElWN9eeaK4fSHYgNYDIHmDe57L3ZNu6/koNAEXevgDAs/W21B4eFuwik46lBhBZWyV9fyBMf3P24mUbyYFEfy+dUvtSNztfpgXUACJrWNK3Bvba9JXZFz/UTw4AxcYAC8B2+UIFvV317+XeWEDkv8kfc9cPxg0PfWfqkrufJAiSpKexbq4CfVmuU9lvBSKt2+TvzrTlbyMFgNLt9gLADqxprj+o4P4LSf9BDSDS1rnbd7b0b/3+wdfeN0AOxNnqk+tmWcrPkew9klIUASJryMy/u2nLwLl89wAoNQZYAHbKFyro6az7kElflzSJIkCk3S+3czNHdF3O48oRN2tOqpsepvUFl86UNI4iQKSPJDsK0rtntXZ3EgNAeTY7ALCLek858kAPhn8u6dXUACLvfpku3Lyl/6f8VRxR19NSu79C+4Rc75U0kSJApA2Z+Xdrpoz/oi3qGCIHgHJhgAVgRFyyvsba09zse5ImUwSIvEdk+q4Gq3+eXdqxhRyIkjWn1L2okNJH5DpTUjVFgMjvB/7DXO/OtnevoAaAcmOABWBUVp9cN8vS/jO5HU8NIBbWyXTBQCH9I55aiLHW01x3tFyfldQoKaAIEHlbZPbFTHDYBZbLFcgBYCwwwAKwW1Y31r7Fnjobq4YaQAy4npD8Fym3H09f3H0/QVC2VW+hgp7O2jea7MPiUnQgTq4JUsFZNbnOB0kBYCwxwAKw2za0zNu7Pxz4ilwfEk+LAuIilPS/5raoJn1YG39RR4m/I06X62xJsykCxEafuX8m056/lBQAooABFoCi6WlqeLEsXCTXPGoAsXK/u/3cNfSLme13rScHimF18+FHmdv7JXu7uDE7ECcu6deFlH90Vi6/gRwAooIBFoDi7vGcMa+qZ93gx838SxywALGzWdLlLr8425b/uz11EAPssnUnHbrnYFVVi7neI+llFAFid3DYaQrOrGnr/Ac1AERwGwUAxdfX0jA7DAs/4ibvQGw9YuaXBwoWTW/teoAceCG+UEHvnbUvk+k0yd4maRJVgNjZ6tI3N6b867W5/CA5AEQRAywAJbW6ufZEc/uxpJnUAGIplHSzzC5NB+FvpuXym0gCSeppqd3fh4O3mvkZkg6iCBBb11iY/lBm8bKHSAEgyhhgASi5B085cp/qYPjrks4Uj0sH4myTSVdJ3upD46/JLu3YQpLKsqa5/qBQ3uxuzZK/lH1JINZ6ze3sTHtXjhQA4oCdDgBl09fUcGyo8EeSXkwNIPa2yPQHubWOT427enKu43GSJFNPY91cBWrSU0OroygCxN6wTD8eH1R/iW03gDhhgAWgrHyhgt7O+vdJ/jVJUygCJMKApOtcag9TqT/Myt25miQx3k63tKTWhPmjQ7cT5NYs0+FUAZLyC67rg9A+UnNlVxcxAMQNAywAY+LhE+r3rRrvC+X6kKQURYBEeUDy69x01eCem/88++KH+kkSbX2NDdNc/kq38NWSnSgpQxUgSQd91iMPP1fTnr+MJ8wCiO+2DADG0KpTao8MArtQ0nHUABJpi6Tr5fqjpf26mlx+BQdPY6/nxHkTfdzgyxT6awPT61xqoAqQSAOSvhvsEXyt5rLOzeQAEGcMsABEwranFf5I0ixqAAnmekKmW126SWY3Du755I2coVV6fY0N0wpB4ZhAerm7HSfpaEnVlAES7Tq5PpJt715BCgBJwAALQGSsO+nQPQerqr5krrMlVVEEqAj9cr9NZn9z83+4p+6Y2da5iiyj52fMq1q9tr/WUvbiwHWcy18u2SGUASrG/YHrozXt3VeRAkCSMMACEDkrm+cenPLU9yW9gRpARdooKS9Th4XeocA7aoLauyyXK5Dm2da21E4aHgoONQtrPbB5cs3TU096nUAdoOJscelbg3ttOo8zWwEkEQMsAJHV01TXKOnbkg6iBlDxNkvWLfndMt1j0r2hwnurArt3Wi6/Kekf/pGTDs1Wjas6xAt+sMsONtPBkh8u2RxJAasHUNHcpN+HBX1qxpXdK8kBIKkYYAGItHuPn1M9acL4s1w6R9I+FAHw/J0Z63H3e2S6z8xWhvJVQcF6zWzlsAZ7Z7bftT7SR55nzKta/ejQdLnPCuQZSTMt8GwY2mwzO1jygyVNYkkD2M7B3M0Ft0/MbO+6mRoAKmCbBwDRt6rxsCkpS5/r0vvF/bEAjEy/pNVy75EFa2R6zEPfaKaNJt/oCjaaaWNovjEw3xiEQb8keWibBgZ9SJLCqU9u3d4lOeuPn7PXpmBCSpLSaZ+UTluVJA2rsHfgto/L9nG3fUzhPi7tY4HtI9c+Ju3rpqxcWUnTxVlUAEbmQZc+l23r/j1PdgVQKRhgAYiVlc1zD04p9TW5WqgBAAAqzCaXvsN9rgBUIgZYAGKpr6nhWFf4XZfmUwMAACTcsOS/TA3bl6Yv6V5DDgCViAEWgNhyyfoa6091C78p2YEUAQAACXRd4MHHato7u0kBoJIxwAIQeytb5k8Ihjd9xOSfl2kvigAAgNhzLbfAPpVp7bqGGADAAAtAgqxtqa0ZLujLkr1bUpoiAAAghla627nZI7ousYUKyQEAT2GABSBxek858kAPhj4n2XvFk70AAEA8rHe3b4XpST+Ylbt5KzkA4NkYYAFIrL7GhrowCL/EEwsBAECEbTbzH1YH478xOdfxODkAYPsYYAFIvFWN9fMD829IeiU1AABARAxKfjFPFgSAXcMAC0DFWN1c/2pzfVPyo6gBAADGSChTaxAEn6nJdT5IDgDYNQywAFQUl6yvsf5UN/+apIMpAgAAyrUb4qarU8P2+Zoru7rIAQAjwwALQGXuQZ4xr6p3/eC7zHWuy7MUAQAAJXSdTJ/Ltnb/kxQAMDoMsABUtJ4T5020qoEPuPQpSdMpAgAAisZ1vckWZtq7biAGAOweBlgAIOne4+dU7zFxwjs5IwsAABTBTWEQnDvzis6/kAIAioMBFgA8w9ODLLl/SdIMigAAgBFgcAUAJcIACwC2I99SO27fMDidQRYAANgFNwXuX6ppz/8vKQCgNBhgAcAOPGOQ9UVJMykCAACe4SaTfzHTlv8/UgBAaTHAAoBdwCALAAA8w00W6JzMFd3XkwIAyoMBFgCMwL3Hz6meNL76vW72KUkHUAQAgIrhkq4JFPx3TVvnP8gBAOXFAAsARrMHu1BBT1ftCSY7V655FAEAILFCN11j0pezrd3/JAcAjA0GWACwm3oaa4/zwD5jrjdSAwCAxBiQ9PuCFb46q3XFveQAgLHFAAsAiuQZg6wT2L4CABBTricU6OIqL5w3tW1FL0EAIBo4wAKAIutrbKgLLfy0pLdIqqIIAACxsMaln05IVX9vcq7jcXIAQLQwwAKAEulpmnuALPVxud4jaQ+KAAAQSffLdOHAnpt+Nvvih/rJAQDRxAALAEqs58RD9vOqcWeZ9CFJ+1EEAIBIHAjd7GbfzNR3LbGFCikCAJHfbgMAyuHe4+dUTxpf/WYP7JNy1VMEAICyC910jdzPm9GWv4kcABAfDLAAYAz0NNYep8A+IleTpBRFAAAoqcdlukSBfyebyz9CDgCIHwZYADCG1pxS96JCSh+R692SJlEEAICiHuzc56YfBhODX9Rc1rmZIgAQ6206AGCsrT9+zl4DE8e/S66PSTqAIgAA7Jab3Pz8bGv+KpOcHAAQfwywACBCfKGCnq7aE8ztI5JeTREAAHbZgKTfBx58s6a9s5scAJAsDLAAIKJ6m2pf4rIPS2qRNJ4iAABsjz8kC34WhkM/n9l+13p6AEAyMcACgIh78JQj96lOFd4k10ckr6UIAAAKJf2vuS2qeWxKu11//TBJACDZGGABQIw84+mFp0iqoggAoMKsMfOLLUj9rCbX+SA5AKByMMACgBha21JbMzQcvNPMPyBu+g4ASP5RS4eF/oOaqeMvt0UdQwQBgEr8KgAAxNZTN32v/0+TnyFXk6QUVQAACfG45L8LPHUhN2UHADDAAoCEWHNK3YvCwM5w+bskTaUIACCmhyi3mPTT4dSk383K3byVHgAAiQEWACROvqV23D6hXmey07hXFgAgJkclj8k95+Y/ndG6/A6CAACe/1UBAEisdU1zM0OWepO53u1SA0UAABFSkPR/5rZoQzq8sjaXHyQJAOCFMMACgArRc0r9PKX8HXK9XdJkigAAxshd7nZxVTq8ZFou30cOAMCuYIAFABXmwdMPHD/+8T1PdPMzJL2K7wIAQMm5npDpSje7NNva9ReTnCgAgJHgoAUAKtjqk+tmKbC3mfmZkmZTBABQRKGkm2V2aTDR/qfmss7NJAEAjBYDLACAfKGCvs7aV7rsv2RqkmtfqgAARnmA0Rm6/cbS4eXZXP4RigAAivT9AgDAv917/JzqiROrX2tuLZKaJO1BFQDATqyUqV0eXJJt67ydHACAYmOABQB44aORlvkT0sOb3hgG/g5zvU5SFVUAANtskHQ197UCAJQDAywAwC5Z2VI7ORUGp8r9HZJexncIAFSkrTJd5fLLslPG/8EWdQyRBABQDhx8AABGbE1z/UEFD98mt7fKdDhFACDRBk32h1D+GxuqXppd2rGFJACAcmOABQDYLWua6w8qyE+Uq0WcmQUASdHvpuuC0HPV6fFXTs51PE4SAMBY4iADAFA0vacceaCnhk9mmAUAsbTVTX8JQs+lC8PtU5fc/SRJAABRwYEFAKAkVp9cN8vSapLrjZIWSEpTBQAiZ6NMf7bQr7JJqdaayzo3kwQAEEUMsAAAJddz4iH7WbrqDWFgLTzNEADG3LanB3puY6A/1ubygyQBAEQdAywAQFn1nHjIfl417mSTTpD0Wkl7UAUASu5+ma4OQr9yevrwGyyXK5AEABAnDLAAAGPGFyxI9+677lgL9EYP7RSZDqUKABRFQaZl7rrKQluaXdzVQRIAQJwxwAIARMYznmj4RkmvFJcaAsBIbJDpL5JdlxryK6cv6V5DEgBAUjDAAgBE0sqW2snp4eBVbn6iTG+Ua1+qAMDzPCDTVS5bmp0y7gZb1DFEEgBAEjHAAgBEni9YkO6bvO4VodkbAtdrXarnOwxAhdos6QaX/pA2u3p6a9cDJAEAVAJ2/gEAsdPbctRUDQ8vcAtfLdnxkmZRBUBChTLdYfLrQgXXbdmy9W8HX3vfAFkAAJWGARYAIPaeuneWXi35qxXqdTLtRRUAMdYn098s9KsKKlw9s/2u9SQBAFQ6BlgAgETxBQvSvfusP8JNrzbzEyXNlxRQBkCEbZZ0s7tdZ67reGIgAADPxwALAJBoPScesp+NG/efoeuVJnul5Ifz/QdgjG2W9HeT/S1U+L/ZDVNvseuvHyYLAAAvjB14AEBFWX/8nL36J054aaDw1e52nKSXSqqiDIAS2iTpHy7dJLMbuY8VAAAjxwALAFDR1rbUThoKg2PlfpxJL5f0CknVlAEwaq4nZLrV3a4zhTdlpo6/xRZ1DBEGAIDRY4AFAMAzrG2pnTQ0bPPN7P/Jw1fK7GhJEygD4IV3qK1H8r/J/W+m1A3T2zvzJjllAAAo5vctAAB4Qb5gQbpvytpDFdo8N71cbsfJNJfvUKBiDcnUKekmC71DgXdkWpfnyQIAQGmx8w0AwAg9fR8tuR8n0zxzzZc0hTJAIvXKdKOkmxR6x+b+gdu4fxUAAOXHAAsAgN3kCxX05WsPC4eDY8zCY012rEu1klLUAeL0y/zUvask+0fgfks4PPiP7NJ7HiUMAABjjwEWAAClOA4+Y15V3/qthyi0eR7YPLnmSTpK0kTqAJHYC35MruUydTx9KWBN/fIVtlAhcQAAiOJXNwAAKIt/308rdXhoXrvt8sNjJE2lDlBSvW7qkKtD5h1pBfnprV0PkAUAgPhggAUAwBhb01x/UEHhUfLgSMmPkrxWsgP4ngZGbKtkd8nVqcDvsNCWVafHLZuc63icNAAAxBs7xgAARFC+pXbc5NAPfvpsLTMdrlC1Mh0mKaAQKtygXPcpUN5dywO3vILC8pqg9i7L5QrkAQAgeRhgAQAQIzsYbB0qbhqP5GFQBQAAJDHAAgAgEXpOnDfRx209NHB7kVswR+5z5HqRTHMkzeA7HxHWL9cDZnafe3ifme73wO4LLLh3em3nw9xUHQAAiJ1ZAACSL99SO26/MJg5LB1k0kGm8KBQVmuuwyXtLylNJZTYgKTVkh6QablkeZceSEsPTAsOe5izqQAAwM4wwAIAoILlW2rH7T2cPjAIhmfLNctlMyU/IHj6f5v2lzSBUtiJdZJWmmyV5A/LtDKUr5LrkaqU7p+Wy/eRCAAA7A4GWAAAYId6W46aGoYDM+U2S7IDAtlMd82S+f566gyu6ZLGUSqhXE9IWiXTSkkrzWylFD5csNQqFWylpyeunJW7eSuhAABAKTHAAgAAu21ly/wJ48JNmUIYZj3QvkGofUMFGQs8K9e+kjJyZWXb/jfGWr+kHkm9bnrM3Htc1mumxyy0HlfYa4E/Vh1MWDU51/E4uQAAwFhjgAUAAMqq58R5E4PxQ9OHh70mFWhfd+1jCvdxs31d2sdc+0i2j3m4rwe2z7YB2D7b/gUU/Jd+SY9J2mjSRjffKNdjLtto0kYzbXT3x0zaWAhSj7mH68Z7Yd1+qbq13HMKAADEDQMsAAAQG+uPn7PXwISqfUMP9rGU7SG3iQq1RyCNcwv3NrOqMLS9gkDVUjhRrj1cGmeyvf2pm9XvLWmcTHs864Vd+2xnv2hv2XMGZq499dTrbJZp8Fk7VW5bXd7/nNcYkGnLM/7/u6SNMh+SbJNcWyXvl+xJMx8Ow+CxwHzYzZ60MOyXgq1ybQpTGjL5Rsk2pYNw4+Y9Nm+cffFD/awRAACgUvx/gv7EM8QcHP0AAAAldEVYdGRhdGU6Y3JlYXRlADIwMjAtMDEtMDlUMDg6NTI6MjQrMDA6MDCfzmQIAAAAJXRFWHRkYXRlOm1vZGlmeQAyMDIwLTAxLTA5VDA4OjUyOjI0KzAwOjAw7pPctAAAAABJRU5ErkJggg==;labelPosition=center;verticalLabelPosition=bottom;align=center;verticalAlign=top;" parent="1" vertex="1">
                    <mxGeometry x="-1270" y="-409.25" width="69.58" height="69" as="geometry"/>
                </mxCell>
                <mxCell id="1xMuABiLspTQqIyXcePy-75" value="Default" parent="0"/>
            </root>
        </mxGraphModel>
    </diagram>
</mxfile>